<mxfile host="app.diagrams.net" agent="Mozilla/5.0 (Windows NT 10.0; Win64; x64) AppleWebKit/537.36 (KHTML, like Gecko) Chrome/138.0.0.0 Safari/537.36" version="28.0.6">
  <diagram id="C5RBs43oDa-KdzZeNtuy" name="Page-1">
    <mxGraphModel dx="9428" dy="4387" grid="1" gridSize="10" guides="1" tooltips="1" connect="1" arrows="1" fold="1" page="1" pageScale="1" pageWidth="827" pageHeight="1169" math="0" shadow="0">
      <root>
        <mxCell id="WIyWlLk6GJQsqaUBKTNV-0" />
        <mxCell id="WIyWlLk6GJQsqaUBKTNV-1" parent="WIyWlLk6GJQsqaUBKTNV-0" />
        <mxCell id="M7CGMbNuYNeq0SnUNNgH-6" value="ทบทวนสัญลักษณ์" style="swimlane;fontFamily=Sarabun;fontSource=https%3A%2F%2Ffonts.googleapis.com%2Fcss%3Ffamily%3DSarabun;" parent="WIyWlLk6GJQsqaUBKTNV-1" vertex="1">
          <mxGeometry x="-720" y="20" width="640" height="290" as="geometry" />
        </mxCell>
        <mxCell id="M7CGMbNuYNeq0SnUNNgH-2" value="&lt;font data-font-src=&quot;https://fonts.googleapis.com/css?family=Sarabun&quot; face=&quot;Sarabun&quot;&gt;เริ่มต้น&lt;/font&gt;" style="ellipse;whiteSpace=wrap;html=1;" parent="M7CGMbNuYNeq0SnUNNgH-6" vertex="1">
          <mxGeometry x="20" y="40" width="130" height="30" as="geometry" />
        </mxCell>
        <mxCell id="M7CGMbNuYNeq0SnUNNgH-5" value="" style="endArrow=classic;html=1;rounded=0;" parent="M7CGMbNuYNeq0SnUNNgH-6" edge="1">
          <mxGeometry width="50" height="50" relative="1" as="geometry">
            <mxPoint x="84.5" y="70" as="sourcePoint" />
            <mxPoint x="84.5" y="120" as="targetPoint" />
          </mxGeometry>
        </mxCell>
        <mxCell id="M7CGMbNuYNeq0SnUNNgH-3" value="&lt;font face=&quot;Sarabun&quot;&gt;สิ้นสุด&lt;/font&gt;" style="ellipse;whiteSpace=wrap;html=1;" parent="M7CGMbNuYNeq0SnUNNgH-6" vertex="1">
          <mxGeometry x="150" y="90" width="130" height="30" as="geometry" />
        </mxCell>
        <mxCell id="M7CGMbNuYNeq0SnUNNgH-4" value="" style="endArrow=classic;html=1;rounded=0;" parent="M7CGMbNuYNeq0SnUNNgH-6" edge="1">
          <mxGeometry width="50" height="50" relative="1" as="geometry">
            <mxPoint x="214.5" y="40" as="sourcePoint" />
            <mxPoint x="214.5" y="90" as="targetPoint" />
          </mxGeometry>
        </mxCell>
        <mxCell id="mvioNwK95yMqdUQ73LqQ-0" value="กระบวนการ" style="rounded=0;whiteSpace=wrap;html=1;fontFamily=Sarabun;fontSource=https%3A%2F%2Ffonts.googleapis.com%2Fcss%3Ffamily%3DSarabun;" parent="M7CGMbNuYNeq0SnUNNgH-6" vertex="1">
          <mxGeometry x="320" y="70" width="120" height="30" as="geometry" />
        </mxCell>
        <mxCell id="mvioNwK95yMqdUQ73LqQ-1" value="" style="endArrow=classic;html=1;rounded=0;" parent="M7CGMbNuYNeq0SnUNNgH-6" edge="1">
          <mxGeometry width="50" height="50" relative="1" as="geometry">
            <mxPoint x="379" y="40" as="sourcePoint" />
            <mxPoint x="379.5" y="70" as="targetPoint" />
          </mxGeometry>
        </mxCell>
        <mxCell id="mvioNwK95yMqdUQ73LqQ-2" value="" style="endArrow=classic;html=1;rounded=0;" parent="M7CGMbNuYNeq0SnUNNgH-6" edge="1">
          <mxGeometry width="50" height="50" relative="1" as="geometry">
            <mxPoint x="379.75" y="100" as="sourcePoint" />
            <mxPoint x="380.25" y="130" as="targetPoint" />
          </mxGeometry>
        </mxCell>
        <mxCell id="mvioNwK95yMqdUQ73LqQ-3" value="ประโยคเงื่อนไข" style="rhombus;whiteSpace=wrap;html=1;fontFamily=Sarabun;fontSource=https%3A%2F%2Ffonts.googleapis.com%2Fcss%3Ffamily%3DSarabun;" parent="M7CGMbNuYNeq0SnUNNgH-6" vertex="1">
          <mxGeometry x="490" y="60" width="100" height="60" as="geometry" />
        </mxCell>
        <mxCell id="mvioNwK95yMqdUQ73LqQ-4" value="" style="endArrow=classic;html=1;rounded=0;" parent="M7CGMbNuYNeq0SnUNNgH-6" edge="1">
          <mxGeometry width="50" height="50" relative="1" as="geometry">
            <mxPoint x="539.71" y="30" as="sourcePoint" />
            <mxPoint x="540.21" y="60" as="targetPoint" />
          </mxGeometry>
        </mxCell>
        <mxCell id="mvioNwK95yMqdUQ73LqQ-5" value="" style="endArrow=classic;html=1;rounded=0;" parent="M7CGMbNuYNeq0SnUNNgH-6" edge="1">
          <mxGeometry width="50" height="50" relative="1" as="geometry">
            <mxPoint x="539.71" y="120" as="sourcePoint" />
            <mxPoint x="540" y="175" as="targetPoint" />
          </mxGeometry>
        </mxCell>
        <mxCell id="mvioNwK95yMqdUQ73LqQ-7" value="จริง" style="edgeLabel;html=1;align=center;verticalAlign=middle;resizable=0;points=[];fontFamily=Sarabun;fontSource=https%3A%2F%2Ffonts.googleapis.com%2Fcss%3Ffamily%3DSarabun;" parent="mvioNwK95yMqdUQ73LqQ-5" vertex="1" connectable="0">
          <mxGeometry x="-0.4142" y="-1" relative="1" as="geometry">
            <mxPoint as="offset" />
          </mxGeometry>
        </mxCell>
        <mxCell id="mvioNwK95yMqdUQ73LqQ-6" value="" style="endArrow=classic;html=1;rounded=0;exitX=1;exitY=0.5;exitDx=0;exitDy=0;" parent="M7CGMbNuYNeq0SnUNNgH-6" source="mvioNwK95yMqdUQ73LqQ-3" edge="1">
          <mxGeometry width="50" height="50" relative="1" as="geometry">
            <mxPoint x="620" y="95" as="sourcePoint" />
            <mxPoint x="610" y="175" as="targetPoint" />
            <Array as="points">
              <mxPoint x="610" y="90" />
            </Array>
          </mxGeometry>
        </mxCell>
        <mxCell id="mvioNwK95yMqdUQ73LqQ-8" value="&lt;font data-font-src=&quot;https://fonts.googleapis.com/css?family=Sarabun&quot; face=&quot;Sarabun&quot;&gt;เท็จ&lt;/font&gt;" style="edgeLabel;html=1;align=center;verticalAlign=middle;resizable=0;points=[];" parent="mvioNwK95yMqdUQ73LqQ-6" vertex="1" connectable="0">
          <mxGeometry x="-0.0019" y="-2" relative="1" as="geometry">
            <mxPoint as="offset" />
          </mxGeometry>
        </mxCell>
        <mxCell id="mvioNwK95yMqdUQ73LqQ-9" value="&lt;font data-font-src=&quot;https://fonts.googleapis.com/css?family=Sarabun&quot; face=&quot;Sarabun&quot;&gt;ฟังก์ชัน/โมดูล&lt;/font&gt;" style="shape=process;whiteSpace=wrap;html=1;backgroundOutline=1;" parent="M7CGMbNuYNeq0SnUNNgH-6" vertex="1">
          <mxGeometry x="25" y="180" width="120" height="30" as="geometry" />
        </mxCell>
        <mxCell id="mvioNwK95yMqdUQ73LqQ-11" value="" style="endArrow=classic;html=1;rounded=0;" parent="M7CGMbNuYNeq0SnUNNgH-6" edge="1">
          <mxGeometry width="50" height="50" relative="1" as="geometry">
            <mxPoint x="84.70999999999998" y="150" as="sourcePoint" />
            <mxPoint x="85.20999999999998" y="180" as="targetPoint" />
          </mxGeometry>
        </mxCell>
        <mxCell id="mvioNwK95yMqdUQ73LqQ-12" value="" style="endArrow=classic;html=1;rounded=0;" parent="M7CGMbNuYNeq0SnUNNgH-6" edge="1">
          <mxGeometry width="50" height="50" relative="1" as="geometry">
            <mxPoint x="84.70999999999998" y="210" as="sourcePoint" />
            <mxPoint x="85.20999999999998" y="240" as="targetPoint" />
          </mxGeometry>
        </mxCell>
        <mxCell id="mvioNwK95yMqdUQ73LqQ-13" value="" style="strokeWidth=2;html=1;shape=mxgraph.flowchart.start_2;whiteSpace=wrap;" parent="M7CGMbNuYNeq0SnUNNgH-6" vertex="1">
          <mxGeometry x="205" y="185" width="20" height="20" as="geometry" />
        </mxCell>
        <mxCell id="mvioNwK95yMqdUQ73LqQ-16" value="" style="endArrow=classic;html=1;rounded=0;" parent="M7CGMbNuYNeq0SnUNNgH-6" edge="1">
          <mxGeometry width="50" height="50" relative="1" as="geometry">
            <mxPoint x="214.70999999999998" y="155" as="sourcePoint" />
            <mxPoint x="215.20999999999998" y="185" as="targetPoint" />
          </mxGeometry>
        </mxCell>
        <mxCell id="mvioNwK95yMqdUQ73LqQ-17" value="" style="endArrow=classic;html=1;rounded=0;entryX=0;entryY=0.5;entryDx=0;entryDy=0;entryPerimeter=0;" parent="M7CGMbNuYNeq0SnUNNgH-6" target="mvioNwK95yMqdUQ73LqQ-13" edge="1">
          <mxGeometry width="50" height="50" relative="1" as="geometry">
            <mxPoint x="189.99999999999997" y="155" as="sourcePoint" />
            <mxPoint x="190.49999999999997" y="185" as="targetPoint" />
            <Array as="points">
              <mxPoint x="190" y="180" />
            </Array>
          </mxGeometry>
        </mxCell>
        <mxCell id="mvioNwK95yMqdUQ73LqQ-18" value="" style="endArrow=classic;html=1;rounded=0;entryX=1;entryY=0.5;entryDx=0;entryDy=0;entryPerimeter=0;" parent="M7CGMbNuYNeq0SnUNNgH-6" target="mvioNwK95yMqdUQ73LqQ-13" edge="1">
          <mxGeometry width="50" height="50" relative="1" as="geometry">
            <mxPoint x="239.99999999999997" y="155" as="sourcePoint" />
            <mxPoint x="240.49999999999997" y="185" as="targetPoint" />
            <Array as="points">
              <mxPoint x="240" y="180" />
            </Array>
          </mxGeometry>
        </mxCell>
        <mxCell id="mvioNwK95yMqdUQ73LqQ-19" value="" style="endArrow=classic;html=1;rounded=0;" parent="M7CGMbNuYNeq0SnUNNgH-6" edge="1">
          <mxGeometry width="50" height="50" relative="1" as="geometry">
            <mxPoint x="214.70999999999998" y="205" as="sourcePoint" />
            <mxPoint x="215.20999999999998" y="235" as="targetPoint" />
          </mxGeometry>
        </mxCell>
        <mxCell id="mvioNwK95yMqdUQ73LqQ-20" value="&lt;font data-font-src=&quot;https://fonts.googleapis.com/css?family=Sarabun&quot; face=&quot;Sarabun&quot;&gt;ตัวเชื่อม&lt;/font&gt;" style="text;html=1;align=center;verticalAlign=middle;resizable=0;points=[];autosize=1;strokeColor=none;fillColor=none;" parent="M7CGMbNuYNeq0SnUNNgH-6" vertex="1">
          <mxGeometry x="220" y="190" width="60" height="30" as="geometry" />
        </mxCell>
        <mxCell id="mvioNwK95yMqdUQ73LqQ-25" value="" style="endArrow=classic;html=1;rounded=0;" parent="M7CGMbNuYNeq0SnUNNgH-6" edge="1">
          <mxGeometry width="50" height="50" relative="1" as="geometry">
            <mxPoint x="353.71" y="165" as="sourcePoint" />
            <mxPoint x="354.21" y="195" as="targetPoint" />
          </mxGeometry>
        </mxCell>
        <mxCell id="mvioNwK95yMqdUQ73LqQ-21" value="" style="verticalLabelPosition=bottom;verticalAlign=top;html=1;shape=offPageConnector;rounded=0;size=0.5;" parent="M7CGMbNuYNeq0SnUNNgH-6" vertex="1">
          <mxGeometry x="339" y="195" width="30" height="30" as="geometry" />
        </mxCell>
        <mxCell id="mvioNwK95yMqdUQ73LqQ-26" value="" style="endArrow=classic;html=1;rounded=0;" parent="M7CGMbNuYNeq0SnUNNgH-6" edge="1">
          <mxGeometry width="50" height="50" relative="1" as="geometry">
            <mxPoint x="405.71" y="195" as="sourcePoint" />
            <mxPoint x="406.21" y="225" as="targetPoint" />
          </mxGeometry>
        </mxCell>
        <mxCell id="mvioNwK95yMqdUQ73LqQ-27" value="" style="verticalLabelPosition=bottom;verticalAlign=top;html=1;shape=offPageConnector;rounded=0;size=0.5;" parent="M7CGMbNuYNeq0SnUNNgH-6" vertex="1">
          <mxGeometry x="391" y="165" width="30" height="30" as="geometry" />
        </mxCell>
        <mxCell id="mvioNwK95yMqdUQ73LqQ-28" value="หน้าต่อไป" style="text;html=1;align=center;verticalAlign=middle;resizable=0;points=[];autosize=1;strokeColor=none;fillColor=none;fontFamily=Sarabun;fontSource=https%3A%2F%2Ffonts.googleapis.com%2Fcss%3Ffamily%3DSarabun;" parent="M7CGMbNuYNeq0SnUNNgH-6" vertex="1">
          <mxGeometry x="345" y="220" width="70" height="30" as="geometry" />
        </mxCell>
        <mxCell id="mvioNwK95yMqdUQ73LqQ-29" value="ก" style="text;html=1;align=center;verticalAlign=middle;resizable=0;points=[];autosize=1;strokeColor=none;fillColor=none;fontFamily=Sarabun;fontSource=https%3A%2F%2Ffonts.googleapis.com%2Fcss%3Ffamily%3DSarabun;" parent="M7CGMbNuYNeq0SnUNNgH-6" vertex="1">
          <mxGeometry x="339" y="190" width="30" height="30" as="geometry" />
        </mxCell>
        <mxCell id="mvioNwK95yMqdUQ73LqQ-30" value="ก" style="text;html=1;align=center;verticalAlign=middle;resizable=0;points=[];autosize=1;strokeColor=none;fillColor=none;fontFamily=Sarabun;fontSource=https%3A%2F%2Ffonts.googleapis.com%2Fcss%3Ffamily%3DSarabun;" parent="M7CGMbNuYNeq0SnUNNgH-6" vertex="1">
          <mxGeometry x="391" y="160" width="30" height="30" as="geometry" />
        </mxCell>
        <mxCell id="mvioNwK95yMqdUQ73LqQ-32" value="แสดงผล/รับค่า" style="shape=parallelogram;perimeter=parallelogramPerimeter;whiteSpace=wrap;html=1;fixedSize=1;fontFamily=Sarabun;fontSource=https%3A%2F%2Ffonts.googleapis.com%2Fcss%3Ffamily%3DSarabun;" parent="M7CGMbNuYNeq0SnUNNgH-6" vertex="1">
          <mxGeometry x="450" y="210" width="120" height="30" as="geometry" />
        </mxCell>
        <mxCell id="mvioNwK95yMqdUQ73LqQ-33" value="" style="endArrow=classic;html=1;rounded=0;" parent="M7CGMbNuYNeq0SnUNNgH-6" edge="1">
          <mxGeometry width="50" height="50" relative="1" as="geometry">
            <mxPoint x="509.71" y="180" as="sourcePoint" />
            <mxPoint x="510.21" y="210" as="targetPoint" />
          </mxGeometry>
        </mxCell>
        <mxCell id="mvioNwK95yMqdUQ73LqQ-34" value="" style="endArrow=classic;html=1;rounded=0;" parent="M7CGMbNuYNeq0SnUNNgH-6" edge="1">
          <mxGeometry width="50" height="50" relative="1" as="geometry">
            <mxPoint x="509.71" y="240" as="sourcePoint" />
            <mxPoint x="510.21" y="270" as="targetPoint" />
          </mxGeometry>
        </mxCell>
        <mxCell id="mvioNwK95yMqdUQ73LqQ-70" value="&lt;font data-font-src=&quot;https://fonts.googleapis.com/css?family=Sarabun&quot; face=&quot;Sarabun&quot;&gt;โจทย์ปัญหา&lt;/font&gt;" style="swimlane;whiteSpace=wrap;html=1;" parent="WIyWlLk6GJQsqaUBKTNV-1" vertex="1">
          <mxGeometry x="-720" y="320" width="640" height="824" as="geometry" />
        </mxCell>
        <mxCell id="mvioNwK95yMqdUQ73LqQ-71" value="&lt;font data-font-src=&quot;https://fonts.googleapis.com/css?family=Sarabun&quot; face=&quot;Sarabun&quot; style=&quot;font-size: 14px;&quot;&gt;จงเขียน Flowchart เพื่อแสดงขั้นตอนการทำงาน ของเครื่องขายน้ำอัตโนมัติที่ชื่อว่า &quot;ตะพาบลอย&quot;&lt;br&gt;โดยจะต้องมีสินค้าดังนี้&lt;br&gt;&lt;u&gt;ประเภทน้ำ&lt;span style=&quot;white-space: pre;&quot;&gt;&#x9;&lt;/span&gt;&lt;span style=&quot;white-space: pre;&quot;&gt;&#x9;&lt;/span&gt;&lt;span style=&quot;white-space: pre;&quot;&gt;&#x9;&lt;/span&gt;&lt;span style=&quot;white-space: pre;&quot;&gt;&#x9;&lt;/span&gt;&lt;span style=&quot;white-space: pre;&quot;&gt;&#x9;&lt;/span&gt;&lt;span style=&quot;white-space: pre;&quot;&gt;&#x9;&lt;span style=&quot;white-space: pre;&quot;&gt;&#x9;&lt;/span&gt;ข&lt;/span&gt;นม&lt;/u&gt;&lt;br&gt;&lt;span style=&quot;white-space: pre;&quot;&gt;&#x9;&lt;/span&gt;- โค้ก กระป๋องละ 10 บาท&lt;span style=&quot;white-space: pre;&quot;&gt;&#x9;&lt;/span&gt;&lt;span style=&quot;white-space: pre;&quot;&gt;&#x9;&lt;/span&gt;&lt;span style=&quot;white-space: pre;&quot;&gt;&#x9;&lt;/span&gt;&lt;span style=&quot;white-space: pre;&quot;&gt;&#x9;&lt;/span&gt;- เมล็ดทานตะวัน 13 บาท&lt;br&gt;&lt;span style=&quot;white-space: pre;&quot;&gt;&#x9;&lt;/span&gt;- น้ำเขียว กระป๋องละ 12 บาท&lt;span style=&quot;white-space: pre;&quot;&gt;&#x9;&lt;/span&gt;&lt;span style=&quot;white-space: pre;&quot;&gt;&#x9;&lt;/span&gt;&lt;span style=&quot;white-space: pre;&quot;&gt;&#x9;&lt;/span&gt;- ถั่วแปบ 20 บาท&lt;br&gt;&lt;span style=&quot;white-space: pre;&quot;&gt;&#x9;&lt;/span&gt;- อเมริกาโน่ 30 บาท&lt;span style=&quot;white-space: pre;&quot;&gt;&#x9;&lt;/span&gt;&lt;span style=&quot;white-space: pre;&quot;&gt;&#x9;&lt;/span&gt;&lt;span style=&quot;white-space: pre;&quot;&gt;&#x9;&lt;/span&gt;&lt;span style=&quot;white-space: pre;&quot;&gt;&#x9;&lt;/span&gt;&lt;span style=&quot;white-space: pre;&quot;&gt;&#x9;&lt;/span&gt;- จิ้นส้มหมก 15 บาท&lt;br&gt;&lt;span style=&quot;white-space: pre;&quot;&gt;&#x9;&lt;/span&gt;- ลาเต้ หวานเจี๊ยบ 35 บาท&lt;span style=&quot;white-space: pre;&quot;&gt;&#x9;&lt;/span&gt;&lt;br&gt;&lt;br&gt;&lt;u&gt;สิ่งที่ระบบควรจะทำได้&lt;/u&gt;&lt;br&gt;&lt;span style=&quot;white-space: pre;&quot;&gt;&#x9;&lt;/span&gt;- ลูกค้าเลือกสินค้า, ระบบจะต้องรวมยอดขาย และรวมรายการสินค้าทั้งหมดที่ลูกค้าเลือก&lt;br&gt;&lt;span style=&quot;white-space: pre;&quot;&gt;&#x9;&lt;/span&gt;- สรุปยอดว่าเหลือเงินในตู้อีกเท่าไหร่ เหลือเหรียญอะไรบ้าง? ธนบัตรอะไรบ้าง? อย่างละเท่าไหร่?&lt;br&gt;&lt;br&gt;&lt;br&gt;&lt;/font&gt;" style="text;html=1;align=left;verticalAlign=middle;resizable=0;points=[];autosize=1;strokeColor=none;fillColor=none;fontSize=14;" parent="mvioNwK95yMqdUQ73LqQ-70" vertex="1">
          <mxGeometry x="25" y="30" width="580" height="240" as="geometry" />
        </mxCell>
        <mxCell id="mvioNwK95yMqdUQ73LqQ-36" value="นี่เป็นปัญหา" style="swimlane;fontFamily=Sarabun;fontSource=https%3A%2F%2Ffonts.googleapis.com%2Fcss%3Ffamily%3DSarabun;" parent="mvioNwK95yMqdUQ73LqQ-70" vertex="1">
          <mxGeometry y="264" width="640" height="560" as="geometry" />
        </mxCell>
        <mxCell id="MSBUPBAipDb2ATlnMfmg-0" style="edgeStyle=orthogonalEdgeStyle;rounded=0;orthogonalLoop=1;jettySize=auto;html=1;exitX=0.5;exitY=1;exitDx=0;exitDy=0;entryX=0.5;entryY=0;entryDx=0;entryDy=0;" parent="mvioNwK95yMqdUQ73LqQ-36" source="MSBUPBAipDb2ATlnMfmg-1" target="MSBUPBAipDb2ATlnMfmg-7" edge="1">
          <mxGeometry relative="1" as="geometry" />
        </mxCell>
        <mxCell id="MSBUPBAipDb2ATlnMfmg-1" value="เริ่ม" style="ellipse;whiteSpace=wrap;html=1;" parent="mvioNwK95yMqdUQ73LqQ-36" vertex="1">
          <mxGeometry x="260" y="40" width="120" height="40" as="geometry" />
        </mxCell>
        <mxCell id="m5jzVh6tU3gFUoCoh68g-6" style="edgeStyle=orthogonalEdgeStyle;rounded=0;orthogonalLoop=1;jettySize=auto;html=1;exitX=0.5;exitY=1;exitDx=0;exitDy=0;entryX=0.5;entryY=0;entryDx=0;entryDy=0;" edge="1" parent="mvioNwK95yMqdUQ73LqQ-36" source="MSBUPBAipDb2ATlnMfmg-3" target="MSBUPBAipDb2ATlnMfmg-25">
          <mxGeometry relative="1" as="geometry" />
        </mxCell>
        <mxCell id="MSBUPBAipDb2ATlnMfmg-3" value="เลือกสินค้า" style="shape=process;whiteSpace=wrap;html=1;backgroundOutline=1;" parent="mvioNwK95yMqdUQ73LqQ-36" vertex="1">
          <mxGeometry x="260" y="376" width="120" height="60" as="geometry" />
        </mxCell>
        <mxCell id="m5jzVh6tU3gFUoCoh68g-4" style="edgeStyle=orthogonalEdgeStyle;rounded=0;orthogonalLoop=1;jettySize=auto;html=1;exitX=0.5;exitY=1;exitDx=0;exitDy=0;entryX=0.5;entryY=0;entryDx=0;entryDy=0;" edge="1" parent="mvioNwK95yMqdUQ73LqQ-36" source="MSBUPBAipDb2ATlnMfmg-7" target="m5jzVh6tU3gFUoCoh68g-3">
          <mxGeometry relative="1" as="geometry" />
        </mxCell>
        <mxCell id="MSBUPBAipDb2ATlnMfmg-7" value="ประกาศตัวแปล&lt;div&gt;เงินทอน,ราคาสินค้ารวม,เงินเข้า,ราคาสินค้าA1...An&lt;/div&gt;" style="rounded=0;whiteSpace=wrap;html=1;" parent="mvioNwK95yMqdUQ73LqQ-36" vertex="1">
          <mxGeometry x="260" y="110" width="120" height="60" as="geometry" />
        </mxCell>
        <mxCell id="MSBUPBAipDb2ATlnMfmg-25" value="&lt;font style=&quot;vertical-align: inherit;&quot;&gt;&lt;font style=&quot;vertical-align: inherit;&quot;&gt;1&lt;/font&gt;&lt;/font&gt;" style="shape=offPageConnector;whiteSpace=wrap;html=1;" parent="mvioNwK95yMqdUQ73LqQ-36" vertex="1">
          <mxGeometry x="280" y="470" width="80" height="80" as="geometry" />
        </mxCell>
        <mxCell id="m5jzVh6tU3gFUoCoh68g-5" style="edgeStyle=orthogonalEdgeStyle;rounded=0;orthogonalLoop=1;jettySize=auto;html=1;exitX=0.5;exitY=1;exitDx=0;exitDy=0;entryX=0.5;entryY=0;entryDx=0;entryDy=0;" edge="1" parent="mvioNwK95yMqdUQ73LqQ-36" source="m5jzVh6tU3gFUoCoh68g-3" target="MSBUPBAipDb2ATlnMfmg-3">
          <mxGeometry relative="1" as="geometry" />
        </mxCell>
        <mxCell id="m5jzVh6tU3gFUoCoh68g-3" value="&lt;div&gt;&lt;span style=&quot;color: rgb(0, 29, 53); font-family: Arial, sans-serif; text-align: start; background-color: rgb(255, 255, 255);&quot;&gt;ประกาศตัวแปล&lt;/span&gt;&lt;/div&gt;&lt;span style=&quot;color: rgb(0, 29, 53); font-family: Arial, sans-serif; text-align: start; background-color: rgb(255, 255, 255);&quot;&gt;Stock_A1 = 25&lt;/span&gt;&lt;div&gt;&lt;span style=&quot;color: rgb(0, 29, 53); font-family: Arial, sans-serif; text-align: start; background-color: rgb(255, 255, 255);&quot;&gt;Stock_A2 = 25&lt;/span&gt;&lt;/div&gt;&lt;div&gt;&lt;span style=&quot;color: rgb(0, 29, 53); font-family: Arial, sans-serif; text-align: start; background-color: rgb(255, 255, 255);&quot;&gt;Stock_A3 = 25&lt;/span&gt;&lt;/div&gt;&lt;div&gt;&lt;span style=&quot;color: rgb(0, 29, 53); font-family: Arial, sans-serif; text-align: start; background-color: rgb(255, 255, 255);&quot;&gt;Stock_A4 = 25&lt;/span&gt;&lt;/div&gt;&lt;div&gt;&lt;span style=&quot;color: rgb(0, 29, 53); font-family: Arial, sans-serif; text-align: start; background-color: rgb(255, 255, 255);&quot;&gt;Stock_A5 = 25&lt;/span&gt;&lt;/div&gt;&lt;div&gt;&lt;span style=&quot;color: rgb(0, 29, 53); font-family: Arial, sans-serif; text-align: start; background-color: rgb(255, 255, 255);&quot;&gt;Stock_A6 = 25&lt;/span&gt;&lt;/div&gt;&lt;div&gt;&lt;span style=&quot;color: rgb(0, 29, 53); font-family: Arial, sans-serif; text-align: start; background-color: rgb(255, 255, 255);&quot;&gt;Stock_A7 = 25&lt;/span&gt;&lt;/div&gt;" style="rounded=0;whiteSpace=wrap;html=1;" vertex="1" parent="mvioNwK95yMqdUQ73LqQ-36">
          <mxGeometry x="220.88" y="203" width="198.25" height="141" as="geometry" />
        </mxCell>
        <mxCell id="MSBUPBAipDb2ATlnMfmg-53" value="นี่เป็นปัญหา" style="swimlane;fontFamily=Sarabun;fontSource=https%3A%2F%2Ffonts.googleapis.com%2Fcss%3Ffamily%3DSarabun;" parent="WIyWlLk6GJQsqaUBKTNV-1" vertex="1">
          <mxGeometry x="70" y="20" width="640" height="1120" as="geometry" />
        </mxCell>
        <mxCell id="m5jzVh6tU3gFUoCoh68g-7" style="edgeStyle=orthogonalEdgeStyle;rounded=0;orthogonalLoop=1;jettySize=auto;html=1;exitX=0.5;exitY=1;exitDx=0;exitDy=0;entryX=0.5;entryY=0;entryDx=0;entryDy=0;" edge="1" parent="MSBUPBAipDb2ATlnMfmg-53" source="m5jzVh6tU3gFUoCoh68g-8" target="m5jzVh6tU3gFUoCoh68g-10">
          <mxGeometry relative="1" as="geometry" />
        </mxCell>
        <mxCell id="m5jzVh6tU3gFUoCoh68g-8" value="คำนวน" style="shape=process;whiteSpace=wrap;html=1;backgroundOutline=1;" vertex="1" parent="MSBUPBAipDb2ATlnMfmg-53">
          <mxGeometry x="294" y="384" width="120" height="60" as="geometry" />
        </mxCell>
        <mxCell id="m5jzVh6tU3gFUoCoh68g-9" style="edgeStyle=orthogonalEdgeStyle;rounded=0;orthogonalLoop=1;jettySize=auto;html=1;exitX=0.5;exitY=1;exitDx=0;exitDy=0;entryX=0.5;entryY=0;entryDx=0;entryDy=0;" edge="1" parent="MSBUPBAipDb2ATlnMfmg-53" source="m5jzVh6tU3gFUoCoh68g-10" target="m5jzVh6tU3gFUoCoh68g-12">
          <mxGeometry relative="1" as="geometry" />
        </mxCell>
        <mxCell id="m5jzVh6tU3gFUoCoh68g-10" value="แสดง เงินทอน" style="shape=parallelogram;perimeter=parallelogramPerimeter;whiteSpace=wrap;html=1;fixedSize=1;" vertex="1" parent="MSBUPBAipDb2ATlnMfmg-53">
          <mxGeometry x="294" y="474" width="120" height="60" as="geometry" />
        </mxCell>
        <mxCell id="m5jzVh6tU3gFUoCoh68g-11" style="edgeStyle=orthogonalEdgeStyle;rounded=0;orthogonalLoop=1;jettySize=auto;html=1;exitX=0.5;exitY=1;exitDx=0;exitDy=0;entryX=0.5;entryY=0;entryDx=0;entryDy=0;" edge="1" parent="MSBUPBAipDb2ATlnMfmg-53" source="m5jzVh6tU3gFUoCoh68g-12" target="m5jzVh6tU3gFUoCoh68g-13">
          <mxGeometry relative="1" as="geometry" />
        </mxCell>
        <mxCell id="m5jzVh6tU3gFUoCoh68g-12" value="แบ็ง1000บาท=a&lt;div&gt;แบ็ง500บาท=b&lt;/div&gt;&lt;div&gt;แบ็ง100บาท=c&lt;/div&gt;&lt;div&gt;แบ็ง50บาท=d&lt;/div&gt;&lt;div&gt;แบ็ง20บาท=e&lt;/div&gt;&lt;div&gt;&lt;span style=&quot;background-color: transparent; color: light-dark(rgb(0, 0, 0), rgb(255, 255, 255));&quot;&gt;เหรียญ10บาท&lt;/span&gt;=f&lt;/div&gt;&lt;div&gt;&lt;span style=&quot;background-color: transparent; color: light-dark(rgb(0, 0, 0), rgb(255, 255, 255));&quot;&gt;เหรียญ5บาท&lt;/span&gt;=g&lt;/div&gt;&lt;div&gt;&lt;span style=&quot;background-color: transparent; color: light-dark(rgb(0, 0, 0), rgb(255, 255, 255));&quot;&gt;เหรียญ2บาท&lt;/span&gt;=h&lt;/div&gt;&lt;div&gt;&lt;span style=&quot;background-color: transparent; color: light-dark(rgb(0, 0, 0), rgb(255, 255, 255));&quot;&gt;เหรียญ1บาท&lt;/span&gt;=i&lt;/div&gt;" style="rounded=0;whiteSpace=wrap;html=1;" vertex="1" parent="MSBUPBAipDb2ATlnMfmg-53">
          <mxGeometry x="274" y="564" width="160" height="180" as="geometry" />
        </mxCell>
        <mxCell id="m5jzVh6tU3gFUoCoh68g-13" value="&lt;font style=&quot;vertical-align: inherit;&quot;&gt;&lt;font style=&quot;vertical-align: inherit;&quot;&gt;&lt;font style=&quot;vertical-align: inherit;&quot;&gt;&lt;font style=&quot;vertical-align: inherit;&quot;&gt;&lt;font style=&quot;vertical-align: inherit;&quot;&gt;&lt;font style=&quot;vertical-align: inherit;&quot;&gt;&lt;font style=&quot;vertical-align: inherit;&quot;&gt;&lt;font style=&quot;vertical-align: inherit;&quot;&gt;แสดงจำนวนแบ็งและเหรียญ&lt;/font&gt;&lt;/font&gt;&lt;/font&gt;&lt;/font&gt;&lt;/font&gt;&lt;/font&gt;&lt;/font&gt;&lt;/font&gt;" style="shape=parallelogram;perimeter=parallelogramPerimeter;whiteSpace=wrap;html=1;fixedSize=1;" vertex="1" parent="MSBUPBAipDb2ATlnMfmg-53">
          <mxGeometry x="289" y="774" width="130" height="60" as="geometry" />
        </mxCell>
        <mxCell id="m5jzVh6tU3gFUoCoh68g-14" style="edgeStyle=orthogonalEdgeStyle;rounded=0;orthogonalLoop=1;jettySize=auto;html=1;exitX=0.5;exitY=1;exitDx=0;exitDy=0;entryX=0.5;entryY=0;entryDx=0;entryDy=0;" edge="1" parent="MSBUPBAipDb2ATlnMfmg-53" target="m5jzVh6tU3gFUoCoh68g-8">
          <mxGeometry relative="1" as="geometry">
            <mxPoint x="354" y="354" as="sourcePoint" />
          </mxGeometry>
        </mxCell>
        <mxCell id="m5jzVh6tU3gFUoCoh68g-15" value="แสดง เงินเข้า" style="shape=parallelogram;perimeter=parallelogramPerimeter;whiteSpace=wrap;html=1;fixedSize=1;" vertex="1" parent="MSBUPBAipDb2ATlnMfmg-53">
          <mxGeometry x="294" y="294" width="120" height="60" as="geometry" />
        </mxCell>
        <mxCell id="m5jzVh6tU3gFUoCoh68g-26" style="edgeStyle=orthogonalEdgeStyle;rounded=0;orthogonalLoop=1;jettySize=auto;html=1;exitX=0.5;exitY=1;exitDx=0;exitDy=0;entryX=0.5;entryY=0;entryDx=0;entryDy=0;" edge="1" parent="MSBUPBAipDb2ATlnMfmg-53" source="m5jzVh6tU3gFUoCoh68g-17" target="m5jzVh6tU3gFUoCoh68g-23">
          <mxGeometry relative="1" as="geometry" />
        </mxCell>
        <mxCell id="m5jzVh6tU3gFUoCoh68g-17" value="&lt;font style=&quot;vertical-align: inherit;&quot;&gt;&lt;font style=&quot;vertical-align: inherit;&quot;&gt;1&lt;/font&gt;&lt;/font&gt;" style="shape=offPageConnector;whiteSpace=wrap;html=1;" vertex="1" parent="MSBUPBAipDb2ATlnMfmg-53">
          <mxGeometry x="319" y="30" width="80" height="80" as="geometry" />
        </mxCell>
        <mxCell id="m5jzVh6tU3gFUoCoh68g-18" style="edgeStyle=orthogonalEdgeStyle;rounded=0;orthogonalLoop=1;jettySize=auto;html=1;exitX=0.5;exitY=1;exitDx=0;exitDy=0;entryX=0.5;entryY=0;entryDx=0;entryDy=0;" edge="1" parent="MSBUPBAipDb2ATlnMfmg-53" source="m5jzVh6tU3gFUoCoh68g-19" target="m5jzVh6tU3gFUoCoh68g-21">
          <mxGeometry relative="1" as="geometry" />
        </mxCell>
        <mxCell id="m5jzVh6tU3gFUoCoh68g-19" value="&#xa;&lt;span style=&quot;color: rgb(0, 0, 0); font-family: Helvetica; font-size: 12px; font-style: normal; font-variant-ligatures: normal; font-variant-caps: normal; font-weight: 400; letter-spacing: normal; orphans: 2; text-align: center; text-indent: 0px; text-transform: none; widows: 2; word-spacing: 0px; -webkit-text-stroke-width: 0px; white-space: normal; background-color: rgb(236, 236, 236); text-decoration-thickness: initial; text-decoration-style: initial; text-decoration-color: initial; display: inline !important; float: none;&quot;&gt;ส่ง สินค้า&lt;/span&gt;&#xa;&#xa;" style="shape=process;whiteSpace=wrap;html=1;backgroundOutline=1;" vertex="1" parent="MSBUPBAipDb2ATlnMfmg-53">
          <mxGeometry x="294" y="867" width="120" height="60" as="geometry" />
        </mxCell>
        <mxCell id="m5jzVh6tU3gFUoCoh68g-20" style="edgeStyle=orthogonalEdgeStyle;rounded=0;orthogonalLoop=1;jettySize=auto;html=1;exitX=0.5;exitY=1;exitDx=0;exitDy=0;entryX=0.5;entryY=0;entryDx=0;entryDy=0;" edge="1" parent="MSBUPBAipDb2ATlnMfmg-53" source="m5jzVh6tU3gFUoCoh68g-21" target="m5jzVh6tU3gFUoCoh68g-22">
          <mxGeometry relative="1" as="geometry" />
        </mxCell>
        <mxCell id="m5jzVh6tU3gFUoCoh68g-21" value="&lt;font style=&quot;vertical-align: inherit;&quot;&gt;&lt;font style=&quot;vertical-align: inherit;&quot;&gt;ทอนเงิน&lt;/font&gt;&lt;/font&gt;" style="shape=parallelogram;perimeter=parallelogramPerimeter;whiteSpace=wrap;html=1;fixedSize=1;" vertex="1" parent="MSBUPBAipDb2ATlnMfmg-53">
          <mxGeometry x="294" y="951" width="120" height="60" as="geometry" />
        </mxCell>
        <mxCell id="m5jzVh6tU3gFUoCoh68g-22" value="&lt;font style=&quot;vertical-align: inherit;&quot;&gt;&lt;font style=&quot;vertical-align: inherit;&quot;&gt;จบ&lt;/font&gt;&lt;/font&gt;" style="ellipse;whiteSpace=wrap;html=1;" vertex="1" parent="MSBUPBAipDb2ATlnMfmg-53">
          <mxGeometry x="294" y="1041" width="120" height="50" as="geometry" />
        </mxCell>
        <mxCell id="m5jzVh6tU3gFUoCoh68g-27" style="edgeStyle=orthogonalEdgeStyle;rounded=0;orthogonalLoop=1;jettySize=auto;html=1;exitX=0.5;exitY=1;exitDx=0;exitDy=0;entryX=0.5;entryY=0;entryDx=0;entryDy=0;" edge="1" parent="MSBUPBAipDb2ATlnMfmg-53" source="m5jzVh6tU3gFUoCoh68g-23" target="m5jzVh6tU3gFUoCoh68g-24">
          <mxGeometry relative="1" as="geometry" />
        </mxCell>
        <mxCell id="m5jzVh6tU3gFUoCoh68g-23" value="แสดงราคาสินค้ารวม" style="shape=parallelogram;perimeter=parallelogramPerimeter;whiteSpace=wrap;html=1;fixedSize=1;" vertex="1" parent="MSBUPBAipDb2ATlnMfmg-53">
          <mxGeometry x="299" y="130" width="120" height="60" as="geometry" />
        </mxCell>
        <mxCell id="m5jzVh6tU3gFUoCoh68g-28" style="edgeStyle=orthogonalEdgeStyle;rounded=0;orthogonalLoop=1;jettySize=auto;html=1;exitX=0.5;exitY=1;exitDx=0;exitDy=0;entryX=0.5;entryY=0;entryDx=0;entryDy=0;" edge="1" parent="MSBUPBAipDb2ATlnMfmg-53" source="m5jzVh6tU3gFUoCoh68g-24" target="m5jzVh6tU3gFUoCoh68g-15">
          <mxGeometry relative="1" as="geometry">
            <mxPoint x="359.4000000000001" y="290" as="targetPoint" />
          </mxGeometry>
        </mxCell>
        <mxCell id="m5jzVh6tU3gFUoCoh68g-24" value="รับ เงินเข้า" style="shape=parallelogram;perimeter=parallelogramPerimeter;whiteSpace=wrap;html=1;fixedSize=1;" vertex="1" parent="MSBUPBAipDb2ATlnMfmg-53">
          <mxGeometry x="294" y="210" width="120" height="60" as="geometry" />
        </mxCell>
        <mxCell id="m5jzVh6tU3gFUoCoh68g-25" style="edgeStyle=orthogonalEdgeStyle;rounded=0;orthogonalLoop=1;jettySize=auto;html=1;exitX=0.5;exitY=1;exitDx=0;exitDy=0;entryX=0.5;entryY=0;entryDx=0;entryDy=0;" edge="1" parent="MSBUPBAipDb2ATlnMfmg-53" source="m5jzVh6tU3gFUoCoh68g-13" target="m5jzVh6tU3gFUoCoh68g-19">
          <mxGeometry relative="1" as="geometry" />
        </mxCell>
        <mxCell id="MSBUPBAipDb2ATlnMfmg-80" value="&lt;font style=&quot;vertical-align: inherit;&quot;&gt;&lt;font style=&quot;vertical-align: inherit;&quot;&gt;&lt;font style=&quot;vertical-align: inherit;&quot;&gt;&lt;font style=&quot;vertical-align: inherit;&quot;&gt;ฟังก์ชัน เลือกสินค้า&lt;/font&gt;&lt;/font&gt;&lt;/font&gt;&lt;/font&gt;" style="swimlane;whiteSpace=wrap;html=1;" parent="WIyWlLk6GJQsqaUBKTNV-1" vertex="1">
          <mxGeometry x="-2470" y="20" width="810" height="3200" as="geometry" />
        </mxCell>
        <mxCell id="MSBUPBAipDb2ATlnMfmg-96" style="edgeStyle=orthogonalEdgeStyle;rounded=0;orthogonalLoop=1;jettySize=auto;html=1;exitX=0.5;exitY=1;exitDx=0;exitDy=0;entryX=0.5;entryY=0;entryDx=0;entryDy=0;" parent="WIyWlLk6GJQsqaUBKTNV-1" source="MSBUPBAipDb2ATlnMfmg-97" target="MSBUPBAipDb2ATlnMfmg-111" edge="1">
          <mxGeometry relative="1" as="geometry" />
        </mxCell>
        <mxCell id="MSBUPBAipDb2ATlnMfmg-97" value="เริ่ม" style="ellipse;whiteSpace=wrap;html=1;" parent="WIyWlLk6GJQsqaUBKTNV-1" vertex="1">
          <mxGeometry x="-522.5" y="1220" width="120" height="50" as="geometry" />
        </mxCell>
        <mxCell id="MSBUPBAipDb2ATlnMfmg-98" style="edgeStyle=orthogonalEdgeStyle;rounded=0;orthogonalLoop=1;jettySize=auto;html=1;exitX=0.5;exitY=1;exitDx=0;exitDy=0;entryX=0.5;entryY=0;entryDx=0;entryDy=0;" parent="WIyWlLk6GJQsqaUBKTNV-1" source="MSBUPBAipDb2ATlnMfmg-99" target="MSBUPBAipDb2ATlnMfmg-123" edge="1">
          <mxGeometry relative="1" as="geometry" />
        </mxCell>
        <mxCell id="MSBUPBAipDb2ATlnMfmg-99" value="เงินทอน=ราคาสินค้ารวม-เงินเข้า" style="rounded=0;whiteSpace=wrap;html=1;" parent="WIyWlLk6GJQsqaUBKTNV-1" vertex="1">
          <mxGeometry x="-547.5" y="1390" width="170" height="60" as="geometry" />
        </mxCell>
        <mxCell id="MSBUPBAipDb2ATlnMfmg-100" value="จริง" style="edgeStyle=orthogonalEdgeStyle;rounded=0;orthogonalLoop=1;jettySize=auto;html=1;exitX=0;exitY=0.5;exitDx=0;exitDy=0;entryX=1;entryY=0.5;entryDx=0;entryDy=0;" parent="WIyWlLk6GJQsqaUBKTNV-1" source="MSBUPBAipDb2ATlnMfmg-102" target="MSBUPBAipDb2ATlnMfmg-104" edge="1">
          <mxGeometry relative="1" as="geometry" />
        </mxCell>
        <mxCell id="MSBUPBAipDb2ATlnMfmg-101" value="เท็จ" style="edgeStyle=orthogonalEdgeStyle;rounded=0;orthogonalLoop=1;jettySize=auto;html=1;exitX=1;exitY=0.5;exitDx=0;exitDy=0;entryX=0.5;entryY=0;entryDx=0;entryDy=0;" parent="WIyWlLk6GJQsqaUBKTNV-1" source="MSBUPBAipDb2ATlnMfmg-102" target="MSBUPBAipDb2ATlnMfmg-125" edge="1">
          <mxGeometry relative="1" as="geometry">
            <mxPoint x="-302.5" y="1570" as="targetPoint" />
          </mxGeometry>
        </mxCell>
        <mxCell id="MSBUPBAipDb2ATlnMfmg-102" value="เงินทอน&amp;gt;1000" style="rhombus;whiteSpace=wrap;html=1;" parent="WIyWlLk6GJQsqaUBKTNV-1" vertex="1">
          <mxGeometry x="-499" y="1530" width="77.5" height="80" as="geometry" />
        </mxCell>
        <mxCell id="MSBUPBAipDb2ATlnMfmg-103" style="edgeStyle=orthogonalEdgeStyle;rounded=0;orthogonalLoop=1;jettySize=auto;html=1;exitX=0.5;exitY=1;exitDx=0;exitDy=0;entryX=0.5;entryY=0;entryDx=0;entryDy=0;" parent="WIyWlLk6GJQsqaUBKTNV-1" source="MSBUPBAipDb2ATlnMfmg-104" target="MSBUPBAipDb2ATlnMfmg-109" edge="1">
          <mxGeometry relative="1" as="geometry" />
        </mxCell>
        <mxCell id="MSBUPBAipDb2ATlnMfmg-104" value="เงินทอน-1000" style="rounded=0;whiteSpace=wrap;html=1;" parent="WIyWlLk6GJQsqaUBKTNV-1" vertex="1">
          <mxGeometry x="-664" y="1540" width="120" height="60" as="geometry" />
        </mxCell>
        <mxCell id="MSBUPBAipDb2ATlnMfmg-105" value="จริง" style="edgeStyle=orthogonalEdgeStyle;rounded=0;orthogonalLoop=1;jettySize=auto;html=1;exitX=0;exitY=0.5;exitDx=0;exitDy=0;entryX=0;entryY=0.5;entryDx=0;entryDy=0;" parent="WIyWlLk6GJQsqaUBKTNV-1" source="MSBUPBAipDb2ATlnMfmg-107" target="MSBUPBAipDb2ATlnMfmg-123" edge="1">
          <mxGeometry relative="1" as="geometry">
            <mxPoint x="-462.5" y="1460" as="targetPoint" />
            <Array as="points">
              <mxPoint x="-742.5" y="1760" />
              <mxPoint x="-742.5" y="1490" />
            </Array>
          </mxGeometry>
        </mxCell>
        <mxCell id="MSBUPBAipDb2ATlnMfmg-106" value="เท็จ" style="edgeStyle=orthogonalEdgeStyle;rounded=0;orthogonalLoop=1;jettySize=auto;html=1;exitX=0.5;exitY=1;exitDx=0;exitDy=0;entryX=0;entryY=0.5;entryDx=0;entryDy=0;" parent="WIyWlLk6GJQsqaUBKTNV-1" source="MSBUPBAipDb2ATlnMfmg-107" target="MSBUPBAipDb2ATlnMfmg-140" edge="1">
          <mxGeometry relative="1" as="geometry">
            <mxPoint x="-603.5" y="2230" as="targetPoint" />
          </mxGeometry>
        </mxCell>
        <mxCell id="MSBUPBAipDb2ATlnMfmg-107" value="เงินทอน&amp;gt;1000" style="rhombus;whiteSpace=wrap;html=1;" parent="WIyWlLk6GJQsqaUBKTNV-1" vertex="1">
          <mxGeometry x="-644" y="1720" width="80" height="80" as="geometry" />
        </mxCell>
        <mxCell id="MSBUPBAipDb2ATlnMfmg-108" style="edgeStyle=orthogonalEdgeStyle;rounded=0;orthogonalLoop=1;jettySize=auto;html=1;exitX=0.5;exitY=1;exitDx=0;exitDy=0;entryX=0.5;entryY=0;entryDx=0;entryDy=0;" parent="WIyWlLk6GJQsqaUBKTNV-1" source="MSBUPBAipDb2ATlnMfmg-109" target="MSBUPBAipDb2ATlnMfmg-107" edge="1">
          <mxGeometry relative="1" as="geometry" />
        </mxCell>
        <mxCell id="MSBUPBAipDb2ATlnMfmg-109" value="a=a+1" style="rounded=0;whiteSpace=wrap;html=1;" parent="WIyWlLk6GJQsqaUBKTNV-1" vertex="1">
          <mxGeometry x="-664" y="1630" width="120" height="60" as="geometry" />
        </mxCell>
        <mxCell id="MSBUPBAipDb2ATlnMfmg-110" style="edgeStyle=orthogonalEdgeStyle;rounded=0;orthogonalLoop=1;jettySize=auto;html=1;exitX=0.5;exitY=1;exitDx=0;exitDy=0;entryX=0.5;entryY=0;entryDx=0;entryDy=0;" parent="WIyWlLk6GJQsqaUBKTNV-1" source="MSBUPBAipDb2ATlnMfmg-111" target="MSBUPBAipDb2ATlnMfmg-99" edge="1">
          <mxGeometry relative="1" as="geometry" />
        </mxCell>
        <mxCell id="MSBUPBAipDb2ATlnMfmg-111" value="ประกาศตัวแปล&lt;div&gt;a=0,b&lt;span style=&quot;background-color: transparent; color: light-dark(rgb(0, 0, 0), rgb(255, 255, 255));&quot;&gt;=0,c=0,d=0,e=0,f=0,g=0,h=0,i=0&lt;/span&gt;&lt;/div&gt;&lt;div&gt;&lt;br&gt;&lt;/div&gt;" style="rounded=0;whiteSpace=wrap;html=1;" parent="WIyWlLk6GJQsqaUBKTNV-1" vertex="1">
          <mxGeometry x="-567.5" y="1300" width="210" height="60" as="geometry" />
        </mxCell>
        <mxCell id="MSBUPBAipDb2ATlnMfmg-112" value="จริง" style="edgeStyle=orthogonalEdgeStyle;rounded=0;orthogonalLoop=1;jettySize=auto;html=1;exitX=0;exitY=0.5;exitDx=0;exitDy=0;entryX=1;entryY=0.5;entryDx=0;entryDy=0;" parent="WIyWlLk6GJQsqaUBKTNV-1" source="MSBUPBAipDb2ATlnMfmg-114" target="MSBUPBAipDb2ATlnMfmg-116" edge="1">
          <mxGeometry relative="1" as="geometry" />
        </mxCell>
        <mxCell id="MSBUPBAipDb2ATlnMfmg-113" value="เท็จ" style="edgeStyle=orthogonalEdgeStyle;rounded=0;orthogonalLoop=1;jettySize=auto;html=1;exitX=1;exitY=0.5;exitDx=0;exitDy=0;entryX=0.5;entryY=0;entryDx=0;entryDy=0;" parent="WIyWlLk6GJQsqaUBKTNV-1" source="MSBUPBAipDb2ATlnMfmg-114" target="MSBUPBAipDb2ATlnMfmg-137" edge="1">
          <mxGeometry relative="1" as="geometry">
            <mxPoint x="-132.5" y="1720" as="targetPoint" />
          </mxGeometry>
        </mxCell>
        <mxCell id="MSBUPBAipDb2ATlnMfmg-114" value="เงินทอน&amp;gt;500" style="rhombus;whiteSpace=wrap;html=1;" parent="WIyWlLk6GJQsqaUBKTNV-1" vertex="1">
          <mxGeometry x="-339" y="1680" width="80" height="80" as="geometry" />
        </mxCell>
        <mxCell id="MSBUPBAipDb2ATlnMfmg-115" style="edgeStyle=orthogonalEdgeStyle;rounded=0;orthogonalLoop=1;jettySize=auto;html=1;exitX=0.5;exitY=1;exitDx=0;exitDy=0;entryX=0.5;entryY=0;entryDx=0;entryDy=0;" parent="WIyWlLk6GJQsqaUBKTNV-1" source="MSBUPBAipDb2ATlnMfmg-116" target="MSBUPBAipDb2ATlnMfmg-121" edge="1">
          <mxGeometry relative="1" as="geometry" />
        </mxCell>
        <mxCell id="MSBUPBAipDb2ATlnMfmg-116" value="เงินทอน-500" style="rounded=0;whiteSpace=wrap;html=1;" parent="WIyWlLk6GJQsqaUBKTNV-1" vertex="1">
          <mxGeometry x="-499" y="1690" width="120" height="60" as="geometry" />
        </mxCell>
        <mxCell id="MSBUPBAipDb2ATlnMfmg-117" value="จริง" style="edgeStyle=orthogonalEdgeStyle;rounded=0;orthogonalLoop=1;jettySize=auto;html=1;exitX=0;exitY=0.5;exitDx=0;exitDy=0;entryX=0;entryY=0.5;entryDx=0;entryDy=0;" parent="WIyWlLk6GJQsqaUBKTNV-1" source="MSBUPBAipDb2ATlnMfmg-119" target="MSBUPBAipDb2ATlnMfmg-125" edge="1">
          <mxGeometry relative="1" as="geometry">
            <mxPoint x="-282.5" y="1640" as="targetPoint" />
            <Array as="points">
              <mxPoint x="-518.5" y="1910" />
              <mxPoint x="-518.5" y="1640" />
            </Array>
          </mxGeometry>
        </mxCell>
        <mxCell id="MSBUPBAipDb2ATlnMfmg-118" value="เท็จ" style="edgeStyle=orthogonalEdgeStyle;rounded=0;orthogonalLoop=1;jettySize=auto;html=1;exitX=0.5;exitY=1;exitDx=0;exitDy=0;entryX=0.5;entryY=0;entryDx=0;entryDy=0;" parent="WIyWlLk6GJQsqaUBKTNV-1" source="MSBUPBAipDb2ATlnMfmg-119" target="MSBUPBAipDb2ATlnMfmg-140" edge="1">
          <mxGeometry relative="1" as="geometry" />
        </mxCell>
        <mxCell id="MSBUPBAipDb2ATlnMfmg-119" value="เงินทอน&amp;gt;500" style="rhombus;whiteSpace=wrap;html=1;" parent="WIyWlLk6GJQsqaUBKTNV-1" vertex="1">
          <mxGeometry x="-479" y="1870" width="80" height="80" as="geometry" />
        </mxCell>
        <mxCell id="MSBUPBAipDb2ATlnMfmg-120" style="edgeStyle=orthogonalEdgeStyle;rounded=0;orthogonalLoop=1;jettySize=auto;html=1;exitX=0.5;exitY=1;exitDx=0;exitDy=0;entryX=0.5;entryY=0;entryDx=0;entryDy=0;" parent="WIyWlLk6GJQsqaUBKTNV-1" source="MSBUPBAipDb2ATlnMfmg-121" target="MSBUPBAipDb2ATlnMfmg-119" edge="1">
          <mxGeometry relative="1" as="geometry" />
        </mxCell>
        <mxCell id="MSBUPBAipDb2ATlnMfmg-121" value="b=b+1" style="rounded=0;whiteSpace=wrap;html=1;" parent="WIyWlLk6GJQsqaUBKTNV-1" vertex="1">
          <mxGeometry x="-499" y="1780" width="120" height="60" as="geometry" />
        </mxCell>
        <mxCell id="MSBUPBAipDb2ATlnMfmg-122" style="edgeStyle=orthogonalEdgeStyle;rounded=0;orthogonalLoop=1;jettySize=auto;html=1;exitX=0.5;exitY=1;exitDx=0;exitDy=0;entryX=0.5;entryY=0;entryDx=0;entryDy=0;" parent="WIyWlLk6GJQsqaUBKTNV-1" source="MSBUPBAipDb2ATlnMfmg-123" target="MSBUPBAipDb2ATlnMfmg-102" edge="1">
          <mxGeometry relative="1" as="geometry" />
        </mxCell>
        <mxCell id="MSBUPBAipDb2ATlnMfmg-123" value="" style="ellipse;whiteSpace=wrap;html=1;aspect=fixed;" parent="WIyWlLk6GJQsqaUBKTNV-1" vertex="1">
          <mxGeometry x="-471.5" y="1480" width="20" height="20" as="geometry" />
        </mxCell>
        <mxCell id="MSBUPBAipDb2ATlnMfmg-124" style="edgeStyle=orthogonalEdgeStyle;rounded=0;orthogonalLoop=1;jettySize=auto;html=1;exitX=0.5;exitY=1;exitDx=0;exitDy=0;entryX=0.5;entryY=0;entryDx=0;entryDy=0;" parent="WIyWlLk6GJQsqaUBKTNV-1" source="MSBUPBAipDb2ATlnMfmg-125" target="MSBUPBAipDb2ATlnMfmg-114" edge="1">
          <mxGeometry relative="1" as="geometry" />
        </mxCell>
        <mxCell id="MSBUPBAipDb2ATlnMfmg-125" value="" style="ellipse;whiteSpace=wrap;html=1;aspect=fixed;" parent="WIyWlLk6GJQsqaUBKTNV-1" vertex="1">
          <mxGeometry x="-309" y="1630" width="20" height="20" as="geometry" />
        </mxCell>
        <mxCell id="MSBUPBAipDb2ATlnMfmg-126" value="จริง" style="edgeStyle=orthogonalEdgeStyle;rounded=0;orthogonalLoop=1;jettySize=auto;html=1;exitX=0;exitY=0.5;exitDx=0;exitDy=0;entryX=1;entryY=0.5;entryDx=0;entryDy=0;" parent="WIyWlLk6GJQsqaUBKTNV-1" source="MSBUPBAipDb2ATlnMfmg-128" target="MSBUPBAipDb2ATlnMfmg-130" edge="1">
          <mxGeometry relative="1" as="geometry" />
        </mxCell>
        <mxCell id="MSBUPBAipDb2ATlnMfmg-127" value="เท็จ" style="edgeStyle=orthogonalEdgeStyle;rounded=0;orthogonalLoop=1;jettySize=auto;html=1;exitX=0.5;exitY=1;exitDx=0;exitDy=0;entryX=1;entryY=0.5;entryDx=0;entryDy=0;fillColor=#f8cecc;strokeColor=#b85450;" parent="WIyWlLk6GJQsqaUBKTNV-1" source="MSBUPBAipDb2ATlnMfmg-128" target="MSBUPBAipDb2ATlnMfmg-138" edge="1">
          <mxGeometry relative="1" as="geometry">
            <mxPoint x="-133.2894736842104" y="2230" as="targetPoint" />
          </mxGeometry>
        </mxCell>
        <mxCell id="MSBUPBAipDb2ATlnMfmg-128" value="เงินทอน&amp;gt;100" style="rhombus;whiteSpace=wrap;html=1;" parent="WIyWlLk6GJQsqaUBKTNV-1" vertex="1">
          <mxGeometry x="-173" y="1830" width="80" height="80" as="geometry" />
        </mxCell>
        <mxCell id="MSBUPBAipDb2ATlnMfmg-129" style="edgeStyle=orthogonalEdgeStyle;rounded=0;orthogonalLoop=1;jettySize=auto;html=1;exitX=0.5;exitY=1;exitDx=0;exitDy=0;entryX=0.5;entryY=0;entryDx=0;entryDy=0;" parent="WIyWlLk6GJQsqaUBKTNV-1" source="MSBUPBAipDb2ATlnMfmg-130" target="MSBUPBAipDb2ATlnMfmg-135" edge="1">
          <mxGeometry relative="1" as="geometry" />
        </mxCell>
        <mxCell id="MSBUPBAipDb2ATlnMfmg-130" value="เงินทอน-100" style="rounded=0;whiteSpace=wrap;html=1;" parent="WIyWlLk6GJQsqaUBKTNV-1" vertex="1">
          <mxGeometry x="-333" y="1840" width="120" height="60" as="geometry" />
        </mxCell>
        <mxCell id="MSBUPBAipDb2ATlnMfmg-131" value="จริง" style="edgeStyle=orthogonalEdgeStyle;rounded=0;orthogonalLoop=1;jettySize=auto;html=1;exitX=0;exitY=0.5;exitDx=0;exitDy=0;entryX=0;entryY=0.5;entryDx=0;entryDy=0;" parent="WIyWlLk6GJQsqaUBKTNV-1" source="MSBUPBAipDb2ATlnMfmg-133" target="MSBUPBAipDb2ATlnMfmg-137" edge="1">
          <mxGeometry relative="1" as="geometry">
            <mxPoint x="-116.5" y="1790" as="targetPoint" />
            <Array as="points">
              <mxPoint x="-352.5" y="2060" />
              <mxPoint x="-352.5" y="1790" />
            </Array>
          </mxGeometry>
        </mxCell>
        <mxCell id="MSBUPBAipDb2ATlnMfmg-132" value="เท็จ" style="edgeStyle=orthogonalEdgeStyle;rounded=0;orthogonalLoop=1;jettySize=auto;html=1;exitX=0.5;exitY=1;exitDx=0;exitDy=0;entryX=1;entryY=0.5;entryDx=0;entryDy=0;" parent="WIyWlLk6GJQsqaUBKTNV-1" source="MSBUPBAipDb2ATlnMfmg-133" target="MSBUPBAipDb2ATlnMfmg-140" edge="1">
          <mxGeometry relative="1" as="geometry">
            <Array as="points">
              <mxPoint x="-322.5" y="2100" />
              <mxPoint x="-322.5" y="2100" />
            </Array>
          </mxGeometry>
        </mxCell>
        <mxCell id="MSBUPBAipDb2ATlnMfmg-133" value="เงินทอน&amp;gt;100" style="rhombus;whiteSpace=wrap;html=1;" parent="WIyWlLk6GJQsqaUBKTNV-1" vertex="1">
          <mxGeometry x="-313" y="2020" width="80" height="80" as="geometry" />
        </mxCell>
        <mxCell id="MSBUPBAipDb2ATlnMfmg-134" style="edgeStyle=orthogonalEdgeStyle;rounded=0;orthogonalLoop=1;jettySize=auto;html=1;exitX=0.5;exitY=1;exitDx=0;exitDy=0;entryX=0.5;entryY=0;entryDx=0;entryDy=0;" parent="WIyWlLk6GJQsqaUBKTNV-1" source="MSBUPBAipDb2ATlnMfmg-135" target="MSBUPBAipDb2ATlnMfmg-133" edge="1">
          <mxGeometry relative="1" as="geometry" />
        </mxCell>
        <mxCell id="MSBUPBAipDb2ATlnMfmg-135" value="c=c+1" style="rounded=0;whiteSpace=wrap;html=1;" parent="WIyWlLk6GJQsqaUBKTNV-1" vertex="1">
          <mxGeometry x="-333" y="1930" width="120" height="60" as="geometry" />
        </mxCell>
        <mxCell id="MSBUPBAipDb2ATlnMfmg-136" style="edgeStyle=orthogonalEdgeStyle;rounded=0;orthogonalLoop=1;jettySize=auto;html=1;exitX=0.5;exitY=1;exitDx=0;exitDy=0;entryX=0.5;entryY=0;entryDx=0;entryDy=0;" parent="WIyWlLk6GJQsqaUBKTNV-1" source="MSBUPBAipDb2ATlnMfmg-137" target="MSBUPBAipDb2ATlnMfmg-128" edge="1">
          <mxGeometry relative="1" as="geometry" />
        </mxCell>
        <mxCell id="MSBUPBAipDb2ATlnMfmg-137" value="" style="ellipse;whiteSpace=wrap;html=1;aspect=fixed;" parent="WIyWlLk6GJQsqaUBKTNV-1" vertex="1">
          <mxGeometry x="-143" y="1780" width="20" height="20" as="geometry" />
        </mxCell>
        <mxCell id="MSBUPBAipDb2ATlnMfmg-138" value="A" style="shape=offPageConnector;whiteSpace=wrap;html=1;" parent="WIyWlLk6GJQsqaUBKTNV-1" vertex="1">
          <mxGeometry x="-313" y="2190" width="80" height="80" as="geometry" />
        </mxCell>
        <mxCell id="MSBUPBAipDb2ATlnMfmg-139" value="เท็จ" style="edgeStyle=orthogonalEdgeStyle;rounded=0;orthogonalLoop=1;jettySize=auto;html=1;exitX=0.5;exitY=1;exitDx=0;exitDy=0;entryX=0;entryY=0.5;entryDx=0;entryDy=0;" parent="WIyWlLk6GJQsqaUBKTNV-1" source="MSBUPBAipDb2ATlnMfmg-140" target="MSBUPBAipDb2ATlnMfmg-138" edge="1">
          <mxGeometry relative="1" as="geometry">
            <mxPoint x="-439" y="2230" as="targetPoint" />
          </mxGeometry>
        </mxCell>
        <mxCell id="MSBUPBAipDb2ATlnMfmg-140" value="" style="ellipse;whiteSpace=wrap;html=1;aspect=fixed;" parent="WIyWlLk6GJQsqaUBKTNV-1" vertex="1">
          <mxGeometry x="-449" y="2090" width="20" height="20" as="geometry" />
        </mxCell>
        <mxCell id="MSBUPBAipDb2ATlnMfmg-141" value="ฟังก์ชัน คำนวน" style="swimlane;whiteSpace=wrap;html=1;" parent="WIyWlLk6GJQsqaUBKTNV-1" vertex="1">
          <mxGeometry x="-773" y="1190" width="720" height="1090" as="geometry" />
        </mxCell>
        <mxCell id="MSBUPBAipDb2ATlnMfmg-142" style="edgeStyle=orthogonalEdgeStyle;rounded=0;orthogonalLoop=1;jettySize=auto;html=1;exitX=0.5;exitY=1;exitDx=0;exitDy=0;entryX=0.5;entryY=0;entryDx=0;entryDy=0;" parent="WIyWlLk6GJQsqaUBKTNV-1" source="MSBUPBAipDb2ATlnMfmg-143" target="MSBUPBAipDb2ATlnMfmg-145" edge="1">
          <mxGeometry relative="1" as="geometry" />
        </mxCell>
        <mxCell id="MSBUPBAipDb2ATlnMfmg-143" value="เงินทอน-50" style="rounded=0;whiteSpace=wrap;html=1;" parent="WIyWlLk6GJQsqaUBKTNV-1" vertex="1">
          <mxGeometry x="148" y="1430" width="120" height="60" as="geometry" />
        </mxCell>
        <mxCell id="MSBUPBAipDb2ATlnMfmg-144" style="edgeStyle=orthogonalEdgeStyle;rounded=0;orthogonalLoop=1;jettySize=auto;html=1;exitX=0.5;exitY=1;exitDx=0;exitDy=0;entryX=0.5;entryY=0;entryDx=0;entryDy=0;" parent="WIyWlLk6GJQsqaUBKTNV-1" source="MSBUPBAipDb2ATlnMfmg-145" target="MSBUPBAipDb2ATlnMfmg-147" edge="1">
          <mxGeometry relative="1" as="geometry" />
        </mxCell>
        <mxCell id="MSBUPBAipDb2ATlnMfmg-145" value="d=d+1" style="rounded=0;whiteSpace=wrap;html=1;" parent="WIyWlLk6GJQsqaUBKTNV-1" vertex="1">
          <mxGeometry x="148" y="1520" width="120" height="60" as="geometry" />
        </mxCell>
        <mxCell id="MSBUPBAipDb2ATlnMfmg-146" value="เท็จ" style="edgeStyle=orthogonalEdgeStyle;rounded=0;orthogonalLoop=1;jettySize=auto;html=1;exitX=0.5;exitY=1;exitDx=0;exitDy=0;entryX=0;entryY=0.5;entryDx=0;entryDy=0;" parent="WIyWlLk6GJQsqaUBKTNV-1" source="MSBUPBAipDb2ATlnMfmg-147" target="MSBUPBAipDb2ATlnMfmg-183" edge="1">
          <mxGeometry relative="1" as="geometry">
            <mxPoint x="208.4000000000001" y="2000" as="targetPoint" />
          </mxGeometry>
        </mxCell>
        <mxCell id="MSBUPBAipDb2ATlnMfmg-147" value="เงินทอน&amp;gt;50" style="rhombus;whiteSpace=wrap;html=1;" parent="WIyWlLk6GJQsqaUBKTNV-1" vertex="1">
          <mxGeometry x="168" y="1610" width="80" height="80" as="geometry" />
        </mxCell>
        <mxCell id="MSBUPBAipDb2ATlnMfmg-148" value="จริง" style="edgeStyle=orthogonalEdgeStyle;rounded=0;orthogonalLoop=1;jettySize=auto;html=1;exitX=0;exitY=0.5;exitDx=0;exitDy=0;" parent="WIyWlLk6GJQsqaUBKTNV-1" source="MSBUPBAipDb2ATlnMfmg-149" edge="1">
          <mxGeometry relative="1" as="geometry">
            <mxPoint x="268.5" y="1459.8000000000002" as="targetPoint" />
          </mxGeometry>
        </mxCell>
        <mxCell id="MSBUPBAipDb2ATlnMfmg-149" value="เงินทอน&amp;gt;50" style="rhombus;whiteSpace=wrap;html=1;" parent="WIyWlLk6GJQsqaUBKTNV-1" vertex="1">
          <mxGeometry x="308" y="1420" width="80" height="80" as="geometry" />
        </mxCell>
        <mxCell id="MSBUPBAipDb2ATlnMfmg-150" style="edgeStyle=orthogonalEdgeStyle;rounded=0;orthogonalLoop=1;jettySize=auto;html=1;exitX=0.5;exitY=1;exitDx=0;exitDy=0;entryX=0.5;entryY=0;entryDx=0;entryDy=0;" parent="WIyWlLk6GJQsqaUBKTNV-1" source="MSBUPBAipDb2ATlnMfmg-151" target="MSBUPBAipDb2ATlnMfmg-149" edge="1">
          <mxGeometry relative="1" as="geometry" />
        </mxCell>
        <mxCell id="MSBUPBAipDb2ATlnMfmg-151" value="" style="ellipse;whiteSpace=wrap;html=1;aspect=fixed;" parent="WIyWlLk6GJQsqaUBKTNV-1" vertex="1">
          <mxGeometry x="338" y="1370" width="20" height="20" as="geometry" />
        </mxCell>
        <mxCell id="MSBUPBAipDb2ATlnMfmg-152" value="จริง" style="edgeStyle=orthogonalEdgeStyle;rounded=0;orthogonalLoop=1;jettySize=auto;html=1;exitX=0;exitY=0.5;exitDx=0;exitDy=0;entryX=0;entryY=0.5;entryDx=0;entryDy=0;" parent="WIyWlLk6GJQsqaUBKTNV-1" source="MSBUPBAipDb2ATlnMfmg-147" target="MSBUPBAipDb2ATlnMfmg-151" edge="1">
          <mxGeometry relative="1" as="geometry">
            <mxPoint x="364.5" y="1380" as="targetPoint" />
            <Array as="points">
              <mxPoint x="128.5" y="1650" />
              <mxPoint x="128.5" y="1380" />
            </Array>
          </mxGeometry>
        </mxCell>
        <mxCell id="MSBUPBAipDb2ATlnMfmg-153" value="จริง" style="edgeStyle=orthogonalEdgeStyle;rounded=0;orthogonalLoop=1;jettySize=auto;html=1;exitX=0;exitY=0.5;exitDx=0;exitDy=0;entryX=1;entryY=0.5;entryDx=0;entryDy=0;" parent="WIyWlLk6GJQsqaUBKTNV-1" source="MSBUPBAipDb2ATlnMfmg-155" target="MSBUPBAipDb2ATlnMfmg-157" edge="1">
          <mxGeometry relative="1" as="geometry" />
        </mxCell>
        <mxCell id="MSBUPBAipDb2ATlnMfmg-154" value="เท็จ" style="edgeStyle=orthogonalEdgeStyle;rounded=0;orthogonalLoop=1;jettySize=auto;html=1;exitX=1;exitY=0.5;exitDx=0;exitDy=0;entryX=0.5;entryY=0;entryDx=0;entryDy=0;" parent="WIyWlLk6GJQsqaUBKTNV-1" source="MSBUPBAipDb2ATlnMfmg-155" target="MSBUPBAipDb2ATlnMfmg-176" edge="1">
          <mxGeometry relative="1" as="geometry">
            <mxPoint x="674.5" y="1610" as="targetPoint" />
          </mxGeometry>
        </mxCell>
        <mxCell id="MSBUPBAipDb2ATlnMfmg-155" value="เงินทอน&amp;gt;20" style="rhombus;whiteSpace=wrap;html=1;" parent="WIyWlLk6GJQsqaUBKTNV-1" vertex="1">
          <mxGeometry x="468" y="1570" width="80" height="80" as="geometry" />
        </mxCell>
        <mxCell id="MSBUPBAipDb2ATlnMfmg-156" style="edgeStyle=orthogonalEdgeStyle;rounded=0;orthogonalLoop=1;jettySize=auto;html=1;exitX=0.5;exitY=1;exitDx=0;exitDy=0;entryX=0.5;entryY=0;entryDx=0;entryDy=0;" parent="WIyWlLk6GJQsqaUBKTNV-1" source="MSBUPBAipDb2ATlnMfmg-157" target="MSBUPBAipDb2ATlnMfmg-162" edge="1">
          <mxGeometry relative="1" as="geometry" />
        </mxCell>
        <mxCell id="MSBUPBAipDb2ATlnMfmg-157" value="เงินทอน-20" style="rounded=0;whiteSpace=wrap;html=1;" parent="WIyWlLk6GJQsqaUBKTNV-1" vertex="1">
          <mxGeometry x="308" y="1580" width="120" height="60" as="geometry" />
        </mxCell>
        <mxCell id="MSBUPBAipDb2ATlnMfmg-158" value="จริง" style="edgeStyle=orthogonalEdgeStyle;rounded=0;orthogonalLoop=1;jettySize=auto;html=1;exitX=0;exitY=0.5;exitDx=0;exitDy=0;entryX=0;entryY=0.5;entryDx=0;entryDy=0;" parent="WIyWlLk6GJQsqaUBKTNV-1" source="MSBUPBAipDb2ATlnMfmg-160" target="MSBUPBAipDb2ATlnMfmg-164" edge="1">
          <mxGeometry relative="1" as="geometry">
            <mxPoint x="524.5" y="1530" as="targetPoint" />
            <Array as="points">
              <mxPoint x="288.5" y="1800" />
              <mxPoint x="288.5" y="1530" />
            </Array>
          </mxGeometry>
        </mxCell>
        <mxCell id="MSBUPBAipDb2ATlnMfmg-159" value="เท็จ" style="edgeStyle=orthogonalEdgeStyle;rounded=0;orthogonalLoop=1;jettySize=auto;html=1;exitX=0.5;exitY=1;exitDx=0;exitDy=0;entryX=0.5;entryY=0;entryDx=0;entryDy=0;" parent="WIyWlLk6GJQsqaUBKTNV-1" source="MSBUPBAipDb2ATlnMfmg-160" target="MSBUPBAipDb2ATlnMfmg-183" edge="1">
          <mxGeometry relative="1" as="geometry" />
        </mxCell>
        <mxCell id="MSBUPBAipDb2ATlnMfmg-160" value="เงินทอน&amp;gt;20" style="rhombus;whiteSpace=wrap;html=1;" parent="WIyWlLk6GJQsqaUBKTNV-1" vertex="1">
          <mxGeometry x="328" y="1760" width="80" height="80" as="geometry" />
        </mxCell>
        <mxCell id="MSBUPBAipDb2ATlnMfmg-161" style="edgeStyle=orthogonalEdgeStyle;rounded=0;orthogonalLoop=1;jettySize=auto;html=1;exitX=0.5;exitY=1;exitDx=0;exitDy=0;entryX=0.5;entryY=0;entryDx=0;entryDy=0;" parent="WIyWlLk6GJQsqaUBKTNV-1" source="MSBUPBAipDb2ATlnMfmg-162" target="MSBUPBAipDb2ATlnMfmg-160" edge="1">
          <mxGeometry relative="1" as="geometry" />
        </mxCell>
        <mxCell id="MSBUPBAipDb2ATlnMfmg-162" value="e=e+1" style="rounded=0;whiteSpace=wrap;html=1;" parent="WIyWlLk6GJQsqaUBKTNV-1" vertex="1">
          <mxGeometry x="308" y="1670" width="120" height="60" as="geometry" />
        </mxCell>
        <mxCell id="MSBUPBAipDb2ATlnMfmg-163" style="edgeStyle=orthogonalEdgeStyle;rounded=0;orthogonalLoop=1;jettySize=auto;html=1;exitX=0.5;exitY=1;exitDx=0;exitDy=0;entryX=0.5;entryY=0;entryDx=0;entryDy=0;" parent="WIyWlLk6GJQsqaUBKTNV-1" source="MSBUPBAipDb2ATlnMfmg-164" target="MSBUPBAipDb2ATlnMfmg-155" edge="1">
          <mxGeometry relative="1" as="geometry" />
        </mxCell>
        <mxCell id="MSBUPBAipDb2ATlnMfmg-164" value="" style="ellipse;whiteSpace=wrap;html=1;aspect=fixed;" parent="WIyWlLk6GJQsqaUBKTNV-1" vertex="1">
          <mxGeometry x="498" y="1520" width="20" height="20" as="geometry" />
        </mxCell>
        <mxCell id="MSBUPBAipDb2ATlnMfmg-165" value="จริง" style="edgeStyle=orthogonalEdgeStyle;rounded=0;orthogonalLoop=1;jettySize=auto;html=1;exitX=0;exitY=0.5;exitDx=0;exitDy=0;entryX=1;entryY=0.5;entryDx=0;entryDy=0;" parent="WIyWlLk6GJQsqaUBKTNV-1" source="MSBUPBAipDb2ATlnMfmg-167" target="MSBUPBAipDb2ATlnMfmg-169" edge="1">
          <mxGeometry relative="1" as="geometry" />
        </mxCell>
        <mxCell id="MSBUPBAipDb2ATlnMfmg-166" value="เท็จ" style="edgeStyle=orthogonalEdgeStyle;rounded=0;orthogonalLoop=1;jettySize=auto;html=1;exitX=0.5;exitY=1;exitDx=0;exitDy=0;entryX=1;entryY=0.5;entryDx=0;entryDy=0;fillColor=#f8cecc;strokeColor=#b85450;" parent="WIyWlLk6GJQsqaUBKTNV-1" source="MSBUPBAipDb2ATlnMfmg-167" target="MSBUPBAipDb2ATlnMfmg-181" edge="1">
          <mxGeometry relative="1" as="geometry">
            <mxPoint x="674" y="2100" as="targetPoint" />
          </mxGeometry>
        </mxCell>
        <mxCell id="MSBUPBAipDb2ATlnMfmg-167" value="เงินทอน&amp;gt;10" style="rhombus;whiteSpace=wrap;html=1;" parent="WIyWlLk6GJQsqaUBKTNV-1" vertex="1">
          <mxGeometry x="634" y="1720" width="80" height="80" as="geometry" />
        </mxCell>
        <mxCell id="MSBUPBAipDb2ATlnMfmg-168" style="edgeStyle=orthogonalEdgeStyle;rounded=0;orthogonalLoop=1;jettySize=auto;html=1;exitX=0.5;exitY=1;exitDx=0;exitDy=0;entryX=0.5;entryY=0;entryDx=0;entryDy=0;" parent="WIyWlLk6GJQsqaUBKTNV-1" source="MSBUPBAipDb2ATlnMfmg-169" target="MSBUPBAipDb2ATlnMfmg-174" edge="1">
          <mxGeometry relative="1" as="geometry" />
        </mxCell>
        <mxCell id="MSBUPBAipDb2ATlnMfmg-169" value="เงินทอน-10" style="rounded=0;whiteSpace=wrap;html=1;" parent="WIyWlLk6GJQsqaUBKTNV-1" vertex="1">
          <mxGeometry x="474" y="1730" width="120" height="60" as="geometry" />
        </mxCell>
        <mxCell id="MSBUPBAipDb2ATlnMfmg-170" value="จริง" style="edgeStyle=orthogonalEdgeStyle;rounded=0;orthogonalLoop=1;jettySize=auto;html=1;exitX=0;exitY=0.5;exitDx=0;exitDy=0;entryX=0;entryY=0.5;entryDx=0;entryDy=0;" parent="WIyWlLk6GJQsqaUBKTNV-1" source="MSBUPBAipDb2ATlnMfmg-172" target="MSBUPBAipDb2ATlnMfmg-176" edge="1">
          <mxGeometry relative="1" as="geometry">
            <mxPoint x="690.5" y="1680" as="targetPoint" />
            <Array as="points">
              <mxPoint x="454.5" y="1950" />
              <mxPoint x="454.5" y="1680" />
            </Array>
          </mxGeometry>
        </mxCell>
        <mxCell id="MSBUPBAipDb2ATlnMfmg-171" value="เท็จ" style="edgeStyle=orthogonalEdgeStyle;rounded=0;orthogonalLoop=1;jettySize=auto;html=1;exitX=0.5;exitY=1;exitDx=0;exitDy=0;entryX=1;entryY=0.5;entryDx=0;entryDy=0;" parent="WIyWlLk6GJQsqaUBKTNV-1" source="MSBUPBAipDb2ATlnMfmg-172" target="MSBUPBAipDb2ATlnMfmg-183" edge="1">
          <mxGeometry relative="1" as="geometry">
            <Array as="points">
              <mxPoint x="534" y="1991" />
            </Array>
          </mxGeometry>
        </mxCell>
        <mxCell id="MSBUPBAipDb2ATlnMfmg-172" value="เงินทอน&amp;gt;10" style="rhombus;whiteSpace=wrap;html=1;" parent="WIyWlLk6GJQsqaUBKTNV-1" vertex="1">
          <mxGeometry x="494" y="1910" width="80" height="80" as="geometry" />
        </mxCell>
        <mxCell id="MSBUPBAipDb2ATlnMfmg-173" style="edgeStyle=orthogonalEdgeStyle;rounded=0;orthogonalLoop=1;jettySize=auto;html=1;exitX=0.5;exitY=1;exitDx=0;exitDy=0;entryX=0.5;entryY=0;entryDx=0;entryDy=0;" parent="WIyWlLk6GJQsqaUBKTNV-1" source="MSBUPBAipDb2ATlnMfmg-174" target="MSBUPBAipDb2ATlnMfmg-172" edge="1">
          <mxGeometry relative="1" as="geometry" />
        </mxCell>
        <mxCell id="MSBUPBAipDb2ATlnMfmg-174" value="f=f+1" style="rounded=0;whiteSpace=wrap;html=1;" parent="WIyWlLk6GJQsqaUBKTNV-1" vertex="1">
          <mxGeometry x="474" y="1820" width="120" height="60" as="geometry" />
        </mxCell>
        <mxCell id="MSBUPBAipDb2ATlnMfmg-175" style="edgeStyle=orthogonalEdgeStyle;rounded=0;orthogonalLoop=1;jettySize=auto;html=1;exitX=0.5;exitY=1;exitDx=0;exitDy=0;entryX=0.5;entryY=0;entryDx=0;entryDy=0;" parent="WIyWlLk6GJQsqaUBKTNV-1" source="MSBUPBAipDb2ATlnMfmg-176" target="MSBUPBAipDb2ATlnMfmg-167" edge="1">
          <mxGeometry relative="1" as="geometry" />
        </mxCell>
        <mxCell id="MSBUPBAipDb2ATlnMfmg-176" value="" style="ellipse;whiteSpace=wrap;html=1;aspect=fixed;" parent="WIyWlLk6GJQsqaUBKTNV-1" vertex="1">
          <mxGeometry x="664" y="1670" width="20" height="20" as="geometry" />
        </mxCell>
        <mxCell id="MSBUPBAipDb2ATlnMfmg-177" value="เท็จ" style="edgeStyle=orthogonalEdgeStyle;rounded=0;orthogonalLoop=1;jettySize=auto;html=1;exitX=1;exitY=0.5;exitDx=0;exitDy=0;entryX=0.5;entryY=0;entryDx=0;entryDy=0;" parent="WIyWlLk6GJQsqaUBKTNV-1" target="MSBUPBAipDb2ATlnMfmg-164" edge="1">
          <mxGeometry relative="1" as="geometry">
            <mxPoint x="504.5" y="1460" as="targetPoint" />
            <mxPoint x="385.5" y="1460" as="sourcePoint" />
          </mxGeometry>
        </mxCell>
        <mxCell id="MSBUPBAipDb2ATlnMfmg-178" value="เท็จ" style="edgeStyle=orthogonalEdgeStyle;rounded=0;orthogonalLoop=1;jettySize=auto;html=1;exitX=1;exitY=0.5;exitDx=0;exitDy=0;entryX=0.5;entryY=0;entryDx=0;entryDy=0;fillColor=#f8cecc;strokeColor=#b85450;" parent="WIyWlLk6GJQsqaUBKTNV-1" source="MSBUPBAipDb2ATlnMfmg-180" target="MSBUPBAipDb2ATlnMfmg-151" edge="1">
          <mxGeometry relative="1" as="geometry">
            <mxPoint x="420" y="1340" as="targetPoint" />
          </mxGeometry>
        </mxCell>
        <mxCell id="MSBUPBAipDb2ATlnMfmg-179" value="เท็จ" style="edgeStyle=orthogonalEdgeStyle;rounded=0;orthogonalLoop=1;jettySize=auto;html=1;exitX=0;exitY=0.5;exitDx=0;exitDy=0;entryX=0;entryY=0.5;entryDx=0;entryDy=0;" parent="WIyWlLk6GJQsqaUBKTNV-1" source="MSBUPBAipDb2ATlnMfmg-180" target="MSBUPBAipDb2ATlnMfmg-183" edge="1">
          <mxGeometry relative="1" as="geometry">
            <mxPoint x="60" y="1990" as="targetPoint" />
            <Array as="points">
              <mxPoint x="60" y="1260" />
              <mxPoint x="60" y="1991" />
            </Array>
          </mxGeometry>
        </mxCell>
        <mxCell id="MSBUPBAipDb2ATlnMfmg-180" value="A" style="shape=offPageConnector;whiteSpace=wrap;html=1;" parent="WIyWlLk6GJQsqaUBKTNV-1" vertex="1">
          <mxGeometry x="308" y="1220" width="80" height="80" as="geometry" />
        </mxCell>
        <mxCell id="MSBUPBAipDb2ATlnMfmg-181" value="B" style="shape=offPageConnector;whiteSpace=wrap;html=1;" parent="WIyWlLk6GJQsqaUBKTNV-1" vertex="1">
          <mxGeometry x="494" y="2050" width="80" height="80" as="geometry" />
        </mxCell>
        <mxCell id="MSBUPBAipDb2ATlnMfmg-182" value="เท็จ" style="edgeStyle=orthogonalEdgeStyle;rounded=0;orthogonalLoop=1;jettySize=auto;html=1;exitX=0.5;exitY=1;exitDx=0;exitDy=0;entryX=0;entryY=0.5;entryDx=0;entryDy=0;" parent="WIyWlLk6GJQsqaUBKTNV-1" source="MSBUPBAipDb2ATlnMfmg-183" target="MSBUPBAipDb2ATlnMfmg-181" edge="1">
          <mxGeometry relative="1" as="geometry">
            <mxPoint x="368.4000000000001" y="2100" as="targetPoint" />
          </mxGeometry>
        </mxCell>
        <mxCell id="MSBUPBAipDb2ATlnMfmg-183" value="" style="ellipse;whiteSpace=wrap;html=1;aspect=fixed;" parent="WIyWlLk6GJQsqaUBKTNV-1" vertex="1">
          <mxGeometry x="357.25" y="1980" width="21.5" height="21.5" as="geometry" />
        </mxCell>
        <mxCell id="MSBUPBAipDb2ATlnMfmg-184" value="ฟังก์ชัน คำนวน" style="swimlane;whiteSpace=wrap;html=1;" parent="WIyWlLk6GJQsqaUBKTNV-1" vertex="1">
          <mxGeometry x="40" y="1180" width="720" height="1090" as="geometry" />
        </mxCell>
        <mxCell id="MSBUPBAipDb2ATlnMfmg-185" style="edgeStyle=orthogonalEdgeStyle;rounded=0;orthogonalLoop=1;jettySize=auto;html=1;exitX=0.5;exitY=1;exitDx=0;exitDy=0;entryX=0.5;entryY=0;entryDx=0;entryDy=0;" parent="WIyWlLk6GJQsqaUBKTNV-1" source="MSBUPBAipDb2ATlnMfmg-186" target="MSBUPBAipDb2ATlnMfmg-188" edge="1">
          <mxGeometry relative="1" as="geometry" />
        </mxCell>
        <mxCell id="MSBUPBAipDb2ATlnMfmg-186" value="เงินทอน-5" style="rounded=0;whiteSpace=wrap;html=1;" parent="WIyWlLk6GJQsqaUBKTNV-1" vertex="1">
          <mxGeometry x="164.39" y="2620" width="120" height="60" as="geometry" />
        </mxCell>
        <mxCell id="MSBUPBAipDb2ATlnMfmg-187" style="edgeStyle=orthogonalEdgeStyle;rounded=0;orthogonalLoop=1;jettySize=auto;html=1;exitX=0.5;exitY=1;exitDx=0;exitDy=0;entryX=0.5;entryY=0;entryDx=0;entryDy=0;" parent="WIyWlLk6GJQsqaUBKTNV-1" source="MSBUPBAipDb2ATlnMfmg-188" target="MSBUPBAipDb2ATlnMfmg-190" edge="1">
          <mxGeometry relative="1" as="geometry" />
        </mxCell>
        <mxCell id="MSBUPBAipDb2ATlnMfmg-188" value="g=g+1" style="rounded=0;whiteSpace=wrap;html=1;" parent="WIyWlLk6GJQsqaUBKTNV-1" vertex="1">
          <mxGeometry x="164.39" y="2710" width="120" height="60" as="geometry" />
        </mxCell>
        <mxCell id="MSBUPBAipDb2ATlnMfmg-189" value="เท็จ" style="edgeStyle=orthogonalEdgeStyle;rounded=0;orthogonalLoop=1;jettySize=auto;html=1;exitX=0.5;exitY=1;exitDx=0;exitDy=0;entryX=0;entryY=0.5;entryDx=0;entryDy=0;" parent="WIyWlLk6GJQsqaUBKTNV-1" source="MSBUPBAipDb2ATlnMfmg-190" target="MSBUPBAipDb2ATlnMfmg-226" edge="1">
          <mxGeometry relative="1" as="geometry">
            <mxPoint x="224" y="3180" as="targetPoint" />
          </mxGeometry>
        </mxCell>
        <mxCell id="MSBUPBAipDb2ATlnMfmg-190" value="เงินทอน&amp;gt;5" style="rhombus;whiteSpace=wrap;html=1;" parent="WIyWlLk6GJQsqaUBKTNV-1" vertex="1">
          <mxGeometry x="184.38999999999987" y="2800" width="80" height="80" as="geometry" />
        </mxCell>
        <mxCell id="MSBUPBAipDb2ATlnMfmg-191" value="จริง" style="edgeStyle=orthogonalEdgeStyle;rounded=0;orthogonalLoop=1;jettySize=auto;html=1;exitX=0;exitY=0.5;exitDx=0;exitDy=0;entryX=1;entryY=0.5;entryDx=0;entryDy=0;" parent="WIyWlLk6GJQsqaUBKTNV-1" source="MSBUPBAipDb2ATlnMfmg-192" target="MSBUPBAipDb2ATlnMfmg-186" edge="1">
          <mxGeometry relative="1" as="geometry" />
        </mxCell>
        <mxCell id="MSBUPBAipDb2ATlnMfmg-192" value="เงินทอน&amp;gt;5" style="rhombus;whiteSpace=wrap;html=1;" parent="WIyWlLk6GJQsqaUBKTNV-1" vertex="1">
          <mxGeometry x="324.3899999999999" y="2610" width="80" height="80" as="geometry" />
        </mxCell>
        <mxCell id="MSBUPBAipDb2ATlnMfmg-193" style="edgeStyle=orthogonalEdgeStyle;rounded=0;orthogonalLoop=1;jettySize=auto;html=1;exitX=0.5;exitY=1;exitDx=0;exitDy=0;entryX=0.5;entryY=0;entryDx=0;entryDy=0;" parent="WIyWlLk6GJQsqaUBKTNV-1" source="MSBUPBAipDb2ATlnMfmg-194" target="MSBUPBAipDb2ATlnMfmg-192" edge="1">
          <mxGeometry relative="1" as="geometry" />
        </mxCell>
        <mxCell id="MSBUPBAipDb2ATlnMfmg-194" value="" style="ellipse;whiteSpace=wrap;html=1;aspect=fixed;" parent="WIyWlLk6GJQsqaUBKTNV-1" vertex="1">
          <mxGeometry x="354.3899999999999" y="2560" width="20" height="20" as="geometry" />
        </mxCell>
        <mxCell id="MSBUPBAipDb2ATlnMfmg-195" value="จริง" style="edgeStyle=orthogonalEdgeStyle;rounded=0;orthogonalLoop=1;jettySize=auto;html=1;exitX=0;exitY=0.5;exitDx=0;exitDy=0;entryX=0;entryY=0.5;entryDx=0;entryDy=0;" parent="WIyWlLk6GJQsqaUBKTNV-1" source="MSBUPBAipDb2ATlnMfmg-190" target="MSBUPBAipDb2ATlnMfmg-194" edge="1">
          <mxGeometry relative="1" as="geometry">
            <mxPoint x="380.8899999999999" y="2570" as="targetPoint" />
            <Array as="points">
              <mxPoint x="144.89" y="2840" />
              <mxPoint x="144.89" y="2570" />
            </Array>
          </mxGeometry>
        </mxCell>
        <mxCell id="MSBUPBAipDb2ATlnMfmg-196" value="จริง" style="edgeStyle=orthogonalEdgeStyle;rounded=0;orthogonalLoop=1;jettySize=auto;html=1;exitX=0;exitY=0.5;exitDx=0;exitDy=0;entryX=1;entryY=0.5;entryDx=0;entryDy=0;" parent="WIyWlLk6GJQsqaUBKTNV-1" source="MSBUPBAipDb2ATlnMfmg-197" target="MSBUPBAipDb2ATlnMfmg-199" edge="1">
          <mxGeometry relative="1" as="geometry" />
        </mxCell>
        <mxCell id="MSBUPBAipDb2ATlnMfmg-197" value="เงินทอน&amp;gt;2" style="rhombus;whiteSpace=wrap;html=1;" parent="WIyWlLk6GJQsqaUBKTNV-1" vertex="1">
          <mxGeometry x="488.3899999999999" y="2760" width="80" height="80" as="geometry" />
        </mxCell>
        <mxCell id="MSBUPBAipDb2ATlnMfmg-198" style="edgeStyle=orthogonalEdgeStyle;rounded=0;orthogonalLoop=1;jettySize=auto;html=1;exitX=0.5;exitY=1;exitDx=0;exitDy=0;entryX=0.5;entryY=0;entryDx=0;entryDy=0;" parent="WIyWlLk6GJQsqaUBKTNV-1" source="MSBUPBAipDb2ATlnMfmg-199" target="MSBUPBAipDb2ATlnMfmg-204" edge="1">
          <mxGeometry relative="1" as="geometry" />
        </mxCell>
        <mxCell id="MSBUPBAipDb2ATlnMfmg-199" value="เงินทอน-2" style="rounded=0;whiteSpace=wrap;html=1;" parent="WIyWlLk6GJQsqaUBKTNV-1" vertex="1">
          <mxGeometry x="328.3899999999999" y="2770" width="120" height="60" as="geometry" />
        </mxCell>
        <mxCell id="MSBUPBAipDb2ATlnMfmg-200" value="จริง" style="edgeStyle=orthogonalEdgeStyle;rounded=0;orthogonalLoop=1;jettySize=auto;html=1;exitX=0;exitY=0.5;exitDx=0;exitDy=0;entryX=0;entryY=0.5;entryDx=0;entryDy=0;" parent="WIyWlLk6GJQsqaUBKTNV-1" source="MSBUPBAipDb2ATlnMfmg-202" target="MSBUPBAipDb2ATlnMfmg-206" edge="1">
          <mxGeometry relative="1" as="geometry">
            <mxPoint x="544.8899999999999" y="2720" as="targetPoint" />
            <Array as="points">
              <mxPoint x="308.8899999999999" y="2990" />
              <mxPoint x="308.8899999999999" y="2720" />
            </Array>
          </mxGeometry>
        </mxCell>
        <mxCell id="MSBUPBAipDb2ATlnMfmg-201" value="เท็จ" style="edgeStyle=orthogonalEdgeStyle;rounded=0;orthogonalLoop=1;jettySize=auto;html=1;exitX=0.5;exitY=1;exitDx=0;exitDy=0;entryX=0;entryY=0;entryDx=0;entryDy=0;" parent="WIyWlLk6GJQsqaUBKTNV-1" source="MSBUPBAipDb2ATlnMfmg-202" target="MSBUPBAipDb2ATlnMfmg-226" edge="1">
          <mxGeometry relative="1" as="geometry">
            <mxPoint x="388" y="3230" as="targetPoint" />
            <Array as="points">
              <mxPoint x="388" y="3213" />
            </Array>
          </mxGeometry>
        </mxCell>
        <mxCell id="MSBUPBAipDb2ATlnMfmg-202" value="เงินทอน&amp;gt;2" style="rhombus;whiteSpace=wrap;html=1;" parent="WIyWlLk6GJQsqaUBKTNV-1" vertex="1">
          <mxGeometry x="348.3899999999999" y="2950" width="80" height="80" as="geometry" />
        </mxCell>
        <mxCell id="MSBUPBAipDb2ATlnMfmg-203" style="edgeStyle=orthogonalEdgeStyle;rounded=0;orthogonalLoop=1;jettySize=auto;html=1;exitX=0.5;exitY=1;exitDx=0;exitDy=0;entryX=0.5;entryY=0;entryDx=0;entryDy=0;" parent="WIyWlLk6GJQsqaUBKTNV-1" source="MSBUPBAipDb2ATlnMfmg-204" target="MSBUPBAipDb2ATlnMfmg-202" edge="1">
          <mxGeometry relative="1" as="geometry" />
        </mxCell>
        <mxCell id="MSBUPBAipDb2ATlnMfmg-204" value="h=h+1" style="rounded=0;whiteSpace=wrap;html=1;" parent="WIyWlLk6GJQsqaUBKTNV-1" vertex="1">
          <mxGeometry x="328.3899999999999" y="2860" width="120" height="60" as="geometry" />
        </mxCell>
        <mxCell id="MSBUPBAipDb2ATlnMfmg-205" style="edgeStyle=orthogonalEdgeStyle;rounded=0;orthogonalLoop=1;jettySize=auto;html=1;exitX=0.5;exitY=1;exitDx=0;exitDy=0;entryX=0.5;entryY=0;entryDx=0;entryDy=0;" parent="WIyWlLk6GJQsqaUBKTNV-1" source="MSBUPBAipDb2ATlnMfmg-206" target="MSBUPBAipDb2ATlnMfmg-197" edge="1">
          <mxGeometry relative="1" as="geometry" />
        </mxCell>
        <mxCell id="MSBUPBAipDb2ATlnMfmg-206" value="" style="ellipse;whiteSpace=wrap;html=1;aspect=fixed;" parent="WIyWlLk6GJQsqaUBKTNV-1" vertex="1">
          <mxGeometry x="518.3899999999999" y="2710" width="20" height="20" as="geometry" />
        </mxCell>
        <mxCell id="MSBUPBAipDb2ATlnMfmg-207" style="edgeStyle=orthogonalEdgeStyle;rounded=0;orthogonalLoop=1;jettySize=auto;html=1;exitX=0.5;exitY=1;exitDx=0;exitDy=0;entryX=0.5;entryY=0;entryDx=0;entryDy=0;" parent="WIyWlLk6GJQsqaUBKTNV-1" source="MSBUPBAipDb2ATlnMfmg-208" target="MSBUPBAipDb2ATlnMfmg-210" edge="1">
          <mxGeometry relative="1" as="geometry" />
        </mxCell>
        <mxCell id="MSBUPBAipDb2ATlnMfmg-208" value="เงินทอน-1" style="rounded=0;whiteSpace=wrap;html=1;" parent="WIyWlLk6GJQsqaUBKTNV-1" vertex="1">
          <mxGeometry x="488.3899999999999" y="2920" width="120" height="60" as="geometry" />
        </mxCell>
        <mxCell id="MSBUPBAipDb2ATlnMfmg-209" style="edgeStyle=orthogonalEdgeStyle;rounded=0;orthogonalLoop=1;jettySize=auto;html=1;exitX=0.5;exitY=1;exitDx=0;exitDy=0;entryX=0.5;entryY=0;entryDx=0;entryDy=0;" parent="WIyWlLk6GJQsqaUBKTNV-1" source="MSBUPBAipDb2ATlnMfmg-210" target="MSBUPBAipDb2ATlnMfmg-212" edge="1">
          <mxGeometry relative="1" as="geometry" />
        </mxCell>
        <mxCell id="MSBUPBAipDb2ATlnMfmg-210" value="i=i+1" style="rounded=0;whiteSpace=wrap;html=1;" parent="WIyWlLk6GJQsqaUBKTNV-1" vertex="1">
          <mxGeometry x="488.3899999999999" y="3010" width="120" height="60" as="geometry" />
        </mxCell>
        <mxCell id="MSBUPBAipDb2ATlnMfmg-211" value="เท็จ" style="edgeStyle=orthogonalEdgeStyle;rounded=0;orthogonalLoop=1;jettySize=auto;html=1;exitX=0.5;exitY=1;exitDx=0;exitDy=0;entryX=0.5;entryY=0;entryDx=0;entryDy=0;" parent="WIyWlLk6GJQsqaUBKTNV-1" source="MSBUPBAipDb2ATlnMfmg-212" target="MSBUPBAipDb2ATlnMfmg-226" edge="1">
          <mxGeometry relative="1" as="geometry" />
        </mxCell>
        <mxCell id="MSBUPBAipDb2ATlnMfmg-212" value="เงินทอน&amp;gt;1" style="rhombus;whiteSpace=wrap;html=1;" parent="WIyWlLk6GJQsqaUBKTNV-1" vertex="1">
          <mxGeometry x="508.3899999999999" y="3100" width="80" height="80" as="geometry" />
        </mxCell>
        <mxCell id="MSBUPBAipDb2ATlnMfmg-213" value="จริง" style="edgeStyle=orthogonalEdgeStyle;rounded=0;orthogonalLoop=1;jettySize=auto;html=1;exitX=0;exitY=0.5;exitDx=0;exitDy=0;" parent="WIyWlLk6GJQsqaUBKTNV-1" source="MSBUPBAipDb2ATlnMfmg-215" edge="1">
          <mxGeometry relative="1" as="geometry">
            <mxPoint x="608.8899999999999" y="2950.2" as="targetPoint" />
          </mxGeometry>
        </mxCell>
        <mxCell id="MSBUPBAipDb2ATlnMfmg-214" value="เท็จ" style="edgeStyle=orthogonalEdgeStyle;rounded=0;orthogonalLoop=1;jettySize=auto;html=1;exitX=0.5;exitY=1;exitDx=0;exitDy=0;entryX=1;entryY=0.5;entryDx=0;entryDy=0;" parent="WIyWlLk6GJQsqaUBKTNV-1" source="MSBUPBAipDb2ATlnMfmg-215" target="MSBUPBAipDb2ATlnMfmg-226" edge="1">
          <mxGeometry relative="1" as="geometry">
            <mxPoint x="688" y="3220" as="targetPoint" />
          </mxGeometry>
        </mxCell>
        <mxCell id="MSBUPBAipDb2ATlnMfmg-215" value="เงินทอน&amp;gt;1" style="rhombus;whiteSpace=wrap;html=1;" parent="WIyWlLk6GJQsqaUBKTNV-1" vertex="1">
          <mxGeometry x="648.3899999999999" y="2910" width="80" height="80" as="geometry" />
        </mxCell>
        <mxCell id="MSBUPBAipDb2ATlnMfmg-216" style="edgeStyle=orthogonalEdgeStyle;rounded=0;orthogonalLoop=1;jettySize=auto;html=1;exitX=0.5;exitY=1;exitDx=0;exitDy=0;entryX=0.5;entryY=0;entryDx=0;entryDy=0;" parent="WIyWlLk6GJQsqaUBKTNV-1" source="MSBUPBAipDb2ATlnMfmg-217" target="MSBUPBAipDb2ATlnMfmg-215" edge="1">
          <mxGeometry relative="1" as="geometry" />
        </mxCell>
        <mxCell id="MSBUPBAipDb2ATlnMfmg-217" value="" style="ellipse;whiteSpace=wrap;html=1;aspect=fixed;" parent="WIyWlLk6GJQsqaUBKTNV-1" vertex="1">
          <mxGeometry x="678.3899999999999" y="2860" width="20" height="20" as="geometry" />
        </mxCell>
        <mxCell id="MSBUPBAipDb2ATlnMfmg-218" value="เท็จ" style="edgeStyle=orthogonalEdgeStyle;rounded=0;orthogonalLoop=1;jettySize=auto;html=1;entryX=0.5;entryY=0;entryDx=0;entryDy=0;" parent="WIyWlLk6GJQsqaUBKTNV-1" target="MSBUPBAipDb2ATlnMfmg-217" edge="1">
          <mxGeometry relative="1" as="geometry">
            <mxPoint x="688.8899999999999" y="2800" as="targetPoint" />
            <mxPoint x="568.8899999999999" y="2800" as="sourcePoint" />
            <Array as="points">
              <mxPoint x="688.8899999999999" y="2800" />
            </Array>
          </mxGeometry>
        </mxCell>
        <mxCell id="MSBUPBAipDb2ATlnMfmg-219" value="จริง" style="edgeStyle=orthogonalEdgeStyle;rounded=0;orthogonalLoop=1;jettySize=auto;html=1;exitX=0;exitY=0.5;exitDx=0;exitDy=0;entryX=0;entryY=0.5;entryDx=0;entryDy=0;" parent="WIyWlLk6GJQsqaUBKTNV-1" source="MSBUPBAipDb2ATlnMfmg-212" target="MSBUPBAipDb2ATlnMfmg-217" edge="1">
          <mxGeometry relative="1" as="geometry">
            <mxPoint x="704.8899999999999" y="2870" as="targetPoint" />
            <Array as="points">
              <mxPoint x="468.8899999999999" y="3140" />
              <mxPoint x="468.8899999999999" y="2870" />
            </Array>
          </mxGeometry>
        </mxCell>
        <mxCell id="MSBUPBAipDb2ATlnMfmg-220" value="เท็จ" style="edgeStyle=orthogonalEdgeStyle;rounded=0;orthogonalLoop=1;jettySize=auto;html=1;exitX=1;exitY=0.5;exitDx=0;exitDy=0;entryX=0.5;entryY=0;entryDx=0;entryDy=0;" parent="WIyWlLk6GJQsqaUBKTNV-1" target="MSBUPBAipDb2ATlnMfmg-206" edge="1">
          <mxGeometry relative="1" as="geometry">
            <mxPoint x="528.8899999999999" y="2650" as="targetPoint" />
            <mxPoint x="402.8899999999999" y="2650" as="sourcePoint" />
          </mxGeometry>
        </mxCell>
        <mxCell id="MSBUPBAipDb2ATlnMfmg-221" value="เท็จ" style="edgeStyle=orthogonalEdgeStyle;rounded=0;orthogonalLoop=1;jettySize=auto;html=1;exitX=1;exitY=0.5;exitDx=0;exitDy=0;entryX=0.5;entryY=0;entryDx=0;entryDy=0;fillColor=#f8cecc;strokeColor=#b85450;" parent="WIyWlLk6GJQsqaUBKTNV-1" source="MSBUPBAipDb2ATlnMfmg-223" target="MSBUPBAipDb2ATlnMfmg-194" edge="1">
          <mxGeometry relative="1" as="geometry">
            <mxPoint x="445" y="2540" as="targetPoint" />
          </mxGeometry>
        </mxCell>
        <mxCell id="MSBUPBAipDb2ATlnMfmg-222" value="เท็จ" style="edgeStyle=orthogonalEdgeStyle;rounded=0;orthogonalLoop=1;jettySize=auto;html=1;exitX=0;exitY=0.5;exitDx=0;exitDy=0;entryX=0;entryY=1;entryDx=0;entryDy=0;" parent="WIyWlLk6GJQsqaUBKTNV-1" source="MSBUPBAipDb2ATlnMfmg-223" target="MSBUPBAipDb2ATlnMfmg-226" edge="1">
          <mxGeometry relative="1" as="geometry">
            <mxPoint x="115" y="3230.800048828125" as="targetPoint" />
            <Array as="points">
              <mxPoint x="85" y="2450" />
              <mxPoint x="85" y="3227" />
            </Array>
          </mxGeometry>
        </mxCell>
        <mxCell id="MSBUPBAipDb2ATlnMfmg-223" value="B" style="shape=offPageConnector;whiteSpace=wrap;html=1;" parent="WIyWlLk6GJQsqaUBKTNV-1" vertex="1">
          <mxGeometry x="324" y="2410" width="80" height="80" as="geometry" />
        </mxCell>
        <mxCell id="MSBUPBAipDb2ATlnMfmg-224" value="จบ" style="ellipse;whiteSpace=wrap;html=1;" parent="WIyWlLk6GJQsqaUBKTNV-1" vertex="1">
          <mxGeometry x="490.0899999999999" y="3255" width="116.61" height="50" as="geometry" />
        </mxCell>
        <mxCell id="MSBUPBAipDb2ATlnMfmg-225" style="edgeStyle=orthogonalEdgeStyle;rounded=0;orthogonalLoop=1;jettySize=auto;html=1;exitX=0.5;exitY=1;exitDx=0;exitDy=0;entryX=0.5;entryY=0;entryDx=0;entryDy=0;" parent="WIyWlLk6GJQsqaUBKTNV-1" source="MSBUPBAipDb2ATlnMfmg-226" target="MSBUPBAipDb2ATlnMfmg-224" edge="1">
          <mxGeometry relative="1" as="geometry" />
        </mxCell>
        <mxCell id="MSBUPBAipDb2ATlnMfmg-226" value="" style="ellipse;whiteSpace=wrap;html=1;aspect=fixed;" parent="WIyWlLk6GJQsqaUBKTNV-1" vertex="1">
          <mxGeometry x="538.3899999999999" y="3210" width="20" height="20" as="geometry" />
        </mxCell>
        <mxCell id="MSBUPBAipDb2ATlnMfmg-227" value="ฟังก์ชัน คำนวน" style="swimlane;whiteSpace=wrap;html=1;" parent="WIyWlLk6GJQsqaUBKTNV-1" vertex="1">
          <mxGeometry x="40" y="2370" width="720" height="1080" as="geometry" />
        </mxCell>
        <mxCell id="m5jzVh6tU3gFUoCoh68g-29" style="edgeStyle=orthogonalEdgeStyle;rounded=0;orthogonalLoop=1;jettySize=auto;html=1;exitX=0.5;exitY=1;exitDx=0;exitDy=0;entryX=0.5;entryY=0;entryDx=0;entryDy=0;" edge="1" parent="WIyWlLk6GJQsqaUBKTNV-1" source="m5jzVh6tU3gFUoCoh68g-30" target="m5jzVh6tU3gFUoCoh68g-119">
          <mxGeometry relative="1" as="geometry" />
        </mxCell>
        <mxCell id="m5jzVh6tU3gFUoCoh68g-30" value="แสดง&lt;div&gt;&lt;b&gt;&lt;u&gt;น้ำ&lt;/u&gt;&lt;/b&gt;&lt;/div&gt;&lt;div&gt;&lt;span style=&quot;font-family: Sarabun; font-size: 14px; text-align: left; text-wrap-mode: nowrap;&quot;&gt;โค้ก กระป๋องละ 10 บาท&amp;nbsp; หมายเลข 1&lt;/span&gt;&lt;/div&gt;&lt;div&gt;&lt;span style=&quot;font-family: Sarabun; font-size: 14px; text-align: left; text-wrap-mode: nowrap;&quot;&gt;น้ำเขียว กระป๋องละ 12 บาท หมายเลข 2&lt;/span&gt;&lt;span style=&quot;font-family: Sarabun; font-size: 14px; text-align: left; text-wrap-mode: nowrap;&quot;&gt;&lt;/span&gt;&lt;/div&gt;&lt;div&gt;&lt;span style=&quot;font-family: Sarabun; font-size: 14px; text-align: left; text-wrap-mode: nowrap;&quot;&gt;อเมริกาโน่ 30 บาท หมายเลข 3&lt;/span&gt;&lt;span style=&quot;font-family: Sarabun; font-size: 14px; text-align: left; text-wrap-mode: nowrap;&quot;&gt;&lt;/span&gt;&lt;/div&gt;&lt;div&gt;&lt;span style=&quot;font-family: Sarabun; font-size: 14px; text-align: left; text-wrap-mode: nowrap;&quot;&gt;ลาเต้ หวานเจี๊ยบ 35 บาท หมายเลข 4&lt;/span&gt;&lt;span style=&quot;font-family: Sarabun; font-size: 14px; text-align: left; text-wrap-mode: nowrap;&quot;&gt;&lt;/span&gt;&lt;/div&gt;&lt;div&gt;&lt;u style=&quot;font-family: Sarabun; font-size: 14px; text-align: left; text-wrap-mode: nowrap;&quot;&gt;&lt;span style=&quot;white-space-collapse: preserve;&quot;&gt;ข&lt;/span&gt;นม&lt;/u&gt;&lt;span style=&quot;font-family: Sarabun; font-size: 14px; text-align: left; text-wrap-mode: nowrap;&quot;&gt;&lt;/span&gt;&lt;/div&gt;&lt;div&gt;&lt;span style=&quot;font-family: Sarabun; font-size: 14px; text-align: left; text-wrap-mode: nowrap;&quot;&gt;&amp;nbsp;เมล็ดทานตะวัน 13 บาท หมายเลข 5&lt;/span&gt;&lt;u style=&quot;font-family: Sarabun; font-size: 14px; text-align: left; text-wrap-mode: nowrap;&quot;&gt;&lt;/u&gt;&lt;/div&gt;&lt;div&gt;&lt;span style=&quot;font-family: Sarabun; font-size: 14px; text-align: left; text-wrap-mode: nowrap;&quot;&gt;ถั่วแปบ 20 บาท หมายเลข 6&lt;/span&gt;&lt;span style=&quot;font-family: Sarabun; font-size: 14px; text-align: left; text-wrap-mode: nowrap;&quot;&gt;&lt;/span&gt;&lt;/div&gt;&lt;div&gt;&lt;span style=&quot;font-family: Sarabun; font-size: 14px; text-align: left; text-wrap-mode: nowrap;&quot;&gt;จิ้นส้มหมก 15 บาท หมายเลข 7&lt;/span&gt;&lt;span style=&quot;font-family: Sarabun; font-size: 14px; text-align: left; text-wrap-mode: nowrap;&quot;&gt;&lt;/span&gt;&lt;/div&gt;" style="shape=parallelogram;perimeter=parallelogramPerimeter;whiteSpace=wrap;html=1;fixedSize=1;" vertex="1" parent="WIyWlLk6GJQsqaUBKTNV-1">
          <mxGeometry x="-2298.61" y="451" width="440" height="180" as="geometry" />
        </mxCell>
        <mxCell id="m5jzVh6tU3gFUoCoh68g-31" style="edgeStyle=orthogonalEdgeStyle;rounded=0;orthogonalLoop=1;jettySize=auto;html=1;exitX=0.5;exitY=1;exitDx=0;exitDy=0;entryX=0.5;entryY=0;entryDx=0;entryDy=0;" edge="1" parent="WIyWlLk6GJQsqaUBKTNV-1" source="m5jzVh6tU3gFUoCoh68g-32" target="m5jzVh6tU3gFUoCoh68g-75">
          <mxGeometry relative="1" as="geometry" />
        </mxCell>
        <mxCell id="m5jzVh6tU3gFUoCoh68g-32" value="เริ่ม" style="ellipse;whiteSpace=wrap;html=1;" vertex="1" parent="WIyWlLk6GJQsqaUBKTNV-1">
          <mxGeometry x="-2138.61" y="60" width="120" height="50" as="geometry" />
        </mxCell>
        <mxCell id="m5jzVh6tU3gFUoCoh68g-33" style="edgeStyle=orthogonalEdgeStyle;rounded=0;orthogonalLoop=1;jettySize=auto;html=1;exitX=0.5;exitY=1;exitDx=0;exitDy=0;entryX=0.5;entryY=0;entryDx=0;entryDy=0;" edge="1" parent="WIyWlLk6GJQsqaUBKTNV-1" source="m5jzVh6tU3gFUoCoh68g-34" target="m5jzVh6tU3gFUoCoh68g-30">
          <mxGeometry relative="1" as="geometry" />
        </mxCell>
        <mxCell id="m5jzVh6tU3gFUoCoh68g-34" value="แสดงน้ำและขนม" style="shape=parallelogram;perimeter=parallelogramPerimeter;whiteSpace=wrap;html=1;fixedSize=1;" vertex="1" parent="WIyWlLk6GJQsqaUBKTNV-1">
          <mxGeometry x="-2138.61" y="351" width="120" height="60" as="geometry" />
        </mxCell>
        <mxCell id="m5jzVh6tU3gFUoCoh68g-35" value="เท็จ" style="edgeStyle=orthogonalEdgeStyle;rounded=0;orthogonalLoop=1;jettySize=auto;html=1;exitX=0.5;exitY=1;exitDx=0;exitDy=0;entryX=0.5;entryY=0;entryDx=0;entryDy=0;" edge="1" parent="WIyWlLk6GJQsqaUBKTNV-1" source="m5jzVh6tU3gFUoCoh68g-37" target="m5jzVh6tU3gFUoCoh68g-40">
          <mxGeometry relative="1" as="geometry" />
        </mxCell>
        <mxCell id="m5jzVh6tU3gFUoCoh68g-36" value="จริง" style="edgeStyle=orthogonalEdgeStyle;rounded=0;orthogonalLoop=1;jettySize=auto;html=1;exitX=0;exitY=0.5;exitDx=0;exitDy=0;entryX=0.5;entryY=1;entryDx=0;entryDy=0;" edge="1" parent="WIyWlLk6GJQsqaUBKTNV-1" source="m5jzVh6tU3gFUoCoh68g-37" target="m5jzVh6tU3gFUoCoh68g-157">
          <mxGeometry relative="1" as="geometry">
            <mxPoint x="-2437" y="2944" as="targetPoint" />
          </mxGeometry>
        </mxCell>
        <mxCell id="m5jzVh6tU3gFUoCoh68g-37" value="เลือกเพิ่ม" style="rhombus;whiteSpace=wrap;html=1;" vertex="1" parent="WIyWlLk6GJQsqaUBKTNV-1">
          <mxGeometry x="-2116" y="2904" width="80" height="80" as="geometry" />
        </mxCell>
        <mxCell id="m5jzVh6tU3gFUoCoh68g-38" value="จบ" style="ellipse;whiteSpace=wrap;html=1;" vertex="1" parent="WIyWlLk6GJQsqaUBKTNV-1">
          <mxGeometry x="-2136" y="3160" width="120" height="50" as="geometry" />
        </mxCell>
        <mxCell id="m5jzVh6tU3gFUoCoh68g-39" style="edgeStyle=orthogonalEdgeStyle;rounded=0;orthogonalLoop=1;jettySize=auto;html=1;exitX=0.5;exitY=1;exitDx=0;exitDy=0;entryX=0.5;entryY=0;entryDx=0;entryDy=0;" edge="1" parent="WIyWlLk6GJQsqaUBKTNV-1" source="m5jzVh6tU3gFUoCoh68g-40" target="m5jzVh6tU3gFUoCoh68g-38">
          <mxGeometry relative="1" as="geometry" />
        </mxCell>
        <mxCell id="m5jzVh6tU3gFUoCoh68g-40" value="ราคาสินค้ารวม=ราคาสินค้าA1+ราคาสินค้าA2+ราคาสินค้าA3+...+ราคาสินค้าA7" style="rounded=0;whiteSpace=wrap;html=1;" vertex="1" parent="WIyWlLk6GJQsqaUBKTNV-1">
          <mxGeometry x="-2276" y="3050" width="400" height="60" as="geometry" />
        </mxCell>
        <mxCell id="m5jzVh6tU3gFUoCoh68g-41" value="จริง" style="edgeStyle=orthogonalEdgeStyle;rounded=0;orthogonalLoop=1;jettySize=auto;html=1;exitX=1;exitY=0.5;exitDx=0;exitDy=0;entryX=0;entryY=0.5;entryDx=0;entryDy=0;" edge="1" parent="WIyWlLk6GJQsqaUBKTNV-1" source="m5jzVh6tU3gFUoCoh68g-43" target="m5jzVh6tU3gFUoCoh68g-147">
          <mxGeometry relative="1" as="geometry" />
        </mxCell>
        <mxCell id="m5jzVh6tU3gFUoCoh68g-42" style="edgeStyle=orthogonalEdgeStyle;rounded=0;orthogonalLoop=1;jettySize=auto;html=1;exitX=0.5;exitY=1;exitDx=0;exitDy=0;entryX=0.5;entryY=0;entryDx=0;entryDy=0;" edge="1" parent="WIyWlLk6GJQsqaUBKTNV-1" source="m5jzVh6tU3gFUoCoh68g-43" target="m5jzVh6tU3gFUoCoh68g-46">
          <mxGeometry relative="1" as="geometry" />
        </mxCell>
        <mxCell id="m5jzVh6tU3gFUoCoh68g-43" value="เลือก หมายเลข6" style="rhombus;whiteSpace=wrap;html=1;" vertex="1" parent="WIyWlLk6GJQsqaUBKTNV-1">
          <mxGeometry x="-2117" y="2306" width="80" height="80" as="geometry" />
        </mxCell>
        <mxCell id="m5jzVh6tU3gFUoCoh68g-44" style="edgeStyle=orthogonalEdgeStyle;rounded=0;orthogonalLoop=1;jettySize=auto;html=1;exitX=0.5;exitY=1;exitDx=0;exitDy=0;entryX=0.5;entryY=0;entryDx=0;entryDy=0;" edge="1" parent="WIyWlLk6GJQsqaUBKTNV-1" source="m5jzVh6tU3gFUoCoh68g-46" target="m5jzVh6tU3gFUoCoh68g-54">
          <mxGeometry relative="1" as="geometry" />
        </mxCell>
        <mxCell id="m5jzVh6tU3gFUoCoh68g-45" value="จริง" style="edgeStyle=orthogonalEdgeStyle;rounded=0;orthogonalLoop=1;jettySize=auto;html=1;exitX=0;exitY=0.5;exitDx=0;exitDy=0;entryX=1;entryY=0.5;entryDx=0;entryDy=0;" edge="1" parent="WIyWlLk6GJQsqaUBKTNV-1" source="m5jzVh6tU3gFUoCoh68g-46" target="m5jzVh6tU3gFUoCoh68g-137">
          <mxGeometry relative="1" as="geometry">
            <Array as="points">
              <mxPoint x="-2197" y="2604" />
              <mxPoint x="-2197" y="2604" />
            </Array>
          </mxGeometry>
        </mxCell>
        <mxCell id="m5jzVh6tU3gFUoCoh68g-46" value="เลือก หมายเลข7" style="rhombus;whiteSpace=wrap;html=1;" vertex="1" parent="WIyWlLk6GJQsqaUBKTNV-1">
          <mxGeometry x="-2116" y="2564" width="80" height="80" as="geometry" />
        </mxCell>
        <mxCell id="m5jzVh6tU3gFUoCoh68g-47" style="edgeStyle=orthogonalEdgeStyle;rounded=0;orthogonalLoop=1;jettySize=auto;html=1;exitX=0.5;exitY=1;exitDx=0;exitDy=0;entryX=0.5;entryY=0;entryDx=0;entryDy=0;" edge="1" parent="WIyWlLk6GJQsqaUBKTNV-1" source="m5jzVh6tU3gFUoCoh68g-48" target="m5jzVh6tU3gFUoCoh68g-56">
          <mxGeometry relative="1" as="geometry" />
        </mxCell>
        <mxCell id="m5jzVh6tU3gFUoCoh68g-48" value="จำนวนสินค้าA6=นำนวนสินค้าA6+1" style="whiteSpace=wrap;html=1;" vertex="1" parent="WIyWlLk6GJQsqaUBKTNV-1">
          <mxGeometry x="-1868.5000000000002" y="2424" width="120" height="60" as="geometry" />
        </mxCell>
        <mxCell id="m5jzVh6tU3gFUoCoh68g-49" style="edgeStyle=orthogonalEdgeStyle;rounded=0;orthogonalLoop=1;jettySize=auto;html=1;exitX=0.5;exitY=1;exitDx=0;exitDy=0;entryX=0.5;entryY=0;entryDx=0;entryDy=0;" edge="1" parent="WIyWlLk6GJQsqaUBKTNV-1" source="m5jzVh6tU3gFUoCoh68g-50" target="m5jzVh6tU3gFUoCoh68g-58">
          <mxGeometry relative="1" as="geometry" />
        </mxCell>
        <mxCell id="m5jzVh6tU3gFUoCoh68g-50" value="จำนวนสินค้าA7=จำนวนสินค้าA7+1" style="whiteSpace=wrap;html=1;" vertex="1" parent="WIyWlLk6GJQsqaUBKTNV-1">
          <mxGeometry x="-2349.5" y="2674" width="120" height="60" as="geometry" />
        </mxCell>
        <mxCell id="m5jzVh6tU3gFUoCoh68g-51" value="" style="ellipse;whiteSpace=wrap;html=1;aspect=fixed;" vertex="1" parent="WIyWlLk6GJQsqaUBKTNV-1">
          <mxGeometry x="-2407" y="2879" width="20" height="20" as="geometry" />
        </mxCell>
        <mxCell id="m5jzVh6tU3gFUoCoh68g-52" value="" style="ellipse;whiteSpace=wrap;html=1;aspect=fixed;" vertex="1" parent="WIyWlLk6GJQsqaUBKTNV-1">
          <mxGeometry x="-1718.5" y="2623.5" width="20" height="20" as="geometry" />
        </mxCell>
        <mxCell id="m5jzVh6tU3gFUoCoh68g-53" style="edgeStyle=orthogonalEdgeStyle;rounded=0;orthogonalLoop=1;jettySize=auto;html=1;exitX=0.5;exitY=1;exitDx=0;exitDy=0;entryX=0.5;entryY=0;entryDx=0;entryDy=0;" edge="1" parent="WIyWlLk6GJQsqaUBKTNV-1" source="m5jzVh6tU3gFUoCoh68g-54" target="m5jzVh6tU3gFUoCoh68g-110">
          <mxGeometry relative="1" as="geometry" />
        </mxCell>
        <mxCell id="m5jzVh6tU3gFUoCoh68g-54" value="" style="ellipse;whiteSpace=wrap;html=1;aspect=fixed;" vertex="1" parent="WIyWlLk6GJQsqaUBKTNV-1">
          <mxGeometry x="-2087" y="2714" width="22" height="22" as="geometry" />
        </mxCell>
        <mxCell id="m5jzVh6tU3gFUoCoh68g-55" style="edgeStyle=orthogonalEdgeStyle;rounded=0;orthogonalLoop=1;jettySize=auto;html=1;exitX=1;exitY=0.5;exitDx=0;exitDy=0;entryX=0;entryY=0.5;entryDx=0;entryDy=0;" edge="1" parent="WIyWlLk6GJQsqaUBKTNV-1" source="m5jzVh6tU3gFUoCoh68g-56" target="m5jzVh6tU3gFUoCoh68g-52">
          <mxGeometry relative="1" as="geometry" />
        </mxCell>
        <mxCell id="m5jzVh6tU3gFUoCoh68g-56" value="ราคาสินค้าA6=จำนวนสินค้าA6*20" style="rounded=0;whiteSpace=wrap;html=1;" vertex="1" parent="WIyWlLk6GJQsqaUBKTNV-1">
          <mxGeometry x="-1868.5000000000002" y="2603.5" width="120" height="60" as="geometry" />
        </mxCell>
        <mxCell id="m5jzVh6tU3gFUoCoh68g-57" style="edgeStyle=orthogonalEdgeStyle;rounded=0;orthogonalLoop=1;jettySize=auto;html=1;exitX=0;exitY=0.5;exitDx=0;exitDy=0;" edge="1" parent="WIyWlLk6GJQsqaUBKTNV-1" source="m5jzVh6tU3gFUoCoh68g-58" target="m5jzVh6tU3gFUoCoh68g-51">
          <mxGeometry relative="1" as="geometry" />
        </mxCell>
        <mxCell id="m5jzVh6tU3gFUoCoh68g-58" value="ราคาสินค้าA7=จำนวนสินค้าA7*15" style="rounded=0;whiteSpace=wrap;html=1;" vertex="1" parent="WIyWlLk6GJQsqaUBKTNV-1">
          <mxGeometry x="-2349.5" y="2859" width="120" height="60" as="geometry" />
        </mxCell>
        <mxCell id="m5jzVh6tU3gFUoCoh68g-59" value="เลือกสินค้า" style="shape=parallelogram;perimeter=parallelogramPerimeter;whiteSpace=wrap;html=1;fixedSize=1;" vertex="1" parent="WIyWlLk6GJQsqaUBKTNV-1">
          <mxGeometry x="-2137" y="698" width="120" height="60" as="geometry" />
        </mxCell>
        <mxCell id="m5jzVh6tU3gFUoCoh68g-60" value="จริง" style="edgeStyle=orthogonalEdgeStyle;rounded=0;orthogonalLoop=1;jettySize=auto;html=1;entryX=1;entryY=0.5;entryDx=0;entryDy=0;" edge="1" parent="WIyWlLk6GJQsqaUBKTNV-1" source="m5jzVh6tU3gFUoCoh68g-62" target="m5jzVh6tU3gFUoCoh68g-115">
          <mxGeometry relative="1" as="geometry">
            <mxPoint x="-2217" y="954" as="targetPoint" />
          </mxGeometry>
        </mxCell>
        <mxCell id="m5jzVh6tU3gFUoCoh68g-61" value="เท็จ" style="edgeStyle=orthogonalEdgeStyle;rounded=0;orthogonalLoop=1;jettySize=auto;html=1;entryX=0.5;entryY=0;entryDx=0;entryDy=0;exitX=0.5;exitY=1;exitDx=0;exitDy=0;" edge="1" parent="WIyWlLk6GJQsqaUBKTNV-1" source="m5jzVh6tU3gFUoCoh68g-62" target="m5jzVh6tU3gFUoCoh68g-65">
          <mxGeometry relative="1" as="geometry">
            <mxPoint x="-2087" y="1064" as="sourcePoint" />
          </mxGeometry>
        </mxCell>
        <mxCell id="m5jzVh6tU3gFUoCoh68g-62" value="เลือก หมายเลข1" style="rhombus;whiteSpace=wrap;html=1;" vertex="1" parent="WIyWlLk6GJQsqaUBKTNV-1">
          <mxGeometry x="-2117" y="914" width="80" height="80" as="geometry" />
        </mxCell>
        <mxCell id="m5jzVh6tU3gFUoCoh68g-63" value="เท็จ" style="edgeStyle=orthogonalEdgeStyle;rounded=0;orthogonalLoop=1;jettySize=auto;html=1;exitX=0.5;exitY=1;exitDx=0;exitDy=0;entryX=0.5;entryY=0;entryDx=0;entryDy=0;" edge="1" parent="WIyWlLk6GJQsqaUBKTNV-1" source="m5jzVh6tU3gFUoCoh68g-65" target="m5jzVh6tU3gFUoCoh68g-68">
          <mxGeometry relative="1" as="geometry" />
        </mxCell>
        <mxCell id="m5jzVh6tU3gFUoCoh68g-64" style="edgeStyle=orthogonalEdgeStyle;rounded=0;orthogonalLoop=1;jettySize=auto;html=1;exitX=1;exitY=0.5;exitDx=0;exitDy=0;entryX=0;entryY=0.5;entryDx=0;entryDy=0;" edge="1" parent="WIyWlLk6GJQsqaUBKTNV-1" source="m5jzVh6tU3gFUoCoh68g-65" target="m5jzVh6tU3gFUoCoh68g-122">
          <mxGeometry relative="1" as="geometry" />
        </mxCell>
        <mxCell id="m5jzVh6tU3gFUoCoh68g-65" value="เลือก หมายเลข2" style="rhombus;whiteSpace=wrap;html=1;" vertex="1" parent="WIyWlLk6GJQsqaUBKTNV-1">
          <mxGeometry x="-2117" y="1170" width="80" height="80" as="geometry" />
        </mxCell>
        <mxCell id="m5jzVh6tU3gFUoCoh68g-66" value="จริง" style="edgeStyle=orthogonalEdgeStyle;rounded=0;orthogonalLoop=1;jettySize=auto;html=1;exitX=0;exitY=0.5;exitDx=0;exitDy=0;entryX=1;entryY=0.5;entryDx=0;entryDy=0;" edge="1" parent="WIyWlLk6GJQsqaUBKTNV-1" source="m5jzVh6tU3gFUoCoh68g-68" target="m5jzVh6tU3gFUoCoh68g-127">
          <mxGeometry relative="1" as="geometry">
            <mxPoint x="-2227" y="1576" as="targetPoint" />
          </mxGeometry>
        </mxCell>
        <mxCell id="m5jzVh6tU3gFUoCoh68g-67" value="เท็จ" style="edgeStyle=orthogonalEdgeStyle;rounded=0;orthogonalLoop=1;jettySize=auto;html=1;exitX=0.5;exitY=1;exitDx=0;exitDy=0;entryX=0.5;entryY=0;entryDx=0;entryDy=0;" edge="1" parent="WIyWlLk6GJQsqaUBKTNV-1" source="m5jzVh6tU3gFUoCoh68g-68" target="m5jzVh6tU3gFUoCoh68g-83">
          <mxGeometry relative="1" as="geometry" />
        </mxCell>
        <mxCell id="m5jzVh6tU3gFUoCoh68g-68" value="เลือก หมายเลข3" style="rhombus;whiteSpace=wrap;html=1;" vertex="1" parent="WIyWlLk6GJQsqaUBKTNV-1">
          <mxGeometry x="-2117" y="1444" width="80" height="80" as="geometry" />
        </mxCell>
        <mxCell id="m5jzVh6tU3gFUoCoh68g-69" style="edgeStyle=orthogonalEdgeStyle;rounded=0;orthogonalLoop=1;jettySize=auto;html=1;exitX=1;exitY=1;exitDx=0;exitDy=0;" edge="1" parent="WIyWlLk6GJQsqaUBKTNV-1" source="m5jzVh6tU3gFUoCoh68g-71">
          <mxGeometry relative="1" as="geometry">
            <mxPoint x="-2236.8888888888887" y="1080.8888888888887" as="targetPoint" />
          </mxGeometry>
        </mxCell>
        <mxCell id="m5jzVh6tU3gFUoCoh68g-70" style="edgeStyle=orthogonalEdgeStyle;rounded=0;orthogonalLoop=1;jettySize=auto;html=1;exitX=0.5;exitY=1;exitDx=0;exitDy=0;entryX=0.5;entryY=0;entryDx=0;entryDy=0;" edge="1" parent="WIyWlLk6GJQsqaUBKTNV-1" source="m5jzVh6tU3gFUoCoh68g-71" target="m5jzVh6tU3gFUoCoh68g-98">
          <mxGeometry relative="1" as="geometry" />
        </mxCell>
        <mxCell id="m5jzVh6tU3gFUoCoh68g-71" value="จำนวนสินค้าA1=จำนวนสินค้าA1+1" style="whiteSpace=wrap;html=1;" vertex="1" parent="WIyWlLk6GJQsqaUBKTNV-1">
          <mxGeometry x="-2357" y="1024" width="120" height="60" as="geometry" />
        </mxCell>
        <mxCell id="m5jzVh6tU3gFUoCoh68g-72" style="edgeStyle=orthogonalEdgeStyle;rounded=0;orthogonalLoop=1;jettySize=auto;html=1;exitX=0.5;exitY=1;exitDx=0;exitDy=0;entryX=0.5;entryY=0;entryDx=0;entryDy=0;" edge="1" parent="WIyWlLk6GJQsqaUBKTNV-1" source="m5jzVh6tU3gFUoCoh68g-73" target="m5jzVh6tU3gFUoCoh68g-62">
          <mxGeometry relative="1" as="geometry" />
        </mxCell>
        <mxCell id="m5jzVh6tU3gFUoCoh68g-73" value="รับข้อมูลตัวเลข&lt;div&gt;1,2,3,4,5,6,7,8&lt;/div&gt;&lt;div&gt;,9,0,&lt;/div&gt;&lt;div&gt;ยืนยัน,ยกเลิก&lt;/div&gt;" style="shape=manualInput;whiteSpace=wrap;html=1;" vertex="1" parent="WIyWlLk6GJQsqaUBKTNV-1">
          <mxGeometry x="-2162" y="784" width="170" height="103" as="geometry" />
        </mxCell>
        <mxCell id="m5jzVh6tU3gFUoCoh68g-74" style="edgeStyle=orthogonalEdgeStyle;rounded=0;orthogonalLoop=1;jettySize=auto;html=1;exitX=0.5;exitY=1;exitDx=0;exitDy=0;entryX=0.5;entryY=0;entryDx=0;entryDy=0;" edge="1" parent="WIyWlLk6GJQsqaUBKTNV-1" source="m5jzVh6tU3gFUoCoh68g-75" target="m5jzVh6tU3gFUoCoh68g-107">
          <mxGeometry relative="1" as="geometry" />
        </mxCell>
        <mxCell id="m5jzVh6tU3gFUoCoh68g-75" value="&lt;div&gt;ประกาศตัวแปล&lt;/div&gt;จำนวนสินค้าA1 = 0&lt;div&gt;จำนวนสินค้าA2 = 0&lt;/div&gt;&lt;div&gt;จำนวนสินค้าA3 = 0&lt;/div&gt;&lt;div&gt;จำนวนสินค้าA4 = 0&lt;/div&gt;&lt;div&gt;จำนวนสินค้าA5 = 0&lt;/div&gt;&lt;div&gt;จำนวนสินค้าA6 = 0&lt;/div&gt;&lt;div&gt;จำนวนสินค้าA7 = 0&lt;/div&gt;" style="rounded=0;whiteSpace=wrap;html=1;" vertex="1" parent="WIyWlLk6GJQsqaUBKTNV-1">
          <mxGeometry x="-2173.61" y="144" width="190" height="130" as="geometry" />
        </mxCell>
        <mxCell id="m5jzVh6tU3gFUoCoh68g-76" style="edgeStyle=orthogonalEdgeStyle;rounded=0;orthogonalLoop=1;jettySize=auto;html=1;exitX=0.5;exitY=1;exitDx=0;exitDy=0;entryX=0.5;entryY=0;entryDx=0;entryDy=0;" edge="1" parent="WIyWlLk6GJQsqaUBKTNV-1" source="m5jzVh6tU3gFUoCoh68g-77" target="m5jzVh6tU3gFUoCoh68g-100">
          <mxGeometry relative="1" as="geometry" />
        </mxCell>
        <mxCell id="m5jzVh6tU3gFUoCoh68g-77" value="จำนวนสินค้าA2=จำนวนสินค้าA2+1" style="whiteSpace=wrap;html=1;" vertex="1" parent="WIyWlLk6GJQsqaUBKTNV-1">
          <mxGeometry x="-1863.5000000000002" y="1286.5" width="120" height="60" as="geometry" />
        </mxCell>
        <mxCell id="m5jzVh6tU3gFUoCoh68g-78" style="edgeStyle=orthogonalEdgeStyle;rounded=0;orthogonalLoop=1;jettySize=auto;html=1;exitX=0.5;exitY=1;exitDx=0;exitDy=0;entryX=0.5;entryY=0;entryDx=0;entryDy=0;" edge="1" parent="WIyWlLk6GJQsqaUBKTNV-1" source="m5jzVh6tU3gFUoCoh68g-79" target="m5jzVh6tU3gFUoCoh68g-102">
          <mxGeometry relative="1" as="geometry" />
        </mxCell>
        <mxCell id="m5jzVh6tU3gFUoCoh68g-79" value="จำนวนสินค้าA3=จำนวนสินค้าA3+1" style="whiteSpace=wrap;html=1;" vertex="1" parent="WIyWlLk6GJQsqaUBKTNV-1">
          <mxGeometry x="-2357" y="1554" width="120" height="60" as="geometry" />
        </mxCell>
        <mxCell id="m5jzVh6tU3gFUoCoh68g-80" style="edgeStyle=orthogonalEdgeStyle;rounded=0;orthogonalLoop=1;jettySize=auto;html=1;exitX=0.5;exitY=1;exitDx=0;exitDy=0;entryX=0.499;entryY=0.154;entryDx=0;entryDy=0;entryPerimeter=0;" edge="1" parent="WIyWlLk6GJQsqaUBKTNV-1" source="m5jzVh6tU3gFUoCoh68g-59" target="m5jzVh6tU3gFUoCoh68g-73">
          <mxGeometry relative="1" as="geometry" />
        </mxCell>
        <mxCell id="m5jzVh6tU3gFUoCoh68g-81" value="จริง" style="edgeStyle=orthogonalEdgeStyle;rounded=0;orthogonalLoop=1;jettySize=auto;html=1;exitX=1;exitY=0.5;exitDx=0;exitDy=0;entryX=0;entryY=0.5;entryDx=0;entryDy=0;" edge="1" parent="WIyWlLk6GJQsqaUBKTNV-1" source="m5jzVh6tU3gFUoCoh68g-83" target="m5jzVh6tU3gFUoCoh68g-142">
          <mxGeometry relative="1" as="geometry">
            <mxPoint x="-1887" y="1764" as="targetPoint" />
          </mxGeometry>
        </mxCell>
        <mxCell id="m5jzVh6tU3gFUoCoh68g-82" style="edgeStyle=orthogonalEdgeStyle;rounded=0;orthogonalLoop=1;jettySize=auto;html=1;exitX=0.5;exitY=1;exitDx=0;exitDy=0;entryX=0.5;entryY=0;entryDx=0;entryDy=0;" edge="1" parent="WIyWlLk6GJQsqaUBKTNV-1" source="m5jzVh6tU3gFUoCoh68g-83" target="m5jzVh6tU3gFUoCoh68g-86">
          <mxGeometry relative="1" as="geometry" />
        </mxCell>
        <mxCell id="m5jzVh6tU3gFUoCoh68g-83" value="เลือก หมายเลข4" style="rhombus;whiteSpace=wrap;html=1;" vertex="1" parent="WIyWlLk6GJQsqaUBKTNV-1">
          <mxGeometry x="-2116" y="1724" width="80" height="80" as="geometry" />
        </mxCell>
        <mxCell id="m5jzVh6tU3gFUoCoh68g-84" value="จริง" style="edgeStyle=orthogonalEdgeStyle;rounded=0;orthogonalLoop=1;jettySize=auto;html=1;exitX=0;exitY=0.5;exitDx=0;exitDy=0;entryX=1;entryY=0.5;entryDx=0;entryDy=0;" edge="1" parent="WIyWlLk6GJQsqaUBKTNV-1" source="m5jzVh6tU3gFUoCoh68g-86" target="m5jzVh6tU3gFUoCoh68g-132">
          <mxGeometry relative="1" as="geometry" />
        </mxCell>
        <mxCell id="m5jzVh6tU3gFUoCoh68g-85" style="edgeStyle=orthogonalEdgeStyle;rounded=0;orthogonalLoop=1;jettySize=auto;html=1;exitX=0.5;exitY=1;exitDx=0;exitDy=0;entryX=0.5;entryY=0;entryDx=0;entryDy=0;" edge="1" parent="WIyWlLk6GJQsqaUBKTNV-1" source="m5jzVh6tU3gFUoCoh68g-86" target="m5jzVh6tU3gFUoCoh68g-43">
          <mxGeometry relative="1" as="geometry" />
        </mxCell>
        <mxCell id="m5jzVh6tU3gFUoCoh68g-86" value="เลือก หมายเลข5" style="rhombus;whiteSpace=wrap;html=1;" vertex="1" parent="WIyWlLk6GJQsqaUBKTNV-1">
          <mxGeometry x="-2116" y="1974" width="80" height="80" as="geometry" />
        </mxCell>
        <mxCell id="m5jzVh6tU3gFUoCoh68g-87" style="edgeStyle=orthogonalEdgeStyle;rounded=0;orthogonalLoop=1;jettySize=auto;html=1;exitX=0.5;exitY=1;exitDx=0;exitDy=0;entryX=0.5;entryY=0;entryDx=0;entryDy=0;" edge="1" parent="WIyWlLk6GJQsqaUBKTNV-1" source="m5jzVh6tU3gFUoCoh68g-88" target="m5jzVh6tU3gFUoCoh68g-104">
          <mxGeometry relative="1" as="geometry" />
        </mxCell>
        <mxCell id="m5jzVh6tU3gFUoCoh68g-88" value="จำนวนสินค้าA4=จำนวนสินค้าA4+1" style="whiteSpace=wrap;html=1;" vertex="1" parent="WIyWlLk6GJQsqaUBKTNV-1">
          <mxGeometry x="-1868.5000000000002" y="1834" width="120" height="60" as="geometry" />
        </mxCell>
        <mxCell id="m5jzVh6tU3gFUoCoh68g-89" style="edgeStyle=orthogonalEdgeStyle;rounded=0;orthogonalLoop=1;jettySize=auto;html=1;exitX=0.5;exitY=1;exitDx=0;exitDy=0;entryX=0.5;entryY=0;entryDx=0;entryDy=0;" edge="1" parent="WIyWlLk6GJQsqaUBKTNV-1" source="m5jzVh6tU3gFUoCoh68g-90" target="m5jzVh6tU3gFUoCoh68g-106">
          <mxGeometry relative="1" as="geometry" />
        </mxCell>
        <mxCell id="m5jzVh6tU3gFUoCoh68g-90" value="จำนวนสินค้าA5=จำนวนสินค้าA5+1" style="whiteSpace=wrap;html=1;" vertex="1" parent="WIyWlLk6GJQsqaUBKTNV-1">
          <mxGeometry x="-2347" y="2094" width="120" height="60" as="geometry" />
        </mxCell>
        <mxCell id="m5jzVh6tU3gFUoCoh68g-91" style="edgeStyle=orthogonalEdgeStyle;rounded=0;orthogonalLoop=1;jettySize=auto;html=1;exitX=0.5;exitY=1;exitDx=0;exitDy=0;entryX=0.5;entryY=0;entryDx=0;entryDy=0;" edge="1" parent="WIyWlLk6GJQsqaUBKTNV-1" source="m5jzVh6tU3gFUoCoh68g-92" target="m5jzVh6tU3gFUoCoh68g-51">
          <mxGeometry relative="1" as="geometry" />
        </mxCell>
        <mxCell id="m5jzVh6tU3gFUoCoh68g-92" value="" style="ellipse;whiteSpace=wrap;html=1;aspect=fixed;" vertex="1" parent="WIyWlLk6GJQsqaUBKTNV-1">
          <mxGeometry x="-2407" y="2294" width="20" height="20" as="geometry" />
        </mxCell>
        <mxCell id="m5jzVh6tU3gFUoCoh68g-93" style="edgeStyle=orthogonalEdgeStyle;rounded=0;orthogonalLoop=1;jettySize=auto;html=1;exitX=0.5;exitY=1;exitDx=0;exitDy=0;entryX=0.5;entryY=0;entryDx=0;entryDy=0;" edge="1" parent="WIyWlLk6GJQsqaUBKTNV-1" source="m5jzVh6tU3gFUoCoh68g-94" target="m5jzVh6tU3gFUoCoh68g-92">
          <mxGeometry relative="1" as="geometry" />
        </mxCell>
        <mxCell id="m5jzVh6tU3gFUoCoh68g-94" value="" style="ellipse;whiteSpace=wrap;html=1;aspect=fixed;" vertex="1" parent="WIyWlLk6GJQsqaUBKTNV-1">
          <mxGeometry x="-2407" y="1754" width="20" height="20" as="geometry" />
        </mxCell>
        <mxCell id="m5jzVh6tU3gFUoCoh68g-95" style="edgeStyle=orthogonalEdgeStyle;rounded=0;orthogonalLoop=1;jettySize=auto;html=1;exitX=0.5;exitY=1;exitDx=0;exitDy=0;entryX=0.5;entryY=0;entryDx=0;entryDy=0;" edge="1" parent="WIyWlLk6GJQsqaUBKTNV-1" source="m5jzVh6tU3gFUoCoh68g-96" target="m5jzVh6tU3gFUoCoh68g-52">
          <mxGeometry relative="1" as="geometry" />
        </mxCell>
        <mxCell id="m5jzVh6tU3gFUoCoh68g-96" value="" style="ellipse;whiteSpace=wrap;html=1;aspect=fixed;" vertex="1" parent="WIyWlLk6GJQsqaUBKTNV-1">
          <mxGeometry x="-1718.5" y="2034" width="20" height="20" as="geometry" />
        </mxCell>
        <mxCell id="m5jzVh6tU3gFUoCoh68g-97" style="edgeStyle=orthogonalEdgeStyle;rounded=0;orthogonalLoop=1;jettySize=auto;html=1;exitX=0;exitY=0.5;exitDx=0;exitDy=0;entryX=0.5;entryY=0;entryDx=0;entryDy=0;" edge="1" parent="WIyWlLk6GJQsqaUBKTNV-1" source="m5jzVh6tU3gFUoCoh68g-98" target="m5jzVh6tU3gFUoCoh68g-94">
          <mxGeometry relative="1" as="geometry" />
        </mxCell>
        <mxCell id="m5jzVh6tU3gFUoCoh68g-98" value="ราคาสินค้าA1=จำนวนสินค้าA1*10" style="rounded=0;whiteSpace=wrap;html=1;" vertex="1" parent="WIyWlLk6GJQsqaUBKTNV-1">
          <mxGeometry x="-2357" y="1202" width="120" height="62" as="geometry" />
        </mxCell>
        <mxCell id="m5jzVh6tU3gFUoCoh68g-99" style="edgeStyle=orthogonalEdgeStyle;rounded=0;orthogonalLoop=1;jettySize=auto;html=1;exitX=1;exitY=0.5;exitDx=0;exitDy=0;entryX=0.5;entryY=0;entryDx=0;entryDy=0;" edge="1" parent="WIyWlLk6GJQsqaUBKTNV-1" source="m5jzVh6tU3gFUoCoh68g-100" target="m5jzVh6tU3gFUoCoh68g-96">
          <mxGeometry relative="1" as="geometry" />
        </mxCell>
        <mxCell id="m5jzVh6tU3gFUoCoh68g-100" value="ราคาสินค้าA2=จำนวนสินค้าA2*12" style="rounded=0;whiteSpace=wrap;html=1;" vertex="1" parent="WIyWlLk6GJQsqaUBKTNV-1">
          <mxGeometry x="-1863.5000000000002" y="1464.5" width="120" height="60" as="geometry" />
        </mxCell>
        <mxCell id="m5jzVh6tU3gFUoCoh68g-101" style="edgeStyle=orthogonalEdgeStyle;rounded=0;orthogonalLoop=1;jettySize=auto;html=1;exitX=0;exitY=0.5;exitDx=0;exitDy=0;entryX=1;entryY=0.5;entryDx=0;entryDy=0;" edge="1" parent="WIyWlLk6GJQsqaUBKTNV-1" source="m5jzVh6tU3gFUoCoh68g-102" target="m5jzVh6tU3gFUoCoh68g-94">
          <mxGeometry relative="1" as="geometry" />
        </mxCell>
        <mxCell id="m5jzVh6tU3gFUoCoh68g-102" value="ราคาสินค้าA3=จำนวนสินค้าA3*30" style="rounded=0;whiteSpace=wrap;html=1;" vertex="1" parent="WIyWlLk6GJQsqaUBKTNV-1">
          <mxGeometry x="-2357" y="1734" width="120" height="60" as="geometry" />
        </mxCell>
        <mxCell id="m5jzVh6tU3gFUoCoh68g-103" style="edgeStyle=orthogonalEdgeStyle;rounded=0;orthogonalLoop=1;jettySize=auto;html=1;exitX=1;exitY=0.5;exitDx=0;exitDy=0;entryX=0;entryY=0.5;entryDx=0;entryDy=0;" edge="1" parent="WIyWlLk6GJQsqaUBKTNV-1" source="m5jzVh6tU3gFUoCoh68g-104" target="m5jzVh6tU3gFUoCoh68g-96">
          <mxGeometry relative="1" as="geometry" />
        </mxCell>
        <mxCell id="m5jzVh6tU3gFUoCoh68g-104" value="ราคาสินค้าA4=จำนวนสินค้าA4*35" style="rounded=0;whiteSpace=wrap;html=1;" vertex="1" parent="WIyWlLk6GJQsqaUBKTNV-1">
          <mxGeometry x="-1868.5000000000002" y="2014" width="120" height="60" as="geometry" />
        </mxCell>
        <mxCell id="m5jzVh6tU3gFUoCoh68g-105" style="edgeStyle=orthogonalEdgeStyle;rounded=0;orthogonalLoop=1;jettySize=auto;html=1;exitX=0;exitY=0.5;exitDx=0;exitDy=0;entryX=1;entryY=0.5;entryDx=0;entryDy=0;" edge="1" parent="WIyWlLk6GJQsqaUBKTNV-1" source="m5jzVh6tU3gFUoCoh68g-106" target="m5jzVh6tU3gFUoCoh68g-92">
          <mxGeometry relative="1" as="geometry" />
        </mxCell>
        <mxCell id="m5jzVh6tU3gFUoCoh68g-106" value="ราคาสินค้าA5=จำนวนสินค้าA5*13" style="rounded=0;whiteSpace=wrap;html=1;" vertex="1" parent="WIyWlLk6GJQsqaUBKTNV-1">
          <mxGeometry x="-2347" y="2274" width="120" height="60" as="geometry" />
        </mxCell>
        <mxCell id="m5jzVh6tU3gFUoCoh68g-107" value="" style="ellipse;whiteSpace=wrap;html=1;aspect=fixed;" vertex="1" parent="WIyWlLk6GJQsqaUBKTNV-1">
          <mxGeometry x="-2086" y="304" width="20" height="20" as="geometry" />
        </mxCell>
        <mxCell id="m5jzVh6tU3gFUoCoh68g-108" style="edgeStyle=orthogonalEdgeStyle;rounded=0;orthogonalLoop=1;jettySize=auto;html=1;exitX=0.5;exitY=1;exitDx=0;exitDy=0;entryX=0.54;entryY=0;entryDx=0;entryDy=0;entryPerimeter=0;" edge="1" parent="WIyWlLk6GJQsqaUBKTNV-1" source="m5jzVh6tU3gFUoCoh68g-107" target="m5jzVh6tU3gFUoCoh68g-34">
          <mxGeometry relative="1" as="geometry" />
        </mxCell>
        <mxCell id="m5jzVh6tU3gFUoCoh68g-109" style="edgeStyle=orthogonalEdgeStyle;rounded=0;orthogonalLoop=1;jettySize=auto;html=1;exitX=0.5;exitY=1;exitDx=0;exitDy=0;entryX=0.5;entryY=0;entryDx=0;entryDy=0;" edge="1" parent="WIyWlLk6GJQsqaUBKTNV-1" source="m5jzVh6tU3gFUoCoh68g-110" target="m5jzVh6tU3gFUoCoh68g-37">
          <mxGeometry relative="1" as="geometry" />
        </mxCell>
        <mxCell id="m5jzVh6tU3gFUoCoh68g-110" value="แสดงเลือกเพิ่มหรือไม่" style="shape=parallelogram;perimeter=parallelogramPerimeter;whiteSpace=wrap;html=1;fixedSize=1;" vertex="1" parent="WIyWlLk6GJQsqaUBKTNV-1">
          <mxGeometry x="-2141.81" y="2754" width="131.61" height="70" as="geometry" />
        </mxCell>
        <mxCell id="m5jzVh6tU3gFUoCoh68g-111" style="edgeStyle=orthogonalEdgeStyle;rounded=0;orthogonalLoop=1;jettySize=auto;html=1;exitX=0.5;exitY=1;exitDx=0;exitDy=0;" edge="1" parent="WIyWlLk6GJQsqaUBKTNV-1" source="m5jzVh6tU3gFUoCoh68g-115">
          <mxGeometry relative="1" as="geometry">
            <mxPoint x="-2296.8888888888887" y="994.2222222222222" as="targetPoint" />
          </mxGeometry>
        </mxCell>
        <mxCell id="m5jzVh6tU3gFUoCoh68g-112" value="จริง" style="edgeStyle=orthogonalEdgeStyle;rounded=0;orthogonalLoop=1;jettySize=auto;html=1;exitX=0.5;exitY=1;exitDx=0;exitDy=0;entryX=0.5;entryY=0;entryDx=0;entryDy=0;" edge="1" parent="WIyWlLk6GJQsqaUBKTNV-1" source="m5jzVh6tU3gFUoCoh68g-115" target="m5jzVh6tU3gFUoCoh68g-71">
          <mxGeometry relative="1" as="geometry" />
        </mxCell>
        <mxCell id="m5jzVh6tU3gFUoCoh68g-113" style="edgeStyle=orthogonalEdgeStyle;rounded=0;orthogonalLoop=1;jettySize=auto;html=1;exitX=0.5;exitY=0;exitDx=0;exitDy=0;" edge="1" parent="WIyWlLk6GJQsqaUBKTNV-1" source="m5jzVh6tU3gFUoCoh68g-115">
          <mxGeometry relative="1" as="geometry">
            <mxPoint x="-2297" y="878" as="targetPoint" />
          </mxGeometry>
        </mxCell>
        <mxCell id="m5jzVh6tU3gFUoCoh68g-114" value="เท็จ" style="edgeLabel;html=1;align=center;verticalAlign=middle;resizable=0;points=[];" vertex="1" connectable="0" parent="m5jzVh6tU3gFUoCoh68g-113">
          <mxGeometry x="-0.1141" y="1" relative="1" as="geometry">
            <mxPoint as="offset" />
          </mxGeometry>
        </mxCell>
        <mxCell id="m5jzVh6tU3gFUoCoh68g-115" value="&lt;span style=&quot;color: rgb(0, 29, 53); font-family: Arial, sans-serif; text-align: start; background-color: rgb(255, 255, 255);&quot;&gt;&lt;font style=&quot;font-size: 12px;&quot;&gt;Stock_A1&amp;gt;0&lt;/font&gt;&lt;/span&gt;" style="rhombus;whiteSpace=wrap;html=1;" vertex="1" parent="WIyWlLk6GJQsqaUBKTNV-1">
          <mxGeometry x="-2337" y="914" width="80" height="80" as="geometry" />
        </mxCell>
        <mxCell id="m5jzVh6tU3gFUoCoh68g-116" style="edgeStyle=orthogonalEdgeStyle;rounded=0;orthogonalLoop=1;jettySize=auto;html=1;exitX=0;exitY=0.5;exitDx=0;exitDy=0;" edge="1" parent="WIyWlLk6GJQsqaUBKTNV-1" source="m5jzVh6tU3gFUoCoh68g-117">
          <mxGeometry relative="1" as="geometry">
            <mxPoint x="-2447" y="848.4000000000001" as="targetPoint" />
          </mxGeometry>
        </mxCell>
        <mxCell id="m5jzVh6tU3gFUoCoh68g-117" value="แสดงขออภัยสินค้าหมด" style="shape=parallelogram;perimeter=parallelogramPerimeter;whiteSpace=wrap;html=1;fixedSize=1;" vertex="1" parent="WIyWlLk6GJQsqaUBKTNV-1">
          <mxGeometry x="-2369.5" y="818" width="145" height="60" as="geometry" />
        </mxCell>
        <mxCell id="m5jzVh6tU3gFUoCoh68g-118" style="edgeStyle=orthogonalEdgeStyle;rounded=0;orthogonalLoop=1;jettySize=auto;html=1;exitX=0.5;exitY=1;exitDx=0;exitDy=0;entryX=0.5;entryY=0;entryDx=0;entryDy=0;" edge="1" parent="WIyWlLk6GJQsqaUBKTNV-1" source="m5jzVh6tU3gFUoCoh68g-119" target="m5jzVh6tU3gFUoCoh68g-59">
          <mxGeometry relative="1" as="geometry" />
        </mxCell>
        <mxCell id="m5jzVh6tU3gFUoCoh68g-119" value="" style="ellipse;whiteSpace=wrap;html=1;aspect=fixed;" vertex="1" parent="WIyWlLk6GJQsqaUBKTNV-1">
          <mxGeometry x="-2086" y="654" width="20" height="20" as="geometry" />
        </mxCell>
        <mxCell id="m5jzVh6tU3gFUoCoh68g-120" style="edgeStyle=orthogonalEdgeStyle;rounded=0;orthogonalLoop=1;jettySize=auto;html=1;exitX=0.5;exitY=0;exitDx=0;exitDy=0;entryX=0.5;entryY=1;entryDx=0;entryDy=0;" edge="1" parent="WIyWlLk6GJQsqaUBKTNV-1" source="m5jzVh6tU3gFUoCoh68g-122" target="m5jzVh6tU3gFUoCoh68g-124">
          <mxGeometry relative="1" as="geometry" />
        </mxCell>
        <mxCell id="m5jzVh6tU3gFUoCoh68g-121" style="edgeStyle=orthogonalEdgeStyle;rounded=0;orthogonalLoop=1;jettySize=auto;html=1;exitX=0.5;exitY=1;exitDx=0;exitDy=0;" edge="1" parent="WIyWlLk6GJQsqaUBKTNV-1" source="m5jzVh6tU3gFUoCoh68g-122" target="m5jzVh6tU3gFUoCoh68g-77">
          <mxGeometry relative="1" as="geometry" />
        </mxCell>
        <mxCell id="m5jzVh6tU3gFUoCoh68g-122" value="&lt;span style=&quot;color: rgb(0, 29, 53); font-family: Arial, sans-serif; text-align: start; background-color: rgb(255, 255, 255);&quot;&gt;&lt;font style=&quot;font-size: 12px;&quot;&gt;Stock_A2&amp;gt;0&lt;/font&gt;&lt;/span&gt;" style="rhombus;whiteSpace=wrap;html=1;" vertex="1" parent="WIyWlLk6GJQsqaUBKTNV-1">
          <mxGeometry x="-1843.5" y="1170.5" width="80" height="80" as="geometry" />
        </mxCell>
        <mxCell id="m5jzVh6tU3gFUoCoh68g-123" style="edgeStyle=orthogonalEdgeStyle;rounded=0;orthogonalLoop=1;jettySize=auto;html=1;exitX=1;exitY=0.5;exitDx=0;exitDy=0;" edge="1" parent="WIyWlLk6GJQsqaUBKTNV-1" source="m5jzVh6tU3gFUoCoh68g-124" target="m5jzVh6tU3gFUoCoh68g-155">
          <mxGeometry relative="1" as="geometry" />
        </mxCell>
        <mxCell id="m5jzVh6tU3gFUoCoh68g-124" value="แสดงขออภัยสินค้าหมด" style="shape=parallelogram;perimeter=parallelogramPerimeter;whiteSpace=wrap;html=1;fixedSize=1;" vertex="1" parent="WIyWlLk6GJQsqaUBKTNV-1">
          <mxGeometry x="-1876" y="1073.5" width="145" height="60" as="geometry" />
        </mxCell>
        <mxCell id="m5jzVh6tU3gFUoCoh68g-125" value="จริง" style="edgeStyle=orthogonalEdgeStyle;rounded=0;orthogonalLoop=1;jettySize=auto;html=1;exitX=0.5;exitY=1;exitDx=0;exitDy=0;entryX=0.5;entryY=0;entryDx=0;entryDy=0;" edge="1" parent="WIyWlLk6GJQsqaUBKTNV-1" source="m5jzVh6tU3gFUoCoh68g-127" target="m5jzVh6tU3gFUoCoh68g-79">
          <mxGeometry relative="1" as="geometry">
            <mxPoint x="-2297.2413793103447" y="1544" as="targetPoint" />
          </mxGeometry>
        </mxCell>
        <mxCell id="m5jzVh6tU3gFUoCoh68g-126" value="เท็จ" style="edgeStyle=orthogonalEdgeStyle;rounded=0;orthogonalLoop=1;jettySize=auto;html=1;exitX=0.5;exitY=0;exitDx=0;exitDy=0;" edge="1" parent="WIyWlLk6GJQsqaUBKTNV-1" source="m5jzVh6tU3gFUoCoh68g-127" target="m5jzVh6tU3gFUoCoh68g-129">
          <mxGeometry relative="1" as="geometry" />
        </mxCell>
        <mxCell id="m5jzVh6tU3gFUoCoh68g-127" value="&lt;span style=&quot;color: rgb(0, 29, 53); font-family: Arial, sans-serif; text-align: start; background-color: rgb(255, 255, 255);&quot;&gt;&lt;font style=&quot;font-size: 12px;&quot;&gt;Stock_A3&amp;gt;0&lt;/font&gt;&lt;/span&gt;" style="rhombus;whiteSpace=wrap;html=1;" vertex="1" parent="WIyWlLk6GJQsqaUBKTNV-1">
          <mxGeometry x="-2337" y="1444" width="80" height="80" as="geometry" />
        </mxCell>
        <mxCell id="m5jzVh6tU3gFUoCoh68g-128" style="edgeStyle=orthogonalEdgeStyle;rounded=0;orthogonalLoop=1;jettySize=auto;html=1;exitX=0;exitY=0.5;exitDx=0;exitDy=0;" edge="1" parent="WIyWlLk6GJQsqaUBKTNV-1" source="m5jzVh6tU3gFUoCoh68g-129">
          <mxGeometry relative="1" as="geometry">
            <mxPoint x="-2447" y="1388.4" as="targetPoint" />
          </mxGeometry>
        </mxCell>
        <mxCell id="m5jzVh6tU3gFUoCoh68g-129" value="แสดงขออภัยสินค้าหมด" style="shape=parallelogram;perimeter=parallelogramPerimeter;whiteSpace=wrap;html=1;fixedSize=1;" vertex="1" parent="WIyWlLk6GJQsqaUBKTNV-1">
          <mxGeometry x="-2369.5" y="1358" width="145" height="60" as="geometry" />
        </mxCell>
        <mxCell id="m5jzVh6tU3gFUoCoh68g-130" value="จริง" style="edgeStyle=orthogonalEdgeStyle;rounded=0;orthogonalLoop=1;jettySize=auto;html=1;exitX=0.5;exitY=1;exitDx=0;exitDy=0;entryX=0.5;entryY=0;entryDx=0;entryDy=0;" edge="1" parent="WIyWlLk6GJQsqaUBKTNV-1" source="m5jzVh6tU3gFUoCoh68g-132" target="m5jzVh6tU3gFUoCoh68g-90">
          <mxGeometry relative="1" as="geometry" />
        </mxCell>
        <mxCell id="m5jzVh6tU3gFUoCoh68g-131" value="เท็จ" style="edgeStyle=orthogonalEdgeStyle;rounded=0;orthogonalLoop=1;jettySize=auto;html=1;exitX=0.5;exitY=0;exitDx=0;exitDy=0;entryX=0.5;entryY=1;entryDx=0;entryDy=0;" edge="1" parent="WIyWlLk6GJQsqaUBKTNV-1" source="m5jzVh6tU3gFUoCoh68g-132" target="m5jzVh6tU3gFUoCoh68g-134">
          <mxGeometry relative="1" as="geometry" />
        </mxCell>
        <mxCell id="m5jzVh6tU3gFUoCoh68g-132" value="&lt;span style=&quot;color: rgb(0, 29, 53); font-family: Arial, sans-serif; text-align: start; background-color: rgb(255, 255, 255);&quot;&gt;&lt;font style=&quot;font-size: 12px;&quot;&gt;Stock_A5&amp;gt;0&lt;/font&gt;&lt;/span&gt;" style="rhombus;whiteSpace=wrap;html=1;" vertex="1" parent="WIyWlLk6GJQsqaUBKTNV-1">
          <mxGeometry x="-2327" y="1974" width="80" height="80" as="geometry" />
        </mxCell>
        <mxCell id="m5jzVh6tU3gFUoCoh68g-133" style="edgeStyle=orthogonalEdgeStyle;rounded=0;orthogonalLoop=1;jettySize=auto;html=1;exitX=0;exitY=0.5;exitDx=0;exitDy=0;" edge="1" parent="WIyWlLk6GJQsqaUBKTNV-1" source="m5jzVh6tU3gFUoCoh68g-134">
          <mxGeometry relative="1" as="geometry">
            <mxPoint x="-2447" y="1914" as="targetPoint" />
          </mxGeometry>
        </mxCell>
        <mxCell id="m5jzVh6tU3gFUoCoh68g-134" value="แสดงขออภัยสินค้าหมด" style="shape=parallelogram;perimeter=parallelogramPerimeter;whiteSpace=wrap;html=1;fixedSize=1;" vertex="1" parent="WIyWlLk6GJQsqaUBKTNV-1">
          <mxGeometry x="-2362" y="1884" width="145" height="60" as="geometry" />
        </mxCell>
        <mxCell id="m5jzVh6tU3gFUoCoh68g-135" value="จริง" style="edgeStyle=orthogonalEdgeStyle;rounded=0;orthogonalLoop=1;jettySize=auto;html=1;exitX=0.5;exitY=1;exitDx=0;exitDy=0;entryX=0.5;entryY=0;entryDx=0;entryDy=0;" edge="1" parent="WIyWlLk6GJQsqaUBKTNV-1" source="m5jzVh6tU3gFUoCoh68g-137" target="m5jzVh6tU3gFUoCoh68g-50">
          <mxGeometry relative="1" as="geometry" />
        </mxCell>
        <mxCell id="m5jzVh6tU3gFUoCoh68g-136" value="เท็จ" style="edgeStyle=orthogonalEdgeStyle;rounded=0;orthogonalLoop=1;jettySize=auto;html=1;exitX=0.5;exitY=0;exitDx=0;exitDy=0;entryX=0.5;entryY=1;entryDx=0;entryDy=0;" edge="1" parent="WIyWlLk6GJQsqaUBKTNV-1" source="m5jzVh6tU3gFUoCoh68g-137" target="m5jzVh6tU3gFUoCoh68g-139">
          <mxGeometry relative="1" as="geometry" />
        </mxCell>
        <mxCell id="m5jzVh6tU3gFUoCoh68g-137" value="&lt;span style=&quot;color: rgb(0, 29, 53); font-family: Arial, sans-serif; text-align: start; background-color: rgb(255, 255, 255);&quot;&gt;&lt;font style=&quot;font-size: 12px;&quot;&gt;Stock_A7&amp;gt;0&lt;/font&gt;&lt;/span&gt;" style="rhombus;whiteSpace=wrap;html=1;" vertex="1" parent="WIyWlLk6GJQsqaUBKTNV-1">
          <mxGeometry x="-2329.5" y="2564" width="80" height="80" as="geometry" />
        </mxCell>
        <mxCell id="m5jzVh6tU3gFUoCoh68g-138" style="edgeStyle=orthogonalEdgeStyle;rounded=0;orthogonalLoop=1;jettySize=auto;html=1;exitX=0;exitY=0.5;exitDx=0;exitDy=0;" edge="1" parent="WIyWlLk6GJQsqaUBKTNV-1" source="m5jzVh6tU3gFUoCoh68g-139">
          <mxGeometry relative="1" as="geometry">
            <mxPoint x="-2447" y="2504" as="targetPoint" />
            <Array as="points">
              <mxPoint x="-2427" y="2504" />
              <mxPoint x="-2427" y="2504" />
            </Array>
          </mxGeometry>
        </mxCell>
        <mxCell id="m5jzVh6tU3gFUoCoh68g-139" value="แสดงขออภัยสินค้าหมด" style="shape=parallelogram;perimeter=parallelogramPerimeter;whiteSpace=wrap;html=1;fixedSize=1;" vertex="1" parent="WIyWlLk6GJQsqaUBKTNV-1">
          <mxGeometry x="-2362" y="2474" width="145" height="60" as="geometry" />
        </mxCell>
        <mxCell id="m5jzVh6tU3gFUoCoh68g-140" style="edgeStyle=orthogonalEdgeStyle;rounded=0;orthogonalLoop=1;jettySize=auto;html=1;exitX=0.5;exitY=1;exitDx=0;exitDy=0;entryX=0.5;entryY=0;entryDx=0;entryDy=0;" edge="1" parent="WIyWlLk6GJQsqaUBKTNV-1" source="m5jzVh6tU3gFUoCoh68g-142" target="m5jzVh6tU3gFUoCoh68g-88">
          <mxGeometry relative="1" as="geometry" />
        </mxCell>
        <mxCell id="m5jzVh6tU3gFUoCoh68g-141" style="edgeStyle=orthogonalEdgeStyle;rounded=0;orthogonalLoop=1;jettySize=auto;html=1;exitX=0.5;exitY=0;exitDx=0;exitDy=0;entryX=0.5;entryY=1;entryDx=0;entryDy=0;" edge="1" parent="WIyWlLk6GJQsqaUBKTNV-1" source="m5jzVh6tU3gFUoCoh68g-142" target="m5jzVh6tU3gFUoCoh68g-144">
          <mxGeometry relative="1" as="geometry" />
        </mxCell>
        <mxCell id="m5jzVh6tU3gFUoCoh68g-142" value="&lt;span style=&quot;color: rgb(0, 29, 53); font-family: Arial, sans-serif; text-align: start; background-color: rgb(255, 255, 255);&quot;&gt;&lt;font style=&quot;font-size: 12px;&quot;&gt;Stock_A4&amp;gt;0&lt;/font&gt;&lt;/span&gt;" style="rhombus;whiteSpace=wrap;html=1;" vertex="1" parent="WIyWlLk6GJQsqaUBKTNV-1">
          <mxGeometry x="-1848.5" y="1724" width="80" height="80" as="geometry" />
        </mxCell>
        <mxCell id="m5jzVh6tU3gFUoCoh68g-143" style="edgeStyle=orthogonalEdgeStyle;rounded=0;orthogonalLoop=1;jettySize=auto;html=1;exitX=1;exitY=0.5;exitDx=0;exitDy=0;" edge="1" parent="WIyWlLk6GJQsqaUBKTNV-1" source="m5jzVh6tU3gFUoCoh68g-144">
          <mxGeometry relative="1" as="geometry">
            <mxPoint x="-1687" y="1664" as="targetPoint" />
          </mxGeometry>
        </mxCell>
        <mxCell id="m5jzVh6tU3gFUoCoh68g-144" value="แสดงขออภัยสินค้าหมด" style="shape=parallelogram;perimeter=parallelogramPerimeter;whiteSpace=wrap;html=1;fixedSize=1;" vertex="1" parent="WIyWlLk6GJQsqaUBKTNV-1">
          <mxGeometry x="-1881" y="1634" width="145" height="60" as="geometry" />
        </mxCell>
        <mxCell id="m5jzVh6tU3gFUoCoh68g-145" style="edgeStyle=orthogonalEdgeStyle;rounded=0;orthogonalLoop=1;jettySize=auto;html=1;exitX=0.5;exitY=1;exitDx=0;exitDy=0;entryX=0.5;entryY=0;entryDx=0;entryDy=0;" edge="1" parent="WIyWlLk6GJQsqaUBKTNV-1" source="m5jzVh6tU3gFUoCoh68g-147" target="m5jzVh6tU3gFUoCoh68g-48">
          <mxGeometry relative="1" as="geometry" />
        </mxCell>
        <mxCell id="m5jzVh6tU3gFUoCoh68g-146" style="edgeStyle=orthogonalEdgeStyle;rounded=0;orthogonalLoop=1;jettySize=auto;html=1;exitX=0.5;exitY=0;exitDx=0;exitDy=0;entryX=0.5;entryY=1;entryDx=0;entryDy=0;" edge="1" parent="WIyWlLk6GJQsqaUBKTNV-1" source="m5jzVh6tU3gFUoCoh68g-147" target="m5jzVh6tU3gFUoCoh68g-149">
          <mxGeometry relative="1" as="geometry" />
        </mxCell>
        <mxCell id="m5jzVh6tU3gFUoCoh68g-147" value="&lt;span style=&quot;color: rgb(0, 29, 53); font-family: Arial, sans-serif; text-align: start; background-color: rgb(255, 255, 255);&quot;&gt;&lt;font style=&quot;font-size: 12px;&quot;&gt;Stock_A6&amp;gt;0&lt;/font&gt;&lt;/span&gt;" style="rhombus;whiteSpace=wrap;html=1;" vertex="1" parent="WIyWlLk6GJQsqaUBKTNV-1">
          <mxGeometry x="-1848.5" y="2306" width="80" height="80" as="geometry" />
        </mxCell>
        <mxCell id="m5jzVh6tU3gFUoCoh68g-148" style="edgeStyle=orthogonalEdgeStyle;rounded=0;orthogonalLoop=1;jettySize=auto;html=1;exitX=1;exitY=0.5;exitDx=0;exitDy=0;" edge="1" parent="WIyWlLk6GJQsqaUBKTNV-1" source="m5jzVh6tU3gFUoCoh68g-149">
          <mxGeometry relative="1" as="geometry">
            <mxPoint x="-1687" y="2244" as="targetPoint" />
          </mxGeometry>
        </mxCell>
        <mxCell id="m5jzVh6tU3gFUoCoh68g-149" value="แสดงขออภัยสินค้าหมด" style="shape=parallelogram;perimeter=parallelogramPerimeter;whiteSpace=wrap;html=1;fixedSize=1;" vertex="1" parent="WIyWlLk6GJQsqaUBKTNV-1">
          <mxGeometry x="-1881" y="2214" width="145" height="60" as="geometry" />
        </mxCell>
        <mxCell id="m5jzVh6tU3gFUoCoh68g-150" style="edgeStyle=orthogonalEdgeStyle;rounded=0;orthogonalLoop=1;jettySize=auto;html=1;exitX=0.5;exitY=0;exitDx=0;exitDy=0;" edge="1" parent="WIyWlLk6GJQsqaUBKTNV-1" source="m5jzVh6tU3gFUoCoh68g-151">
          <mxGeometry relative="1" as="geometry">
            <mxPoint x="-1677" y="1674" as="targetPoint" />
          </mxGeometry>
        </mxCell>
        <mxCell id="m5jzVh6tU3gFUoCoh68g-151" value="" style="ellipse;whiteSpace=wrap;html=1;aspect=fixed;" vertex="1" parent="WIyWlLk6GJQsqaUBKTNV-1">
          <mxGeometry x="-1687" y="2234" width="20" height="20" as="geometry" />
        </mxCell>
        <mxCell id="m5jzVh6tU3gFUoCoh68g-152" style="edgeStyle=orthogonalEdgeStyle;rounded=0;orthogonalLoop=1;jettySize=auto;html=1;exitX=0.5;exitY=0;exitDx=0;exitDy=0;" edge="1" parent="WIyWlLk6GJQsqaUBKTNV-1" source="m5jzVh6tU3gFUoCoh68g-153" target="m5jzVh6tU3gFUoCoh68g-155">
          <mxGeometry relative="1" as="geometry" />
        </mxCell>
        <mxCell id="m5jzVh6tU3gFUoCoh68g-153" value="" style="ellipse;whiteSpace=wrap;html=1;aspect=fixed;" vertex="1" parent="WIyWlLk6GJQsqaUBKTNV-1">
          <mxGeometry x="-1687" y="1654" width="20" height="20" as="geometry" />
        </mxCell>
        <mxCell id="m5jzVh6tU3gFUoCoh68g-154" style="edgeStyle=orthogonalEdgeStyle;rounded=0;orthogonalLoop=1;jettySize=auto;html=1;exitX=0.5;exitY=0;exitDx=0;exitDy=0;entryX=1;entryY=0.5;entryDx=0;entryDy=0;" edge="1" parent="WIyWlLk6GJQsqaUBKTNV-1" source="m5jzVh6tU3gFUoCoh68g-155" target="m5jzVh6tU3gFUoCoh68g-107">
          <mxGeometry relative="1" as="geometry" />
        </mxCell>
        <mxCell id="m5jzVh6tU3gFUoCoh68g-155" value="" style="ellipse;whiteSpace=wrap;html=1;aspect=fixed;" vertex="1" parent="WIyWlLk6GJQsqaUBKTNV-1">
          <mxGeometry x="-1687" y="1093.5" width="20" height="20" as="geometry" />
        </mxCell>
        <mxCell id="m5jzVh6tU3gFUoCoh68g-156" style="edgeStyle=orthogonalEdgeStyle;rounded=0;orthogonalLoop=1;jettySize=auto;html=1;exitX=0.5;exitY=0;exitDx=0;exitDy=0;entryX=0.5;entryY=1;entryDx=0;entryDy=0;" edge="1" parent="WIyWlLk6GJQsqaUBKTNV-1" source="m5jzVh6tU3gFUoCoh68g-157" target="m5jzVh6tU3gFUoCoh68g-159">
          <mxGeometry relative="1" as="geometry" />
        </mxCell>
        <mxCell id="m5jzVh6tU3gFUoCoh68g-157" value="" style="ellipse;whiteSpace=wrap;html=1;aspect=fixed;" vertex="1" parent="WIyWlLk6GJQsqaUBKTNV-1">
          <mxGeometry x="-2467" y="2494" width="20" height="20" as="geometry" />
        </mxCell>
        <mxCell id="m5jzVh6tU3gFUoCoh68g-158" style="edgeStyle=orthogonalEdgeStyle;rounded=0;orthogonalLoop=1;jettySize=auto;html=1;exitX=0.5;exitY=0;exitDx=0;exitDy=0;entryX=0.5;entryY=1;entryDx=0;entryDy=0;" edge="1" parent="WIyWlLk6GJQsqaUBKTNV-1" source="m5jzVh6tU3gFUoCoh68g-159" target="m5jzVh6tU3gFUoCoh68g-161">
          <mxGeometry relative="1" as="geometry" />
        </mxCell>
        <mxCell id="m5jzVh6tU3gFUoCoh68g-159" value="" style="ellipse;whiteSpace=wrap;html=1;aspect=fixed;" vertex="1" parent="WIyWlLk6GJQsqaUBKTNV-1">
          <mxGeometry x="-2467" y="1904" width="20" height="20" as="geometry" />
        </mxCell>
        <mxCell id="m5jzVh6tU3gFUoCoh68g-160" style="edgeStyle=orthogonalEdgeStyle;rounded=0;orthogonalLoop=1;jettySize=auto;html=1;exitX=0.5;exitY=0;exitDx=0;exitDy=0;entryX=0.5;entryY=1;entryDx=0;entryDy=0;" edge="1" parent="WIyWlLk6GJQsqaUBKTNV-1" source="m5jzVh6tU3gFUoCoh68g-161" target="m5jzVh6tU3gFUoCoh68g-163">
          <mxGeometry relative="1" as="geometry" />
        </mxCell>
        <mxCell id="m5jzVh6tU3gFUoCoh68g-161" value="" style="ellipse;whiteSpace=wrap;html=1;aspect=fixed;" vertex="1" parent="WIyWlLk6GJQsqaUBKTNV-1">
          <mxGeometry x="-2467" y="1379" width="20" height="20" as="geometry" />
        </mxCell>
        <mxCell id="m5jzVh6tU3gFUoCoh68g-162" style="edgeStyle=orthogonalEdgeStyle;rounded=0;orthogonalLoop=1;jettySize=auto;html=1;exitX=0.5;exitY=0;exitDx=0;exitDy=0;entryX=0;entryY=0.5;entryDx=0;entryDy=0;" edge="1" parent="WIyWlLk6GJQsqaUBKTNV-1" source="m5jzVh6tU3gFUoCoh68g-163" target="m5jzVh6tU3gFUoCoh68g-107">
          <mxGeometry relative="1" as="geometry" />
        </mxCell>
        <mxCell id="m5jzVh6tU3gFUoCoh68g-163" value="" style="ellipse;whiteSpace=wrap;html=1;aspect=fixed;" vertex="1" parent="WIyWlLk6GJQsqaUBKTNV-1">
          <mxGeometry x="-2467" y="838" width="20" height="20" as="geometry" />
        </mxCell>
        <mxCell id="m5jzVh6tU3gFUoCoh68g-165" value="" style="endArrow=classic;html=1;rounded=0;exitX=0.5;exitY=1;exitDx=0;exitDy=0;entryX=0;entryY=0.5;entryDx=0;entryDy=0;" edge="1" parent="WIyWlLk6GJQsqaUBKTNV-1" source="m5jzVh6tU3gFUoCoh68g-51" target="m5jzVh6tU3gFUoCoh68g-38">
          <mxGeometry width="50" height="50" relative="1" as="geometry">
            <mxPoint x="-2267" y="3005" as="sourcePoint" />
            <mxPoint x="-2147" y="3185" as="targetPoint" />
            <Array as="points">
              <mxPoint x="-2397" y="3080" />
            </Array>
          </mxGeometry>
        </mxCell>
        <mxCell id="m5jzVh6tU3gFUoCoh68g-166" value="" style="endArrow=classic;html=1;rounded=0;exitX=0.5;exitY=1;exitDx=0;exitDy=0;entryX=1;entryY=0.5;entryDx=0;entryDy=0;" edge="1" parent="WIyWlLk6GJQsqaUBKTNV-1" source="m5jzVh6tU3gFUoCoh68g-52" target="m5jzVh6tU3gFUoCoh68g-38">
          <mxGeometry width="50" height="50" relative="1" as="geometry">
            <mxPoint x="-2067" y="2955" as="sourcePoint" />
            <mxPoint x="-2017" y="2905" as="targetPoint" />
            <Array as="points">
              <mxPoint x="-1708" y="3080" />
            </Array>
          </mxGeometry>
        </mxCell>
        <mxCell id="m5jzVh6tU3gFUoCoh68g-169" style="edgeStyle=orthogonalEdgeStyle;rounded=0;orthogonalLoop=1;jettySize=auto;html=1;exitX=0.5;exitY=1;exitDx=0;exitDy=0;" edge="1" parent="WIyWlLk6GJQsqaUBKTNV-1" source="m5jzVh6tU3gFUoCoh68g-170">
          <mxGeometry relative="1" as="geometry">
            <mxPoint x="-1229.0357142857142" y="119" as="targetPoint" />
          </mxGeometry>
        </mxCell>
        <mxCell id="m5jzVh6tU3gFUoCoh68g-170" value="เริ่ม" style="ellipse;whiteSpace=wrap;html=1;" vertex="1" parent="WIyWlLk6GJQsqaUBKTNV-1">
          <mxGeometry x="-1289" y="40" width="120" height="50" as="geometry" />
        </mxCell>
        <mxCell id="m5jzVh6tU3gFUoCoh68g-171" style="edgeStyle=orthogonalEdgeStyle;rounded=0;orthogonalLoop=1;jettySize=auto;html=1;exitX=0.5;exitY=1;exitDx=0;exitDy=0;entryX=0.5;entryY=0;entryDx=0;entryDy=0;" edge="1" parent="WIyWlLk6GJQsqaUBKTNV-1" source="m5jzVh6tU3gFUoCoh68g-172" target="m5jzVh6tU3gFUoCoh68g-175">
          <mxGeometry relative="1" as="geometry" />
        </mxCell>
        <mxCell id="m5jzVh6tU3gFUoCoh68g-172" value="แสดง รอสักครู่" style="shape=parallelogram;perimeter=parallelogramPerimeter;whiteSpace=wrap;html=1;fixedSize=1;" vertex="1" parent="WIyWlLk6GJQsqaUBKTNV-1">
          <mxGeometry x="-1296.13" y="119" width="120" height="60" as="geometry" />
        </mxCell>
        <mxCell id="m5jzVh6tU3gFUoCoh68g-173" value="เท็จ" style="edgeStyle=orthogonalEdgeStyle;rounded=0;orthogonalLoop=1;jettySize=auto;html=1;exitX=0.5;exitY=1;exitDx=0;exitDy=0;entryX=0.5;entryY=0;entryDx=0;entryDy=0;" edge="1" parent="WIyWlLk6GJQsqaUBKTNV-1" source="m5jzVh6tU3gFUoCoh68g-175" target="m5jzVh6tU3gFUoCoh68g-180">
          <mxGeometry relative="1" as="geometry" />
        </mxCell>
        <mxCell id="m5jzVh6tU3gFUoCoh68g-174" value="จริง" style="edgeStyle=orthogonalEdgeStyle;rounded=0;orthogonalLoop=1;jettySize=auto;html=1;exitX=0;exitY=0.5;exitDx=0;exitDy=0;entryX=1;entryY=0.5;entryDx=0;entryDy=0;" edge="1" parent="WIyWlLk6GJQsqaUBKTNV-1" source="m5jzVh6tU3gFUoCoh68g-175" target="m5jzVh6tU3gFUoCoh68g-177">
          <mxGeometry relative="1" as="geometry" />
        </mxCell>
        <mxCell id="m5jzVh6tU3gFUoCoh68g-175" value="จำนวนสินค้าA1&amp;gt;=1" style="rhombus;whiteSpace=wrap;html=1;" vertex="1" parent="WIyWlLk6GJQsqaUBKTNV-1">
          <mxGeometry x="-1276.25" y="208.3699999999999" width="80" height="80" as="geometry" />
        </mxCell>
        <mxCell id="m5jzVh6tU3gFUoCoh68g-176" style="edgeStyle=orthogonalEdgeStyle;rounded=0;orthogonalLoop=1;jettySize=auto;html=1;exitX=0.5;exitY=1;exitDx=0;exitDy=0;entryX=0.5;entryY=0;entryDx=0;entryDy=0;" edge="1" parent="WIyWlLk6GJQsqaUBKTNV-1" source="m5jzVh6tU3gFUoCoh68g-177">
          <mxGeometry relative="1" as="geometry">
            <mxPoint x="-1458" y="302.5" as="targetPoint" />
          </mxGeometry>
        </mxCell>
        <mxCell id="m5jzVh6tU3gFUoCoh68g-177" value="จำนวนสินค้าA1=จำนวนสินค้าA1-1" style="rounded=0;whiteSpace=wrap;html=1;" vertex="1" parent="WIyWlLk6GJQsqaUBKTNV-1">
          <mxGeometry x="-1567" y="220.5" width="218" height="55.75" as="geometry" />
        </mxCell>
        <mxCell id="m5jzVh6tU3gFUoCoh68g-178" value="เท็จ" style="edgeStyle=orthogonalEdgeStyle;rounded=0;orthogonalLoop=1;jettySize=auto;html=1;exitX=0.5;exitY=1;exitDx=0;exitDy=0;entryX=0.5;entryY=0;entryDx=0;entryDy=0;" edge="1" parent="WIyWlLk6GJQsqaUBKTNV-1" source="m5jzVh6tU3gFUoCoh68g-180" target="m5jzVh6tU3gFUoCoh68g-185">
          <mxGeometry relative="1" as="geometry" />
        </mxCell>
        <mxCell id="m5jzVh6tU3gFUoCoh68g-179" value="จริง" style="edgeStyle=orthogonalEdgeStyle;rounded=0;orthogonalLoop=1;jettySize=auto;html=1;exitX=1;exitY=0.5;exitDx=0;exitDy=0;entryX=0;entryY=0.5;entryDx=0;entryDy=0;" edge="1" parent="WIyWlLk6GJQsqaUBKTNV-1" source="m5jzVh6tU3gFUoCoh68g-180" target="m5jzVh6tU3gFUoCoh68g-182">
          <mxGeometry relative="1" as="geometry" />
        </mxCell>
        <mxCell id="m5jzVh6tU3gFUoCoh68g-180" value="จำนวนสินค้าA2&amp;gt;=1" style="rhombus;whiteSpace=wrap;html=1;" vertex="1" parent="WIyWlLk6GJQsqaUBKTNV-1">
          <mxGeometry x="-1276.25" y="330.5" width="80" height="80" as="geometry" />
        </mxCell>
        <mxCell id="m5jzVh6tU3gFUoCoh68g-181" style="edgeStyle=orthogonalEdgeStyle;rounded=0;orthogonalLoop=1;jettySize=auto;html=1;exitX=0.5;exitY=1;exitDx=0;exitDy=0;" edge="1" parent="WIyWlLk6GJQsqaUBKTNV-1" source="m5jzVh6tU3gFUoCoh68g-182">
          <mxGeometry relative="1" as="geometry">
            <mxPoint x="-1000" y="418.5" as="targetPoint" />
          </mxGeometry>
        </mxCell>
        <mxCell id="m5jzVh6tU3gFUoCoh68g-182" value="จำนวนสินค้าA2=จำนวนสินค้าA2-1" style="rounded=0;whiteSpace=wrap;html=1;" vertex="1" parent="WIyWlLk6GJQsqaUBKTNV-1">
          <mxGeometry x="-1109" y="342.5" width="218" height="55.75" as="geometry" />
        </mxCell>
        <mxCell id="m5jzVh6tU3gFUoCoh68g-183" value="เท็จ" style="edgeStyle=orthogonalEdgeStyle;rounded=0;orthogonalLoop=1;jettySize=auto;html=1;exitX=0.5;exitY=1;exitDx=0;exitDy=0;entryX=0.5;entryY=0;entryDx=0;entryDy=0;" edge="1" parent="WIyWlLk6GJQsqaUBKTNV-1" source="m5jzVh6tU3gFUoCoh68g-185" target="m5jzVh6tU3gFUoCoh68g-195">
          <mxGeometry relative="1" as="geometry" />
        </mxCell>
        <mxCell id="m5jzVh6tU3gFUoCoh68g-184" value="จริง" style="edgeStyle=orthogonalEdgeStyle;rounded=0;orthogonalLoop=1;jettySize=auto;html=1;exitX=0;exitY=0.5;exitDx=0;exitDy=0;entryX=1;entryY=0.5;entryDx=0;entryDy=0;" edge="1" parent="WIyWlLk6GJQsqaUBKTNV-1" source="m5jzVh6tU3gFUoCoh68g-185" target="m5jzVh6tU3gFUoCoh68g-187">
          <mxGeometry relative="1" as="geometry" />
        </mxCell>
        <mxCell id="m5jzVh6tU3gFUoCoh68g-185" value="จำนวนสินค้าA3&amp;gt;=1" style="rhombus;whiteSpace=wrap;html=1;" vertex="1" parent="WIyWlLk6GJQsqaUBKTNV-1">
          <mxGeometry x="-1276.25" y="453.3699999999999" width="80" height="80" as="geometry" />
        </mxCell>
        <mxCell id="m5jzVh6tU3gFUoCoh68g-186" style="edgeStyle=orthogonalEdgeStyle;rounded=0;orthogonalLoop=1;jettySize=auto;html=1;exitX=0.5;exitY=1;exitDx=0;exitDy=0;entryX=0.5;entryY=0;entryDx=0;entryDy=0;" edge="1" parent="WIyWlLk6GJQsqaUBKTNV-1" source="m5jzVh6tU3gFUoCoh68g-187">
          <mxGeometry relative="1" as="geometry">
            <mxPoint x="-1458" y="545.5" as="targetPoint" />
          </mxGeometry>
        </mxCell>
        <mxCell id="m5jzVh6tU3gFUoCoh68g-187" value="จำนวนสินค้าA3=จำนวนสินค้าA3-1" style="rounded=0;whiteSpace=wrap;html=1;" vertex="1" parent="WIyWlLk6GJQsqaUBKTNV-1">
          <mxGeometry x="-1567" y="465.5" width="218" height="55.75" as="geometry" />
        </mxCell>
        <mxCell id="m5jzVh6tU3gFUoCoh68g-188" value="จริง" style="edgeStyle=orthogonalEdgeStyle;rounded=0;orthogonalLoop=1;jettySize=auto;html=1;exitX=0;exitY=0.5;exitDx=0;exitDy=0;entryX=1;entryY=0.5;entryDx=0;entryDy=0;" edge="1" parent="WIyWlLk6GJQsqaUBKTNV-1" source="m5jzVh6tU3gFUoCoh68g-190" target="m5jzVh6tU3gFUoCoh68g-192">
          <mxGeometry relative="1" as="geometry" />
        </mxCell>
        <mxCell id="m5jzVh6tU3gFUoCoh68g-189" value="เท็จ" style="edgeStyle=orthogonalEdgeStyle;rounded=0;orthogonalLoop=1;jettySize=auto;html=1;exitX=0.5;exitY=1;exitDx=0;exitDy=0;entryX=0.5;entryY=0;entryDx=0;entryDy=0;" edge="1" parent="WIyWlLk6GJQsqaUBKTNV-1" source="m5jzVh6tU3gFUoCoh68g-190" target="m5jzVh6tU3gFUoCoh68g-254">
          <mxGeometry relative="1" as="geometry">
            <mxPoint x="-1236" y="918.5116506177326" as="targetPoint" />
          </mxGeometry>
        </mxCell>
        <mxCell id="m5jzVh6tU3gFUoCoh68g-190" value="จำนวนสินค้าA5&amp;gt;=1" style="rhombus;whiteSpace=wrap;html=1;" vertex="1" parent="WIyWlLk6GJQsqaUBKTNV-1">
          <mxGeometry x="-1276.25" y="720.5" width="80" height="80" as="geometry" />
        </mxCell>
        <mxCell id="m5jzVh6tU3gFUoCoh68g-191" style="edgeStyle=orthogonalEdgeStyle;rounded=0;orthogonalLoop=1;jettySize=auto;html=1;exitX=0.5;exitY=1;exitDx=0;exitDy=0;entryX=0.5;entryY=0;entryDx=0;entryDy=0;" edge="1" parent="WIyWlLk6GJQsqaUBKTNV-1" source="m5jzVh6tU3gFUoCoh68g-192">
          <mxGeometry relative="1" as="geometry">
            <mxPoint x="-1458" y="812.6299999999997" as="targetPoint" />
          </mxGeometry>
        </mxCell>
        <mxCell id="m5jzVh6tU3gFUoCoh68g-192" value="จำนวนสินค้าA5=จำนวนสินค้าA5-1" style="rounded=0;whiteSpace=wrap;html=1;" vertex="1" parent="WIyWlLk6GJQsqaUBKTNV-1">
          <mxGeometry x="-1567" y="732.6300000000001" width="218" height="55.75" as="geometry" />
        </mxCell>
        <mxCell id="m5jzVh6tU3gFUoCoh68g-193" value="เท็จ" style="edgeStyle=orthogonalEdgeStyle;rounded=0;orthogonalLoop=1;jettySize=auto;html=1;exitX=0.5;exitY=1;exitDx=0;exitDy=0;entryX=0.5;entryY=0;entryDx=0;entryDy=0;" edge="1" parent="WIyWlLk6GJQsqaUBKTNV-1" source="m5jzVh6tU3gFUoCoh68g-195" target="m5jzVh6tU3gFUoCoh68g-190">
          <mxGeometry relative="1" as="geometry" />
        </mxCell>
        <mxCell id="m5jzVh6tU3gFUoCoh68g-194" value="จริง" style="edgeStyle=orthogonalEdgeStyle;rounded=0;orthogonalLoop=1;jettySize=auto;html=1;exitX=1;exitY=0.5;exitDx=0;exitDy=0;" edge="1" parent="WIyWlLk6GJQsqaUBKTNV-1" source="m5jzVh6tU3gFUoCoh68g-195" target="m5jzVh6tU3gFUoCoh68g-197">
          <mxGeometry relative="1" as="geometry" />
        </mxCell>
        <mxCell id="m5jzVh6tU3gFUoCoh68g-195" value="จำนวนสินค้าA4&amp;gt;=1" style="rhombus;whiteSpace=wrap;html=1;" vertex="1" parent="WIyWlLk6GJQsqaUBKTNV-1">
          <mxGeometry x="-1276.25" y="586.3800000000001" width="80" height="80" as="geometry" />
        </mxCell>
        <mxCell id="m5jzVh6tU3gFUoCoh68g-196" style="edgeStyle=orthogonalEdgeStyle;rounded=0;orthogonalLoop=1;jettySize=auto;html=1;exitX=0.5;exitY=1;exitDx=0;exitDy=0;entryX=0.5;entryY=0;entryDx=0;entryDy=0;" edge="1" parent="WIyWlLk6GJQsqaUBKTNV-1" source="m5jzVh6tU3gFUoCoh68g-197">
          <mxGeometry relative="1" as="geometry">
            <mxPoint x="-1000" y="678.5" as="targetPoint" />
          </mxGeometry>
        </mxCell>
        <mxCell id="m5jzVh6tU3gFUoCoh68g-197" value="จำนวนสินค้าA4=จำนวนสินค้าA4-1" style="rounded=0;whiteSpace=wrap;html=1;" vertex="1" parent="WIyWlLk6GJQsqaUBKTNV-1">
          <mxGeometry x="-1109" y="598.5" width="218" height="55.75" as="geometry" />
        </mxCell>
        <mxCell id="m5jzVh6tU3gFUoCoh68g-198" style="edgeStyle=orthogonalEdgeStyle;rounded=0;orthogonalLoop=1;jettySize=auto;html=1;exitX=0.5;exitY=1;exitDx=0;exitDy=0;entryX=0.5;entryY=0;entryDx=0;entryDy=0;" edge="1" parent="WIyWlLk6GJQsqaUBKTNV-1" source="m5jzVh6tU3gFUoCoh68g-199" target="m5jzVh6tU3gFUoCoh68g-201">
          <mxGeometry relative="1" as="geometry" />
        </mxCell>
        <mxCell id="m5jzVh6tU3gFUoCoh68g-199" value="ส่งสินค้าA1" style="shape=parallelogram;perimeter=parallelogramPerimeter;whiteSpace=wrap;html=1;fixedSize=1;" vertex="1" parent="WIyWlLk6GJQsqaUBKTNV-1">
          <mxGeometry x="-1518" y="302.5" width="120" height="60" as="geometry" />
        </mxCell>
        <mxCell id="m5jzVh6tU3gFUoCoh68g-200" style="edgeStyle=orthogonalEdgeStyle;rounded=0;orthogonalLoop=1;jettySize=auto;html=1;exitX=0;exitY=0.5;exitDx=0;exitDy=0;entryX=1;entryY=0.5;entryDx=0;entryDy=0;" edge="1" parent="WIyWlLk6GJQsqaUBKTNV-1" source="m5jzVh6tU3gFUoCoh68g-201" target="m5jzVh6tU3gFUoCoh68g-245">
          <mxGeometry relative="1" as="geometry" />
        </mxCell>
        <mxCell id="m5jzVh6tU3gFUoCoh68g-201" value="&lt;span style=&quot;color: rgb(0, 29, 53); font-family: Arial, sans-serif; text-align: start; background-color: rgb(255, 255, 255);&quot;&gt;Stock_A1=&lt;/span&gt;&lt;span style=&quot;color: rgb(0, 29, 53); font-family: Arial, sans-serif; text-align: start; background-color: rgb(255, 255, 255);&quot;&gt;Stock_A1-1&lt;/span&gt;" style="rounded=0;whiteSpace=wrap;html=1;" vertex="1" parent="WIyWlLk6GJQsqaUBKTNV-1">
          <mxGeometry x="-1523" y="382.5" width="130" height="60" as="geometry" />
        </mxCell>
        <mxCell id="m5jzVh6tU3gFUoCoh68g-202" style="edgeStyle=orthogonalEdgeStyle;rounded=0;orthogonalLoop=1;jettySize=auto;html=1;exitX=0.5;exitY=1;exitDx=0;exitDy=0;entryX=0.5;entryY=0;entryDx=0;entryDy=0;" edge="1" parent="WIyWlLk6GJQsqaUBKTNV-1" source="m5jzVh6tU3gFUoCoh68g-203" target="m5jzVh6tU3gFUoCoh68g-205">
          <mxGeometry relative="1" as="geometry" />
        </mxCell>
        <mxCell id="m5jzVh6tU3gFUoCoh68g-203" value="ส่งสินค้าA2" style="shape=parallelogram;perimeter=parallelogramPerimeter;whiteSpace=wrap;html=1;fixedSize=1;" vertex="1" parent="WIyWlLk6GJQsqaUBKTNV-1">
          <mxGeometry x="-1060" y="418" width="120" height="60" as="geometry" />
        </mxCell>
        <mxCell id="m5jzVh6tU3gFUoCoh68g-204" style="edgeStyle=orthogonalEdgeStyle;rounded=0;orthogonalLoop=1;jettySize=auto;html=1;exitX=1;exitY=0.5;exitDx=0;exitDy=0;entryX=0;entryY=0.5;entryDx=0;entryDy=0;" edge="1" parent="WIyWlLk6GJQsqaUBKTNV-1" source="m5jzVh6tU3gFUoCoh68g-205" target="m5jzVh6tU3gFUoCoh68g-247">
          <mxGeometry relative="1" as="geometry" />
        </mxCell>
        <mxCell id="m5jzVh6tU3gFUoCoh68g-205" value="&lt;span style=&quot;color: rgb(0, 29, 53); font-family: Arial, sans-serif; text-align: start; background-color: rgb(255, 255, 255);&quot;&gt;Stock_A2=&lt;/span&gt;&lt;span style=&quot;color: rgb(0, 29, 53); font-family: Arial, sans-serif; text-align: start; background-color: rgb(255, 255, 255);&quot;&gt;Stock_A2-1&lt;/span&gt;" style="rounded=0;whiteSpace=wrap;html=1;" vertex="1" parent="WIyWlLk6GJQsqaUBKTNV-1">
          <mxGeometry x="-1065" y="498" width="130" height="60" as="geometry" />
        </mxCell>
        <mxCell id="m5jzVh6tU3gFUoCoh68g-206" style="edgeStyle=orthogonalEdgeStyle;rounded=0;orthogonalLoop=1;jettySize=auto;html=1;exitX=0.5;exitY=1;exitDx=0;exitDy=0;entryX=0.5;entryY=0;entryDx=0;entryDy=0;" edge="1" parent="WIyWlLk6GJQsqaUBKTNV-1" source="m5jzVh6tU3gFUoCoh68g-207" target="m5jzVh6tU3gFUoCoh68g-209">
          <mxGeometry relative="1" as="geometry" />
        </mxCell>
        <mxCell id="m5jzVh6tU3gFUoCoh68g-207" value="ส่งสินค้าA3" style="shape=parallelogram;perimeter=parallelogramPerimeter;whiteSpace=wrap;html=1;fixedSize=1;" vertex="1" parent="WIyWlLk6GJQsqaUBKTNV-1">
          <mxGeometry x="-1518" y="549" width="120" height="60" as="geometry" />
        </mxCell>
        <mxCell id="m5jzVh6tU3gFUoCoh68g-208" style="edgeStyle=orthogonalEdgeStyle;rounded=0;orthogonalLoop=1;jettySize=auto;html=1;exitX=0;exitY=0.5;exitDx=0;exitDy=0;entryX=1;entryY=0.5;entryDx=0;entryDy=0;" edge="1" parent="WIyWlLk6GJQsqaUBKTNV-1" source="m5jzVh6tU3gFUoCoh68g-209" target="m5jzVh6tU3gFUoCoh68g-243">
          <mxGeometry relative="1" as="geometry" />
        </mxCell>
        <mxCell id="m5jzVh6tU3gFUoCoh68g-209" value="&lt;span style=&quot;color: rgb(0, 29, 53); font-family: Arial, sans-serif; text-align: start; background-color: rgb(255, 255, 255);&quot;&gt;Stock_A3=&lt;/span&gt;&lt;span style=&quot;color: rgb(0, 29, 53); font-family: Arial, sans-serif; text-align: start; background-color: rgb(255, 255, 255);&quot;&gt;Stock_A3-1&lt;/span&gt;" style="rounded=0;whiteSpace=wrap;html=1;" vertex="1" parent="WIyWlLk6GJQsqaUBKTNV-1">
          <mxGeometry x="-1523" y="629" width="130" height="60" as="geometry" />
        </mxCell>
        <mxCell id="m5jzVh6tU3gFUoCoh68g-210" style="edgeStyle=orthogonalEdgeStyle;rounded=0;orthogonalLoop=1;jettySize=auto;html=1;exitX=0.5;exitY=1;exitDx=0;exitDy=0;entryX=0.5;entryY=0;entryDx=0;entryDy=0;" edge="1" parent="WIyWlLk6GJQsqaUBKTNV-1" source="m5jzVh6tU3gFUoCoh68g-211" target="m5jzVh6tU3gFUoCoh68g-213">
          <mxGeometry relative="1" as="geometry" />
        </mxCell>
        <mxCell id="m5jzVh6tU3gFUoCoh68g-211" value="ส่งสินค้าA4" style="shape=parallelogram;perimeter=parallelogramPerimeter;whiteSpace=wrap;html=1;fixedSize=1;" vertex="1" parent="WIyWlLk6GJQsqaUBKTNV-1">
          <mxGeometry x="-1060" y="679" width="120" height="60" as="geometry" />
        </mxCell>
        <mxCell id="m5jzVh6tU3gFUoCoh68g-212" style="edgeStyle=orthogonalEdgeStyle;rounded=0;orthogonalLoop=1;jettySize=auto;html=1;exitX=1;exitY=0.5;exitDx=0;exitDy=0;" edge="1" parent="WIyWlLk6GJQsqaUBKTNV-1" source="m5jzVh6tU3gFUoCoh68g-213" target="m5jzVh6tU3gFUoCoh68g-249">
          <mxGeometry relative="1" as="geometry" />
        </mxCell>
        <mxCell id="m5jzVh6tU3gFUoCoh68g-213" value="&lt;span style=&quot;color: rgb(0, 29, 53); font-family: Arial, sans-serif; text-align: start; background-color: rgb(255, 255, 255);&quot;&gt;Stock_A4=&lt;/span&gt;&lt;span style=&quot;color: rgb(0, 29, 53); font-family: Arial, sans-serif; text-align: start; background-color: rgb(255, 255, 255);&quot;&gt;Stock_A4-1&lt;/span&gt;" style="rounded=0;whiteSpace=wrap;html=1;" vertex="1" parent="WIyWlLk6GJQsqaUBKTNV-1">
          <mxGeometry x="-1065" y="759" width="130" height="60" as="geometry" />
        </mxCell>
        <mxCell id="m5jzVh6tU3gFUoCoh68g-214" style="edgeStyle=orthogonalEdgeStyle;rounded=0;orthogonalLoop=1;jettySize=auto;html=1;exitX=0.5;exitY=1;exitDx=0;exitDy=0;entryX=0.5;entryY=0;entryDx=0;entryDy=0;" edge="1" parent="WIyWlLk6GJQsqaUBKTNV-1" source="m5jzVh6tU3gFUoCoh68g-215" target="m5jzVh6tU3gFUoCoh68g-217">
          <mxGeometry relative="1" as="geometry" />
        </mxCell>
        <mxCell id="m5jzVh6tU3gFUoCoh68g-215" value="ส่งสินค้าA5" style="shape=parallelogram;perimeter=parallelogramPerimeter;whiteSpace=wrap;html=1;fixedSize=1;" vertex="1" parent="WIyWlLk6GJQsqaUBKTNV-1">
          <mxGeometry x="-1518" y="814" width="120" height="60" as="geometry" />
        </mxCell>
        <mxCell id="m5jzVh6tU3gFUoCoh68g-216" style="edgeStyle=orthogonalEdgeStyle;rounded=0;orthogonalLoop=1;jettySize=auto;html=1;exitX=0;exitY=0.5;exitDx=0;exitDy=0;entryX=1;entryY=0.5;entryDx=0;entryDy=0;" edge="1" parent="WIyWlLk6GJQsqaUBKTNV-1" source="m5jzVh6tU3gFUoCoh68g-217" target="m5jzVh6tU3gFUoCoh68g-241">
          <mxGeometry relative="1" as="geometry" />
        </mxCell>
        <mxCell id="m5jzVh6tU3gFUoCoh68g-217" value="&lt;span style=&quot;color: rgb(0, 29, 53); font-family: Arial, sans-serif; text-align: start; background-color: rgb(255, 255, 255);&quot;&gt;Stock_A5=&lt;/span&gt;&lt;span style=&quot;color: rgb(0, 29, 53); font-family: Arial, sans-serif; text-align: start; background-color: rgb(255, 255, 255);&quot;&gt;Stock_A5-1&lt;/span&gt;" style="rounded=0;whiteSpace=wrap;html=1;" vertex="1" parent="WIyWlLk6GJQsqaUBKTNV-1">
          <mxGeometry x="-1523" y="894" width="130" height="60" as="geometry" />
        </mxCell>
        <mxCell id="m5jzVh6tU3gFUoCoh68g-218" value="จริง" style="edgeStyle=orthogonalEdgeStyle;rounded=0;orthogonalLoop=1;jettySize=auto;html=1;exitX=1;exitY=0.5;exitDx=0;exitDy=0;" edge="1" parent="WIyWlLk6GJQsqaUBKTNV-1" source="m5jzVh6tU3gFUoCoh68g-220" target="m5jzVh6tU3gFUoCoh68g-222">
          <mxGeometry relative="1" as="geometry" />
        </mxCell>
        <mxCell id="m5jzVh6tU3gFUoCoh68g-219" value="เท็จ" style="edgeStyle=orthogonalEdgeStyle;rounded=0;orthogonalLoop=1;jettySize=auto;html=1;exitX=0.5;exitY=1;exitDx=0;exitDy=0;entryX=0.5;entryY=0;entryDx=0;entryDy=0;" edge="1" parent="WIyWlLk6GJQsqaUBKTNV-1" source="m5jzVh6tU3gFUoCoh68g-220" target="m5jzVh6tU3gFUoCoh68g-228">
          <mxGeometry relative="1" as="geometry" />
        </mxCell>
        <mxCell id="m5jzVh6tU3gFUoCoh68g-220" value="จำนวนสินค้าA6&amp;gt;=1" style="rhombus;whiteSpace=wrap;html=1;" vertex="1" parent="WIyWlLk6GJQsqaUBKTNV-1">
          <mxGeometry x="-1279.25" y="1383" width="80" height="80" as="geometry" />
        </mxCell>
        <mxCell id="m5jzVh6tU3gFUoCoh68g-221" style="edgeStyle=orthogonalEdgeStyle;rounded=0;orthogonalLoop=1;jettySize=auto;html=1;exitX=0.5;exitY=1;exitDx=0;exitDy=0;entryX=0.5;entryY=0;entryDx=0;entryDy=0;" edge="1" parent="WIyWlLk6GJQsqaUBKTNV-1" source="m5jzVh6tU3gFUoCoh68g-222">
          <mxGeometry relative="1" as="geometry">
            <mxPoint x="-1003" y="1475.12" as="targetPoint" />
          </mxGeometry>
        </mxCell>
        <mxCell id="m5jzVh6tU3gFUoCoh68g-222" value="จำนวนสินค้าA6=จำนวนสินค้าA6-1" style="rounded=0;whiteSpace=wrap;html=1;" vertex="1" parent="WIyWlLk6GJQsqaUBKTNV-1">
          <mxGeometry x="-1112" y="1395.12" width="218" height="55.75" as="geometry" />
        </mxCell>
        <mxCell id="m5jzVh6tU3gFUoCoh68g-223" value="ส่งสินค้าA6" style="shape=parallelogram;perimeter=parallelogramPerimeter;whiteSpace=wrap;html=1;fixedSize=1;" vertex="1" parent="WIyWlLk6GJQsqaUBKTNV-1">
          <mxGeometry x="-1063" y="1475.62" width="120" height="60" as="geometry" />
        </mxCell>
        <mxCell id="m5jzVh6tU3gFUoCoh68g-224" style="edgeStyle=orthogonalEdgeStyle;rounded=0;orthogonalLoop=1;jettySize=auto;html=1;exitX=1;exitY=0.5;exitDx=0;exitDy=0;entryX=0;entryY=0.5;entryDx=0;entryDy=0;" edge="1" parent="WIyWlLk6GJQsqaUBKTNV-1" source="m5jzVh6tU3gFUoCoh68g-225" target="m5jzVh6tU3gFUoCoh68g-251">
          <mxGeometry relative="1" as="geometry" />
        </mxCell>
        <mxCell id="m5jzVh6tU3gFUoCoh68g-225" value="&lt;span style=&quot;color: rgb(0, 29, 53); font-family: Arial, sans-serif; text-align: start; background-color: rgb(255, 255, 255);&quot;&gt;Stock_A6=&lt;/span&gt;&lt;span style=&quot;color: rgb(0, 29, 53); font-family: Arial, sans-serif; text-align: start; background-color: rgb(255, 255, 255);&quot;&gt;Stock_A6-1&lt;/span&gt;" style="rounded=0;whiteSpace=wrap;html=1;" vertex="1" parent="WIyWlLk6GJQsqaUBKTNV-1">
          <mxGeometry x="-1068" y="1555.62" width="130" height="60" as="geometry" />
        </mxCell>
        <mxCell id="m5jzVh6tU3gFUoCoh68g-226" value="จริง" style="edgeStyle=orthogonalEdgeStyle;rounded=0;orthogonalLoop=1;jettySize=auto;html=1;exitX=0;exitY=0.5;exitDx=0;exitDy=0;entryX=1;entryY=0.5;entryDx=0;entryDy=0;" edge="1" parent="WIyWlLk6GJQsqaUBKTNV-1" source="m5jzVh6tU3gFUoCoh68g-228" target="m5jzVh6tU3gFUoCoh68g-230">
          <mxGeometry relative="1" as="geometry" />
        </mxCell>
        <mxCell id="m5jzVh6tU3gFUoCoh68g-227" style="edgeStyle=orthogonalEdgeStyle;rounded=0;orthogonalLoop=1;jettySize=auto;html=1;exitX=0.5;exitY=1;exitDx=0;exitDy=0;entryX=0.5;entryY=0;entryDx=0;entryDy=0;" edge="1" parent="WIyWlLk6GJQsqaUBKTNV-1" source="m5jzVh6tU3gFUoCoh68g-228" target="m5jzVh6tU3gFUoCoh68g-237">
          <mxGeometry relative="1" as="geometry" />
        </mxCell>
        <mxCell id="m5jzVh6tU3gFUoCoh68g-228" value="จำนวนสินค้าA7&amp;gt;=1" style="rhombus;whiteSpace=wrap;html=1;" vertex="1" parent="WIyWlLk6GJQsqaUBKTNV-1">
          <mxGeometry x="-1279.25" y="1513" width="80" height="80" as="geometry" />
        </mxCell>
        <mxCell id="m5jzVh6tU3gFUoCoh68g-229" style="edgeStyle=orthogonalEdgeStyle;rounded=0;orthogonalLoop=1;jettySize=auto;html=1;exitX=0.5;exitY=1;exitDx=0;exitDy=0;entryX=0.5;entryY=0;entryDx=0;entryDy=0;" edge="1" parent="WIyWlLk6GJQsqaUBKTNV-1" source="m5jzVh6tU3gFUoCoh68g-230">
          <mxGeometry relative="1" as="geometry">
            <mxPoint x="-1461" y="1605.1299999999997" as="targetPoint" />
          </mxGeometry>
        </mxCell>
        <mxCell id="m5jzVh6tU3gFUoCoh68g-230" value="จำนวนสินค้าA7=จำนวนสินค้าA7-1" style="rounded=0;whiteSpace=wrap;html=1;" vertex="1" parent="WIyWlLk6GJQsqaUBKTNV-1">
          <mxGeometry x="-1570" y="1525.13" width="218" height="55.75" as="geometry" />
        </mxCell>
        <mxCell id="m5jzVh6tU3gFUoCoh68g-231" style="edgeStyle=orthogonalEdgeStyle;rounded=0;orthogonalLoop=1;jettySize=auto;html=1;exitX=0.5;exitY=1;exitDx=0;exitDy=0;entryX=0.5;entryY=0;entryDx=0;entryDy=0;" edge="1" parent="WIyWlLk6GJQsqaUBKTNV-1" source="m5jzVh6tU3gFUoCoh68g-232" target="m5jzVh6tU3gFUoCoh68g-234">
          <mxGeometry relative="1" as="geometry" />
        </mxCell>
        <mxCell id="m5jzVh6tU3gFUoCoh68g-232" value="ส่งสินค้าA7" style="shape=parallelogram;perimeter=parallelogramPerimeter;whiteSpace=wrap;html=1;fixedSize=1;" vertex="1" parent="WIyWlLk6GJQsqaUBKTNV-1">
          <mxGeometry x="-1521" y="1606.5" width="120" height="60" as="geometry" />
        </mxCell>
        <mxCell id="m5jzVh6tU3gFUoCoh68g-233" style="edgeStyle=orthogonalEdgeStyle;rounded=0;orthogonalLoop=1;jettySize=auto;html=1;exitX=0;exitY=0.5;exitDx=0;exitDy=0;entryX=1;entryY=0.5;entryDx=0;entryDy=0;" edge="1" parent="WIyWlLk6GJQsqaUBKTNV-1" source="m5jzVh6tU3gFUoCoh68g-234" target="m5jzVh6tU3gFUoCoh68g-239">
          <mxGeometry relative="1" as="geometry" />
        </mxCell>
        <mxCell id="m5jzVh6tU3gFUoCoh68g-234" value="&lt;span style=&quot;color: rgb(0, 29, 53); font-family: Arial, sans-serif; text-align: start; background-color: rgb(255, 255, 255);&quot;&gt;Stock_A7=&lt;/span&gt;&lt;span style=&quot;color: rgb(0, 29, 53); font-family: Arial, sans-serif; text-align: start; background-color: rgb(255, 255, 255);&quot;&gt;Stock_A7-1&lt;/span&gt;" style="rounded=0;whiteSpace=wrap;html=1;" vertex="1" parent="WIyWlLk6GJQsqaUBKTNV-1">
          <mxGeometry x="-1526" y="1686.5" width="130" height="60" as="geometry" />
        </mxCell>
        <mxCell id="m5jzVh6tU3gFUoCoh68g-235" value="จบ" style="ellipse;whiteSpace=wrap;html=1;" vertex="1" parent="WIyWlLk6GJQsqaUBKTNV-1">
          <mxGeometry x="-1299.13" y="1874" width="120" height="50" as="geometry" />
        </mxCell>
        <mxCell id="m5jzVh6tU3gFUoCoh68g-236" style="edgeStyle=orthogonalEdgeStyle;rounded=0;orthogonalLoop=1;jettySize=auto;html=1;exitX=0.5;exitY=1;exitDx=0;exitDy=0;" edge="1" parent="WIyWlLk6GJQsqaUBKTNV-1" source="m5jzVh6tU3gFUoCoh68g-237" target="m5jzVh6tU3gFUoCoh68g-235">
          <mxGeometry relative="1" as="geometry" />
        </mxCell>
        <mxCell id="m5jzVh6tU3gFUoCoh68g-237" value="" style="ellipse;whiteSpace=wrap;html=1;aspect=fixed;" vertex="1" parent="WIyWlLk6GJQsqaUBKTNV-1">
          <mxGeometry x="-1254.13" y="1814" width="30" height="30" as="geometry" />
        </mxCell>
        <mxCell id="m5jzVh6tU3gFUoCoh68g-238" style="edgeStyle=orthogonalEdgeStyle;rounded=0;orthogonalLoop=1;jettySize=auto;html=1;exitX=0.5;exitY=1;exitDx=0;exitDy=0;entryX=0;entryY=0.5;entryDx=0;entryDy=0;" edge="1" parent="WIyWlLk6GJQsqaUBKTNV-1" source="m5jzVh6tU3gFUoCoh68g-239" target="m5jzVh6tU3gFUoCoh68g-237">
          <mxGeometry relative="1" as="geometry" />
        </mxCell>
        <mxCell id="m5jzVh6tU3gFUoCoh68g-239" value="" style="ellipse;whiteSpace=wrap;html=1;aspect=fixed;" vertex="1" parent="WIyWlLk6GJQsqaUBKTNV-1">
          <mxGeometry x="-1640" y="1701.5" width="30" height="30" as="geometry" />
        </mxCell>
        <mxCell id="m5jzVh6tU3gFUoCoh68g-255" style="edgeStyle=orthogonalEdgeStyle;rounded=0;orthogonalLoop=1;jettySize=auto;html=1;exitX=0.5;exitY=1;exitDx=0;exitDy=0;entryX=0;entryY=0.5;entryDx=0;entryDy=0;" edge="1" parent="WIyWlLk6GJQsqaUBKTNV-1" source="m5jzVh6tU3gFUoCoh68g-241" target="m5jzVh6tU3gFUoCoh68g-254">
          <mxGeometry relative="1" as="geometry" />
        </mxCell>
        <mxCell id="m5jzVh6tU3gFUoCoh68g-241" value="" style="ellipse;whiteSpace=wrap;html=1;aspect=fixed;" vertex="1" parent="WIyWlLk6GJQsqaUBKTNV-1">
          <mxGeometry x="-1637" y="909" width="30" height="30" as="geometry" />
        </mxCell>
        <mxCell id="m5jzVh6tU3gFUoCoh68g-242" style="edgeStyle=orthogonalEdgeStyle;rounded=0;orthogonalLoop=1;jettySize=auto;html=1;exitX=0.5;exitY=1;exitDx=0;exitDy=0;entryX=0.5;entryY=0;entryDx=0;entryDy=0;" edge="1" parent="WIyWlLk6GJQsqaUBKTNV-1" source="m5jzVh6tU3gFUoCoh68g-243" target="m5jzVh6tU3gFUoCoh68g-241">
          <mxGeometry relative="1" as="geometry" />
        </mxCell>
        <mxCell id="m5jzVh6tU3gFUoCoh68g-243" value="" style="ellipse;whiteSpace=wrap;html=1;aspect=fixed;" vertex="1" parent="WIyWlLk6GJQsqaUBKTNV-1">
          <mxGeometry x="-1637" y="644" width="30" height="30" as="geometry" />
        </mxCell>
        <mxCell id="m5jzVh6tU3gFUoCoh68g-244" style="edgeStyle=orthogonalEdgeStyle;rounded=0;orthogonalLoop=1;jettySize=auto;html=1;exitX=0.5;exitY=1;exitDx=0;exitDy=0;entryX=0.5;entryY=0;entryDx=0;entryDy=0;" edge="1" parent="WIyWlLk6GJQsqaUBKTNV-1" source="m5jzVh6tU3gFUoCoh68g-245" target="m5jzVh6tU3gFUoCoh68g-243">
          <mxGeometry relative="1" as="geometry" />
        </mxCell>
        <mxCell id="m5jzVh6tU3gFUoCoh68g-245" value="" style="ellipse;whiteSpace=wrap;html=1;aspect=fixed;" vertex="1" parent="WIyWlLk6GJQsqaUBKTNV-1">
          <mxGeometry x="-1637" y="397.5" width="30" height="30" as="geometry" />
        </mxCell>
        <mxCell id="m5jzVh6tU3gFUoCoh68g-246" style="edgeStyle=orthogonalEdgeStyle;rounded=0;orthogonalLoop=1;jettySize=auto;html=1;exitX=0.5;exitY=1;exitDx=0;exitDy=0;entryX=0.5;entryY=0;entryDx=0;entryDy=0;" edge="1" parent="WIyWlLk6GJQsqaUBKTNV-1" source="m5jzVh6tU3gFUoCoh68g-247" target="m5jzVh6tU3gFUoCoh68g-249">
          <mxGeometry relative="1" as="geometry" />
        </mxCell>
        <mxCell id="m5jzVh6tU3gFUoCoh68g-247" value="" style="ellipse;whiteSpace=wrap;html=1;aspect=fixed;" vertex="1" parent="WIyWlLk6GJQsqaUBKTNV-1">
          <mxGeometry x="-867" y="513" width="30" height="30" as="geometry" />
        </mxCell>
        <mxCell id="m5jzVh6tU3gFUoCoh68g-256" style="edgeStyle=orthogonalEdgeStyle;rounded=0;orthogonalLoop=1;jettySize=auto;html=1;exitX=0.5;exitY=1;exitDx=0;exitDy=0;entryX=1;entryY=0.5;entryDx=0;entryDy=0;" edge="1" parent="WIyWlLk6GJQsqaUBKTNV-1" source="m5jzVh6tU3gFUoCoh68g-249" target="m5jzVh6tU3gFUoCoh68g-254">
          <mxGeometry relative="1" as="geometry" />
        </mxCell>
        <mxCell id="m5jzVh6tU3gFUoCoh68g-249" value="" style="ellipse;whiteSpace=wrap;html=1;aspect=fixed;" vertex="1" parent="WIyWlLk6GJQsqaUBKTNV-1">
          <mxGeometry x="-867" y="774" width="30" height="30" as="geometry" />
        </mxCell>
        <mxCell id="m5jzVh6tU3gFUoCoh68g-250" style="edgeStyle=orthogonalEdgeStyle;rounded=0;orthogonalLoop=1;jettySize=auto;html=1;exitX=0.5;exitY=1;exitDx=0;exitDy=0;entryX=1;entryY=0.5;entryDx=0;entryDy=0;" edge="1" parent="WIyWlLk6GJQsqaUBKTNV-1" source="m5jzVh6tU3gFUoCoh68g-251" target="m5jzVh6tU3gFUoCoh68g-237">
          <mxGeometry relative="1" as="geometry" />
        </mxCell>
        <mxCell id="m5jzVh6tU3gFUoCoh68g-251" value="" style="ellipse;whiteSpace=wrap;html=1;aspect=fixed;" vertex="1" parent="WIyWlLk6GJQsqaUBKTNV-1">
          <mxGeometry x="-870" y="1570.62" width="30" height="30" as="geometry" />
        </mxCell>
        <mxCell id="m5jzVh6tU3gFUoCoh68g-254" value="C" style="shape=offPageConnector;whiteSpace=wrap;html=1;" vertex="1" parent="WIyWlLk6GJQsqaUBKTNV-1">
          <mxGeometry x="-1276.13" y="994" width="80" height="80" as="geometry" />
        </mxCell>
        <mxCell id="m5jzVh6tU3gFUoCoh68g-258" value="เท็จ" style="edgeStyle=orthogonalEdgeStyle;rounded=0;orthogonalLoop=1;jettySize=auto;html=1;exitX=0.5;exitY=1;exitDx=0;exitDy=0;entryX=0.5;entryY=0;entryDx=0;entryDy=0;" edge="1" parent="WIyWlLk6GJQsqaUBKTNV-1" source="m5jzVh6tU3gFUoCoh68g-257" target="m5jzVh6tU3gFUoCoh68g-220">
          <mxGeometry relative="1" as="geometry" />
        </mxCell>
        <mxCell id="m5jzVh6tU3gFUoCoh68g-259" style="edgeStyle=orthogonalEdgeStyle;rounded=0;orthogonalLoop=1;jettySize=auto;html=1;exitX=0;exitY=0.5;exitDx=0;exitDy=0;entryX=0.5;entryY=0;entryDx=0;entryDy=0;" edge="1" parent="WIyWlLk6GJQsqaUBKTNV-1" source="m5jzVh6tU3gFUoCoh68g-257" target="m5jzVh6tU3gFUoCoh68g-239">
          <mxGeometry relative="1" as="geometry" />
        </mxCell>
        <mxCell id="m5jzVh6tU3gFUoCoh68g-260" style="edgeStyle=orthogonalEdgeStyle;rounded=0;orthogonalLoop=1;jettySize=auto;html=1;exitX=1;exitY=0.5;exitDx=0;exitDy=0;entryX=0.5;entryY=0;entryDx=0;entryDy=0;" edge="1" parent="WIyWlLk6GJQsqaUBKTNV-1" source="m5jzVh6tU3gFUoCoh68g-257" target="m5jzVh6tU3gFUoCoh68g-251">
          <mxGeometry relative="1" as="geometry" />
        </mxCell>
        <mxCell id="m5jzVh6tU3gFUoCoh68g-257" value="C" style="shape=offPageConnector;whiteSpace=wrap;html=1;" vertex="1" parent="WIyWlLk6GJQsqaUBKTNV-1">
          <mxGeometry x="-1279.13" y="1202" width="80" height="80" as="geometry" />
        </mxCell>
        <mxCell id="m5jzVh6tU3gFUoCoh68g-261" value="ฟังก์ชัน ส่งสินค้า&amp;nbsp;" style="swimlane;whiteSpace=wrap;html=1;" vertex="1" parent="WIyWlLk6GJQsqaUBKTNV-1">
          <mxGeometry x="-1640" y="1179" width="800" height="781" as="geometry" />
        </mxCell>
        <mxCell id="m5jzVh6tU3gFUoCoh68g-262" value="ฟังก์ชัน ส่งสินค้า&amp;nbsp;" style="swimlane;whiteSpace=wrap;html=1;" vertex="1" parent="WIyWlLk6GJQsqaUBKTNV-1">
          <mxGeometry x="-1640" y="13.5" width="810" height="1100" as="geometry" />
        </mxCell>
      </root>
    </mxGraphModel>
  </diagram>
</mxfile>
